  0
SECTION
  2
HEADER
  9
$ACADVER
  1
AC1027
  9
$ACADMAINTVER
 70
     8
  9
$DWGCODEPAGE
  3
ANSI_1252
  9
$REQUIREDVERSIONS
160
                 0
  9
$INSBASE
 10
0.0
 20
0.0
 30
0.0
  9
$EXTMIN
 10
1.000000000000000E+20
 20
1.000000000000000E+20
 30
1.000000000000000E+20
  9
$EXTMAX
 10
-1.000000000000000E+20
 20
-1.000000000000000E+20
 30
-1.000000000000000E+20
  9
$LIMMIN
 10
0.0
 20
0.0
  9
$LIMMAX
 10
12.0
 20
9.0
  9
$ORTHOMODE
 70
     0
  9
$REGENMODE
 70
     1
  9
$FILLMODE
 70
     1
  9
$QTEXTMODE
 70
     0
  9
$MIRRTEXT
 70
     1
  9
$LTSCALE
 40
1.0
  9
$ATTMODE
 70
     1
  9
$TEXTSIZE
 40
0.2
  9
$TRACEWID
 40
0.05
  9
$TEXTSTYLE
  7
Standard
  9
$CLAYER
  8
0
  9
$CELTYPE
  6
ByLayer
  9
$CECOLOR
 62
   178
  9
$CELTSCALE
 40
1.0
  9
$DISPSILH
 70
     0
  9
$DIMSCALE
 40
1.0
  9
$DIMASZ
 40
5.0
  9
$DIMEXO
 40
1.25
  9
$DIMDLI
 40
0.38
  9
$DIMRND
 40
0.0
  9
$DIMDLE
 40
0.0
  9
$DIMEXE
 40
2.5
  9
$DIMTP
 40
0.0
  9
$DIMTM
 40
0.0
  9
$DIMTXT
 40
5.0
  9
$DIMCEN
 40
0.09
  9
$DIMTSZ
 40
0.0
  9
$DIMTOL
 70
     0
  9
$DIMLIM
 70
     0
  9
$DIMTIH
 70
     1
  9
$DIMTOH
 70
     1
  9
$DIMSE1
 70
     0
  9
$DIMSE2
 70
     0
  9
$DIMTAD
 70
     0
  9
$DIMZIN
 70
     8
  9
$DIMBLK
  1

  9
$DIMASO
 70
     1
  9
$DIMSHO
 70
     1
  9
$DIMPOST
  1

  9
$DIMAPOST
  1

  9
$DIMALT
 70
     0
  9
$DIMALTD
 70
     2
  9
$DIMALTF
 40
25.4
  9
$DIMLFAC
 40
1.0
  9
$DIMTOFL
 70
     0
  9
$DIMTVP
 40
0.0
  9
$DIMTIX
 70
     0
  9
$DIMSOXD
 70
     0
  9
$DIMSAH
 70
     0
  9
$DIMBLK1
  1

  9
$DIMBLK2
  1

  9
$DIMSTYLE
  2
Standard
  9
$DIMCLRD
 70
   178
  9
$DIMCLRE
 70
   178
  9
$DIMCLRT
 70
   178
  9
$DIMTFAC
 40
1.0
  9
$DIMGAP
 40
1.25
  9
$DIMJUST
 70
     0
  9
$DIMSD1
 70
     0
  9
$DIMSD2
 70
     0
  9
$DIMTOLJ
 70
     1
  9
$DIMTZIN
 70
     0
  9
$DIMALTZ
 70
     0
  9
$DIMALTTZ
 70
     0
  9
$DIMUPT
 70
     0
  9
$DIMDEC
 70
     4
  9
$DIMTDEC
 70
     4
  9
$DIMALTU
 70
     2
  9
$DIMALTTD
 70
     2
  9
$DIMTXSTY
  7
Standard
  9
$DIMAUNIT
 70
     0
  9
$DIMADEC
 70
     0
  9
$DIMALTRND
 40
0.0
  9
$DIMAZIN
 70
     2
  9
$DIMDSEP
 70
    46
  9
$DIMATFIT
 70
     3
  9
$DIMFRAC
 70
     0
  9
$DIMLDRBLK
  1

  9
$DIMLUNIT
 70
     2
  9
$DIMLWD
 70
    -2
  9
$DIMLWE
 70
    -2
  9
$DIMTMOVE
 70
     0
  9
$DIMFXL
 40
1.0
  9
$DIMFXLON
 70
     0
  9
$DIMJOGANG
 40
0.7853981633974483
  9
$DIMTFILL
 70
     0
  9
$DIMTFILLCLR
 70
     0
  9
$DIMARCSYM
 70
     0
  9
$DIMLTYPE
  6

  9
$DIMLTEX1
  6

  9
$DIMLTEX2
  6

  9
$DIMTXTDIRECTION
 70
     0
  9
$LUNITS
 70
     2
  9
$LUPREC
 70
     4
  9
$SKETCHINC
 40
0.1
  9
$FILLETRAD
 40
0.5
  9
$AUNITS
 70
     0
  9
$AUPREC
 70
     0
  9
$MENU
  1
.
  9
$ELEVATION
 40
0.0
  9
$PELEVATION
 40
0.0
  9
$THICKNESS
 40
0.0
  9
$LIMCHECK
 70
     0
  9
$CHAMFERA
 40
0.0
  9
$CHAMFERB
 40
0.0
  9
$CHAMFERC
 40
0.0
  9
$CHAMFERD
 40
0.0
  9
$SKPOLY
 70
     0
  9
$TDCREATE
 40
2456900.380381945
  9
$TDUCREATE
 40
2456900.380381945
  9
$TDUPDATE
 40
2456900.380381945
  9
$TDUUPDATE
 40
2456900.380381945
  9
$TDINDWG
 40
0.0000000116
  9
$TDUSRTIMER
 40
0.0000000116
  9
$USRTIMER
 70
     1
  9
$ANGBASE
 50
0.0
  9
$ANGDIR
 70
     0
  9
$PDMODE
 70
     0
  9
$PDSIZE
 40
0.0
  9
$PLINEWID
 40
0.0
  9
$SPLFRAME
 70
     0
  9
$SPLINETYPE
 70
     6
  9
$SPLINESEGS
 70
     8
  9
$HANDSEED
  5
544
  9
$SURFTAB1
 70
     6
  9
$SURFTAB2
 70
     6
  9
$SURFTYPE
 70
     6
  9
$SURFU
 70
     6
  9
$SURFV
 70
     6
  9
$UCSBASE
  2

  9
$UCSNAME
  2

  9
$UCSORG
 10
0.0
 20
0.0
 30
0.0
  9
$UCSXDIR
 10
1.0
 20
0.0
 30
0.0
  9
$UCSYDIR
 10
0.0
 20
1.0
 30
0.0
  9
$UCSORTHOREF
  2

  9
$UCSORTHOVIEW
 70
     0
  9
$UCSORGTOP
 10
0.0
 20
0.0
 30
0.0
  9
$UCSORGBOTTOM
 10
0.0
 20
0.0
 30
0.0
  9
$UCSORGLEFT
 10
0.0
 20
0.0
 30
0.0
  9
$UCSORGRIGHT
 10
0.0
 20
0.0
 30
0.0
  9
$UCSORGFRONT
 10
0.0
 20
0.0
 30
0.0
  9
$UCSORGBACK
 10
0.0
 20
0.0
 30
0.0
  9
$PUCSBASE
  2

  9
$PUCSNAME
  2

  9
$PUCSORG
 10
0.0
 20
0.0
 30
0.0
  9
$PUCSXDIR
 10
1.0
 20
0.0
 30
0.0
  9
$PUCSYDIR
 10
0.0
 20
1.0
 30
0.0
  9
$PUCSORTHOREF
  2

  9
$PUCSORTHOVIEW
 70
     0
  9
$PUCSORGTOP
 10
0.0
 20
0.0
 30
0.0
  9
$PUCSORGBOTTOM
 10
0.0
 20
0.0
 30
0.0
  9
$PUCSORGLEFT
 10
0.0
 20
0.0
 30
0.0
  9
$PUCSORGRIGHT
 10
0.0
 20
0.0
 30
0.0
  9
$PUCSORGFRONT
 10
0.0
 20
0.0
 30
0.0
  9
$PUCSORGBACK
 10
0.0
 20
0.0
 30
0.0
  9
$USERI1
 70
     0
  9
$USERI2
 70
     0
  9
$USERI3
 70
     0
  9
$USERI4
 70
     0
  9
$USERI5
 70
     0
  9
$USERR1
 40
0.0
  9
$USERR2
 40
0.0
  9
$USERR3
 40
0.0
  9
$USERR4
 40
0.0
  9
$USERR5
 40
0.0
  9
$WORLDVIEW
 70
     1
  9
$SHADEDGE
 70
     3
  9
$SHADEDIF
 70
    70
  9
$TILEMODE
 70
     1
  9
$MAXACTVP
 70
     2
  9
$PINSBASE
 10
0.0
 20
0.0
 30
0.0
  9
$PLIMCHECK
 70
     0
  9
$PEXTMIN
 10
1.000000000000000E+20
 20
1.000000000000000E+20
 30
1.000000000000000E+20
  9
$PEXTMAX
 10
-1.000000000000000E+20
 20
-1.000000000000000E+20
 30
-1.000000000000000E+20
  9
$PLIMMIN
 10
0.0
 20
0.0
  9
$PLIMMAX
 10
12.0
 20
9.0
  9
$UNITMODE
 70
     0
  9
$VISRETAIN
 70
     1
  9
$PLINEGEN
 70
     0
  9
$PSLTSCALE
 70
     1
  9
$TREEDEPTH
 70
  3020
  9
$CMLSTYLE
  2
Standard
  9
$CMLJUST
 70
     0
  9
$CMLSCALE
 40
1.0
  9
$PROXYGRAPHICS
 70
     1
  9
$MEASUREMENT
 70
     1
  9
$CELWEIGHT
370
    -1
  9
$ENDCAPS
280
     0
  9
$JOINSTYLE
280
     0
  9
$LWDISPLAY
290
     0
  9
$INSUNITS
 70
     4
  9
$HYPERLINKBASE
  1

  9
$STYLESHEET
  1

  9
$XEDIT
290
     1
  9
$CEPSNTYPE
380
     0
  9
$PSTYLEMODE
290
     1
  9
$FINGERPRINTGUID
  2
{33C668DA-329E-43BB-B8A5-8A342A60FF1F}
  9
$VERSIONGUID
  2
{FAEB1C32-E019-11D5-929B-00C0DF256EC4}
  9
$EXTNAMES
290
     1
  9
$PSVPSCALE
 40
0.0
  9
$OLESTARTUP
290
     0
  9
$SORTENTS
280
   127
  9
$INDEXCTL
280
     0
  9
$HIDETEXT
280
     1
  9
$XCLIPFRAME
280
     2
  9
$HALOGAP
280
     0
  9
$OBSCOLOR
 70
   257
  9
$OBSLTYPE
280
     0
  9
$INTERSECTIONDISPLAY
280
     0
  9
$INTERSECTIONCOLOR
 70
   257
  9
$DIMASSOC
280
     2
  9
$PROJECTNAME
  1

  9
$CAMERADISPLAY
290
     0
  9
$LENSLENGTH
 40
50.0
  9
$CAMERAHEIGHT
 40
0.0
  9
$STEPSPERSEC
 40
2.0
  9
$STEPSIZE
 40
6.0
  9
$3DDWFPREC
 40
2.0
  9
$PSOLWIDTH
 40
0.25
  9
$PSOLHEIGHT
 40
4.0
  9
$LOFTANG1
 40
1.570796326794897
  9
$LOFTANG2
 40
1.570796326794897
  9
$LOFTMAG1
 40
0.0
  9
$LOFTMAG2
 40
0.0
  9
$LOFTPARAM
 70
     7
  9
$LOFTNORMALS
280
     1
  9
$LATITUDE
 40
37.795
  9
$LONGITUDE
 40
-122.394
  9
$NORTHDIRECTION
 40
0.0
  9
$TIMEZONE
 70
 -8000
  9
$LIGHTGLYPHDISPLAY
280
     1
  9
$TILEMODELIGHTSYNCH
280
     1
  9
$CMATERIAL
347
3D0
  9
$SOLIDHIST
280
     0
  9
$SHOWHIST
280
     1
  9
$DWFFRAME
280
     2
  9
$DGNFRAME
280
     2
  9
$REALWORLDSCALE
290
     1
  9
$INTERFERECOLOR
 62
   256
  9
$CSHADOW
280
     0
  9
$SHADOWPLANELOCATION
 40
0.0
  0
ENDSEC
  0
SECTION
  2
CLASSES
  0
CLASS
  1
ACDBDICTIONARYWDFLT
  2
AcDbDictionaryWithDefault
  3
ObjectDBX Classes
 90
        0
 91
        4
280
     0
281
     0
  0
CLASS
  1
VISUALSTYLE
  2
AcDbVisualStyle
  3
ObjectDBX Classes
 90
     4095
 91
        4
280
     0
281
     0
  0
CLASS
  1
MATERIAL
  2
AcDbMaterial
  3
ObjectDBX Classes
 90
     1153
 91
        4
280
     0
281
     0
  0
CLASS
  1
SCALE
  2
AcDbScale
  3
ObjectDBX Classes
 90
     1153
 91
        4
280
     0
281
     0
  0
CLASS
  1
TABLESTYLE
  2
AcDbTableStyle
  3
ObjectDBX Classes
 90
     4095
 91
        4
280
     0
281
     0
  0
CLASS
  1
MLEADERSTYLE
  2
AcDbMLeaderStyle
  3
ACDB_MLEADERSTYLE_CLASS
 90
     4095
 91
        4
280
     0
281
     0
  0
CLASS
  1
SUN
  2
AcDbSun
  3
SCENEOE
 90
     1153
 91
        4
280
     0
281
     0
  0
CLASS
  1
IMAGEDEF
  2
AcDbRasterImageDef
  3
ISM
 90
        0
 91
        4
280
     0
281
     0
  0
CLASS
  1
IMAGE
  2
AcDbRasterImage
  3
ISM
 90
      127
 91
        5
280
     0
281
     1
  0
CLASS
  1
IMAGEDEF_REACTOR
  2
AcDbRasterImageDefReactor
  3
ISM
 90
        1
 91
        4
280
     0
281
     0
  0
CLASS
  1
DICTIONARYVAR
  2
AcDbDictionaryVar
  3
ObjectDBX Classes
 90
        0
 91
        4
280
     0
281
     0
  0
CLASS
  1
CELLSTYLEMAP
  2
AcDbCellStyleMap
  3
ObjectDBX Classes
 90
     1152
 91
        4
280
     0
281
     0
  0
ENDSEC
  0
SECTION
  2
TABLES
  0
TABLE
  2
VPORT
  5
395
330
0
100
AcDbSymbolTable
 70
     1
  0
VPORT
  5
3B5
330
395
100
AcDbSymbolTableRecord
100
AcDbViewportTableRecord
  2
*Active
 70
     0
 10
0.0
 20
0.0
 11
1.0
 21
1.0
 12
10.42990654205607
 22
4.5
 13
0.0
 23
0.0
 14
0.5
 24
0.5
 15
0.5
 25
0.5
 16
0.0
 26
0.0
 36
1.0
 17
0.0
 27
0.0
 37
0.0
 40
9.0
 41
1.972972972850329
 42
50.0
 43
0.0
 44
0.0
 50
0.0
 51
0.0
 71
     0
 72
   100
 73
     1
 74
     3
 75
     0
 76
     0
 77
     0
 78
     0
281
     0
 65
     1
110
0.0
120
0.0
130
0.0
111
1.0
121
0.0
131
0.0
112
0.0
122
1.0
132
0.0
 79
     0
146
0.0
 60
     3
 61
     5
292
     1
282
     1
141
0.0
142
0.0
 63
   250
361
3F9
  0
ENDTAB
  0
TABLE
  2
LTYPE
  5
392
330
0
100
AcDbSymbolTable
 70
    19
  0
LTYPE
  5
3A0
330
392
100
AcDbSymbolTableRecord
100
AcDbLinetypeTableRecord
  2
ByBlock
 70
     0
  3

 72
    65
 73
     0
 40
0.0
  0
LTYPE
  5
3A1
330
392
100
AcDbSymbolTableRecord
100
AcDbLinetypeTableRecord
  2
ByLayer
 70
     0
  3

 72
    65
 73
     0
 40
0.0
  0
LTYPE
  5
3A2
330
392
100
AcDbSymbolTableRecord
100
AcDbLinetypeTableRecord
  2
Continuous
 70
     0
  3
Solid line
 72
    65
 73
     0
 40
0.0
  0
LTYPE
  5
42F
330
392
100
AcDbSymbolTableRecord
100
AcDbLinetypeTableRecord
  2
BORDER
 70
     0
  3

 72
    65
 73
     6
 40
42.00000000000001
 49
12.0
 74
     0
 49
-6.0
 74
     0
 49
12.0
 74
     0
 49
-5.95
 74
     0
 49
0.1
 74
     0
 49
-5.95
 74
     0
  0
LTYPE
  5
430
330
392
100
AcDbSymbolTableRecord
100
AcDbLinetypeTableRecord
  2
BORDER2
 70
     0
  3

 72
    65
 73
     6
 40
21.0
 49
6.0
 74
     0
 49
-3.0
 74
     0
 49
6.0
 74
     0
 49
-2.95
 74
     0
 49
0.1
 74
     0
 49
-2.95
 74
     0
  0
LTYPE
  5
431
330
392
100
AcDbSymbolTableRecord
100
AcDbLinetypeTableRecord
  2
BORDERX2
 70
     0
  3

 72
    65
 73
     6
 40
84.0
 49
24.0
 74
     0
 49
-12.0
 74
     0
 49
24.0
 74
     0
 49
-11.95
 74
     0
 49
0.1
 74
     0
 49
-11.95
 74
     0
  0
LTYPE
  5
432
330
392
100
AcDbSymbolTableRecord
100
AcDbLinetypeTableRecord
  2
CENTER
 70
     0
  3

 72
    65
 73
     4
 40
50.0
 49
32.0
 74
     0
 49
-6.0
 74
     0
 49
6.0
 74
     0
 49
-6.0
 74
     0
  0
LTYPE
  5
433
330
392
100
AcDbSymbolTableRecord
100
AcDbLinetypeTableRecord
  2
CENTER2
 70
     0
  3

 72
    65
 73
     4
 40
25.0
 49
16.0
 74
     0
 49
-3.0
 74
     0
 49
3.0
 74
     0
 49
-3.0
 74
     0
  0
LTYPE
  5
434
330
392
100
AcDbSymbolTableRecord
100
AcDbLinetypeTableRecord
  2
CENTERX2
 70
     0
  3

 72
    65
 73
     4
 40
100.0
 49
64.0
 74
     0
 49
-12.0
 74
     0
 49
12.0
 74
     0
 49
-12.0
 74
     0
  0
LTYPE
  5
435
330
392
100
AcDbSymbolTableRecord
100
AcDbLinetypeTableRecord
  2
DASHDOT
 70
     0
  3

 72
    65
 73
     4
 40
24.0
 49
12.0
 74
     0
 49
-5.95
 74
     0
 49
0.1
 74
     0
 49
-5.95
 74
     0
  0
LTYPE
  5
436
330
392
100
AcDbSymbolTableRecord
100
AcDbLinetypeTableRecord
  2
DASHDOT2
 70
     0
  3

 72
    65
 73
     4
 40
12.0
 49
6.0
 74
     0
 49
-2.95
 74
     0
 49
0.1
 74
     0
 49
-2.95
 74
     0
  0
LTYPE
  5
437
330
392
100
AcDbSymbolTableRecord
100
AcDbLinetypeTableRecord
  2
DASHDOTX2
 70
     0
  3

 72
    65
 73
     4
 40
48.0
 49
24.0
 74
     0
 49
-11.95
 74
     0
 49
0.1
 74
     0
 49
-11.95
 74
     0
  0
LTYPE
  5
438
330
392
100
AcDbSymbolTableRecord
100
AcDbLinetypeTableRecord
  2
DASHED
 70
     0
  3

 72
    65
 73
     2
 40
18.0
 49
12.0
 74
     0
 49
-6.0
 74
     0
  0
LTYPE
  5
439
330
392
100
AcDbSymbolTableRecord
100
AcDbLinetypeTableRecord
  2
DASHED2
 70
     0
  3

 72
    65
 73
     2
 40
9.0
 49
6.0
 74
     0
 49
-3.0
 74
     0
  0
LTYPE
  5
43A
330
392
100
AcDbSymbolTableRecord
100
AcDbLinetypeTableRecord
  2
DASHEDX2
 70
     0
  3

 72
    65
 73
     2
 40
36.0
 49
24.0
 74
     0
 49
-12.0
 74
     0
  0
LTYPE
  5
43B
330
392
100
AcDbSymbolTableRecord
100
AcDbLinetypeTableRecord
  2
DIVIDE
 70
     0
  3

 72
    65
 73
     6
 40
29.99999999999999
 49
12.0
 74
     0
 49
-5.9
 74
     0
 49
0.15
 74
     0
 49
-5.9
 74
     0
 49
0.15
 74
     0
 49
-5.9
 74
     0
  0
LTYPE
  5
43C
330
392
100
AcDbSymbolTableRecord
100
AcDbLinetypeTableRecord
  2
DIVIDE2
 70
     0
  3

 72
    65
 73
     6
 40
15.0
 49
6.0
 74
     0
 49
-2.9
 74
     0
 49
0.15
 74
     0
 49
-2.9
 74
     0
 49
0.15
 74
     0
 49
-2.9
 74
     0
  0
LTYPE
  5
43D
330
392
100
AcDbSymbolTableRecord
100
AcDbLinetypeTableRecord
  2
DIVIDEX2
 70
     0
  3

 72
    65
 73
     6
 40
59.99999999999999
 49
24.0
 74
     0
 49
-11.9
 74
     0
 49
0.15
 74
     0
 49
-11.9
 74
     0
 49
0.15
 74
     0
 49
-11.9
 74
     0
  0
LTYPE
  5
43E
330
392
100
AcDbSymbolTableRecord
100
AcDbLinetypeTableRecord
  2
DOT
 70
     0
  3

 72
    65
 73
     2
 40
6.3
 49
0.1
 74
     0
 49
-6.2
 74
     0
  0
LTYPE
  5
43F
330
392
100
AcDbSymbolTableRecord
100
AcDbLinetypeTableRecord
  2
DOT2
 70
     0
  3

 72
    65
 73
     2
 40
3.2
 49
0.1
 74
     0
 49
-3.1
 74
     0
  0
LTYPE
  5
440
330
392
100
AcDbSymbolTableRecord
100
AcDbLinetypeTableRecord
  2
DOTX2
 70
     0
  3

 72
    65
 73
     2
 40
12.5
 49
0.1
 74
     0
 49
-12.4
 74
     0
  0
ENDTAB
  0
TABLE
  2
LAYER
  5
38F
330
0
100
AcDbSymbolTable
 70
     8
  0
LAYER
  5
39D
330
38F
100
AcDbSymbolTableRecord
100
AcDbLayerTableRecord
  2
0
 70
     0
 62
     7
420
 16777215
  6
Continuous
370
    25
390
39C
347
3D2
348
0
  0
LAYER
  5
441
330
38F
100
AcDbSymbolTableRecord
100
AcDbLayerTableRecord
  2
Hidden Detail
 70
     0
 62
   178
420
        0
  6
DASHED2
370
    25
390
39C
347
3D2
348
0
  0
LAYER
  5
442
330
38F
100
AcDbSymbolTableRecord
100
AcDbLayerTableRecord
  2
NULL
 70
     0
 62
     4
420
    65535
  6
Continuous
370
    -3
390
39C
347
3D2
348
0
  0
LAYER
  5
443
330
38F
100
AcDbSymbolTableRecord
100
AcDbLayerTableRecord
  2
References
 70
     1
 62
     5
420
      255
  6
DOTX2
370
    25
390
39C
347
3D2
348
0
  0
LAYER
  5
444
330
38F
100
AcDbSymbolTableRecord
100
AcDbLayerTableRecord
  2
Page
 70
     0
 62
   178
420
        0
  6
Continuous
370
    25
390
39C
347
3D2
348
0
  0
LAYER
  5
445
330
38F
100
AcDbSymbolTableRecord
100
AcDbLayerTableRecord
  2
9.1 Drawing sheet
 70
     0
 62
   178
420
        0
  6
Continuous
370
     9
390
39C
347
3D2
348
0
  0
LAYER
  5
446
330
38F
100
AcDbSymbolTableRecord
100
AcDbLayerTableRecord
  2
Dimensions
 70
     0
 62
     5
420
      255
  6
Continuous
370
    25
390
39C
347
3D2
348
0
  0
LAYER
  5
447
330
38F
100
AcDbSymbolTableRecord
100
AcDbLayerTableRecord
  2
Defpoints
 70
     0
 62
     7
420
 16777215
  6
Continuous
290
     0
370
    -3
390
39C
347
3D2
348
0
  0
ENDTAB
  0
TABLE
  2
STYLE
  5
390
330
0
100
AcDbSymbolTable
 70
    42
  0
STYLE
  5
39E
330
390
100
AcDbSymbolTableRecord
100
AcDbTextStyleTableRecord
  2
Standard
 70
     0
 40
0.0
 41
1.0
 50
0.0
 71
     0
 42
0.2
  3
txt
  4

  0
STYLE
  5
42D
330
390
100
AcDbSymbolTableRecord
100
AcDbTextStyleTableRecord
  2
QCADDimTextStyle
 70
     0
 40
0.0
 41
1.0
 50
0.0
 71
     0
 42
0.2
  3
txt
  4

  0
STYLE
  5
454
330
390
100
AcDbSymbolTableRecord
100
AcDbTextStyleTableRecord
  2
textstyle0
 70
     0
 40
0.0
 41
1.0
 50
0.0
 71
     0
 42
0.2
  3
Standard
  4

1001
ACAD
1000
Standard
1071
        0
  0
STYLE
  5
455
330
390
100
AcDbSymbolTableRecord
100
AcDbTextStyleTableRecord
  2
textstyle1
 70
     0
 40
0.0
 41
1.0
 50
0.0
 71
     0
 42
0.2
  3
Standard
  4

1001
ACAD
1000
Standard
1071
        0
  0
STYLE
  5
456
330
390
100
AcDbSymbolTableRecord
100
AcDbTextStyleTableRecord
  2
textstyle2
 70
     0
 40
0.0
 41
1.0
 50
0.0
 71
     0
 42
0.2
  3
Standard
  4

1001
ACAD
1000
Standard
1071
        0
  0
STYLE
  5
457
330
390
100
AcDbSymbolTableRecord
100
AcDbTextStyleTableRecord
  2
textstyle3
 70
     0
 40
0.0
 41
1.0
 50
0.0
 71
     0
 42
0.2
  3
Standard
  4

1001
ACAD
1000
Standard
1071
        0
  0
STYLE
  5
458
330
390
100
AcDbSymbolTableRecord
100
AcDbTextStyleTableRecord
  2
textstyle4
 70
     0
 40
0.0
 41
1.0
 50
0.0
 71
     0
 42
0.2
  3
Standard
  4

1001
ACAD
1000
Standard
1071
        0
  0
STYLE
  5
459
330
390
100
AcDbSymbolTableRecord
100
AcDbTextStyleTableRecord
  2
textstyle5
 70
     0
 40
0.0
 41
1.0
 50
0.0
 71
     0
 42
0.2
  3
Standard
  4

  0
STYLE
  5
45A
330
390
100
AcDbSymbolTableRecord
100
AcDbTextStyleTableRecord
  2
textstyle6
 70
     0
 40
0.0
 41
1.0
 50
0.0
 71
     0
 42
0.2
  3
Standard
  4

1001
ACAD
1000
Standard
1071
        0
  0
STYLE
  5
45B
330
390
100
AcDbSymbolTableRecord
100
AcDbTextStyleTableRecord
  2
textstyle7
 70
     0
 40
0.0
 41
1.0
 50
0.0
 71
     0
 42
0.2
  3
Standard
  4

  0
STYLE
  5
45C
330
390
100
AcDbSymbolTableRecord
100
AcDbTextStyleTableRecord
  2
textstyle8
 70
     0
 40
0.0
 41
1.0
 50
0.0
 71
     0
 42
0.2
  3
Standard
  4

  0
STYLE
  5
45D
330
390
100
AcDbSymbolTableRecord
100
AcDbTextStyleTableRecord
  2
textstyle9
 70
     0
 40
0.0
 41
1.0
 50
0.0
 71
     0
 42
0.2
  3
Standard
  4

  0
STYLE
  5
45E
330
390
100
AcDbSymbolTableRecord
100
AcDbTextStyleTableRecord
  2
textstyle10
 70
     0
 40
0.0
 41
1.0
 50
0.0
 71
     0
 42
0.2
  3
Standard
  4

  0
STYLE
  5
45F
330
390
100
AcDbSymbolTableRecord
100
AcDbTextStyleTableRecord
  2
textstyle11
 70
     0
 40
0.0
 41
1.0
 50
0.0
 71
     0
 42
0.2
  3
Standard
  4

  0
STYLE
  5
460
330
390
100
AcDbSymbolTableRecord
100
AcDbTextStyleTableRecord
  2
textstyle12
 70
     0
 40
0.0
 41
1.0
 50
0.0
 71
     0
 42
0.2
  3
Standard
  4

  0
STYLE
  5
461
330
390
100
AcDbSymbolTableRecord
100
AcDbTextStyleTableRecord
  2
textstyle13
 70
     0
 40
0.0
 41
1.0
 50
0.0
 71
     0
 42
0.2
  3
Standard
  4

  0
STYLE
  5
462
330
390
100
AcDbSymbolTableRecord
100
AcDbTextStyleTableRecord
  2
textstyle14
 70
     0
 40
0.0
 41
1.0
 50
0.0
 71
     0
 42
0.2
  3
Standard
  4

1001
ACAD
1000
Standard
1071
        0
  0
STYLE
  5
463
330
390
100
AcDbSymbolTableRecord
100
AcDbTextStyleTableRecord
  2
textstyle15
 70
     0
 40
0.0
 41
1.0
 50
0.0
 71
     0
 42
0.2
  3
Standard
  4

1001
ACAD
1000
Standard
1071
        0
  0
STYLE
  5
51E
330
390
100
AcDbSymbolTableRecord
100
AcDbTextStyleTableRecord
  2
textstyle16
 70
     0
 40
0.0
 41
1.0
 50
0.0
 71
     0
 42
0.2
  3
Standard
  4

1001
ACAD
1000
Standard
1071
        0
  0
STYLE
  5
51F
330
390
100
AcDbSymbolTableRecord
100
AcDbTextStyleTableRecord
  2
textstyle17
 70
     0
 40
0.0
 41
1.0
 50
0.0
 71
     0
 42
0.2
  3
Standard
  4

1001
ACAD
1000
Standard
1071
        0
  0
STYLE
  5
520
330
390
100
AcDbSymbolTableRecord
100
AcDbTextStyleTableRecord
  2
textstyle18
 70
     0
 40
0.0
 41
1.0
 50
0.0
 71
     0
 42
0.2
  3
Standard
  4

1001
ACAD
1000
Standard
1071
        0
  0
STYLE
  5
521
330
390
100
AcDbSymbolTableRecord
100
AcDbTextStyleTableRecord
  2
textstyle19
 70
     0
 40
0.0
 41
1.0
 50
0.0
 71
     0
 42
0.2
  3
Standard
  4

1001
ACAD
1000
Standard
1071
        0
  0
STYLE
  5
522
330
390
100
AcDbSymbolTableRecord
100
AcDbTextStyleTableRecord
  2
textstyle20
 70
     0
 40
0.0
 41
1.0
 50
0.0
 71
     0
 42
0.2
  3
Standard
  4

1001
ACAD
1000
Standard
1071
        0
  0
STYLE
  5
523
330
390
100
AcDbSymbolTableRecord
100
AcDbTextStyleTableRecord
  2
textstyle21
 70
     0
 40
0.0
 41
1.0
 50
0.0
 71
     0
 42
0.2
  3
Standard
  4

  0
STYLE
  5
524
330
390
100
AcDbSymbolTableRecord
100
AcDbTextStyleTableRecord
  2
textstyle22
 70
     0
 40
0.0
 41
1.0
 50
0.0
 71
     0
 42
0.2
  3
Standard
  4

1001
ACAD
1000
Standard
1071
        0
  0
STYLE
  5
525
330
390
100
AcDbSymbolTableRecord
100
AcDbTextStyleTableRecord
  2
textstyle23
 70
     0
 40
0.0
 41
1.0
 50
0.0
 71
     0
 42
0.2
  3
Standard
  4

  0
STYLE
  5
526
330
390
100
AcDbSymbolTableRecord
100
AcDbTextStyleTableRecord
  2
textstyle24
 70
     0
 40
0.0
 41
1.0
 50
0.0
 71
     0
 42
0.2
  3
Standard
  4

  0
STYLE
  5
527
330
390
100
AcDbSymbolTableRecord
100
AcDbTextStyleTableRecord
  2
textstyle25
 70
     0
 40
0.0
 41
1.0
 50
0.0
 71
     0
 42
0.2
  3
Standard
  4

  0
STYLE
  5
528
330
390
100
AcDbSymbolTableRecord
100
AcDbTextStyleTableRecord
  2
textstyle26
 70
     0
 40
0.0
 41
1.0
 50
0.0
 71
     0
 42
0.2
  3
Standard
  4

  0
STYLE
  5
529
330
390
100
AcDbSymbolTableRecord
100
AcDbTextStyleTableRecord
  2
textstyle27
 70
     0
 40
0.0
 41
1.0
 50
0.0
 71
     0
 42
0.2
  3
Standard
  4

  0
STYLE
  5
52A
330
390
100
AcDbSymbolTableRecord
100
AcDbTextStyleTableRecord
  2
textstyle28
 70
     0
 40
0.0
 41
1.0
 50
0.0
 71
     0
 42
0.2
  3
Standard
  4

  0
STYLE
  5
52B
330
390
100
AcDbSymbolTableRecord
100
AcDbTextStyleTableRecord
  2
textstyle29
 70
     0
 40
0.0
 41
1.0
 50
0.0
 71
     0
 42
0.2
  3
Standard
  4

  0
STYLE
  5
52C
330
390
100
AcDbSymbolTableRecord
100
AcDbTextStyleTableRecord
  2
textstyle30
 70
     0
 40
0.0
 41
1.0
 50
0.0
 71
     0
 42
0.2
  3
Standard
  4

1001
ACAD
1000
Standard
1071
        0
  0
STYLE
  5
52D
330
390
100
AcDbSymbolTableRecord
100
AcDbTextStyleTableRecord
  2
textstyle31
 70
     0
 40
0.0
 41
1.0
 50
0.0
 71
     0
 42
0.2
  3
Standard
  4

1001
ACAD
1000
Standard
1071
        0
  0
STYLE
  5
531
330
390
100
AcDbSymbolTableRecord
100
AcDbTextStyleTableRecord
  2
textstyle32
 70
     0
 40
0.0
 41
1.0
 50
0.0
 71
     0
 42
0.2
  3
Standard
  4

  0
STYLE
  5
533
330
390
100
AcDbSymbolTableRecord
100
AcDbTextStyleTableRecord
  2
textstyle33
 70
     0
 40
0.0
 41
1.0
 50
0.0
 71
     0
 42
0.2
  3
Standard
  4

  0
STYLE
  5
534
330
390
100
AcDbSymbolTableRecord
100
AcDbTextStyleTableRecord
  2
textstyle34
 70
     0
 40
0.0
 41
1.0
 50
0.0
 71
     0
 42
0.2
  3
Standard
  4

  0
STYLE
  5
535
330
390
100
AcDbSymbolTableRecord
100
AcDbTextStyleTableRecord
  2
textstyle35
 70
     0
 40
0.0
 41
1.0
 50
0.0
 71
     0
 42
0.2
  3
Standard
  4

  0
STYLE
  5
536
330
390
100
AcDbSymbolTableRecord
100
AcDbTextStyleTableRecord
  2
textstyle36
 70
     0
 40
0.0
 41
1.0
 50
0.0
 71
     0
 42
0.2
  3
Standard
  4

  0
STYLE
  5
537
330
390
100
AcDbSymbolTableRecord
100
AcDbTextStyleTableRecord
  2
textstyle37
 70
     0
 40
0.0
 41
1.0
 50
0.0
 71
     0
 42
0.2
  3
Standard
  4

  0
STYLE
  5
538
330
390
100
AcDbSymbolTableRecord
100
AcDbTextStyleTableRecord
  2
textstyle38
 70
     0
 40
0.0
 41
1.0
 50
0.0
 71
     0
 42
0.2
  3
Standard
  4

  0
STYLE
  5
539
330
390
100
AcDbSymbolTableRecord
100
AcDbTextStyleTableRecord
  2
textstyle39
 70
     0
 40
0.0
 41
1.0
 50
0.0
 71
     0
 42
0.2
  3
Standard
  4

  0
ENDTAB
  0
TABLE
  2
VIEW
  5
393
330
0
100
AcDbSymbolTable
 70
     0
  0
ENDTAB
  0
TABLE
  2
UCS
  5
394
330
0
100
AcDbSymbolTable
 70
     0
  0
ENDTAB
  0
TABLE
  2
APPID
  5
396
330
0
100
AcDbSymbolTable
 70
     3
  0
APPID
  5
39F
330
396
100
AcDbSymbolTableRecord
100
AcDbRegAppTableRecord
  2
ACAD
 70
     0
  0
APPID
  5
3FA
330
396
100
AcDbSymbolTableRecord
100
AcDbRegAppTableRecord
  2
QCAD
 70
     0
  0
APPID
  5
532
330
396
100
AcDbSymbolTableRecord
100
AcDbRegAppTableRecord
  2
Attributes
 70
     0
  0
ENDTAB
  0
TABLE
  2
DIMSTYLE
  5
397
330
0
100
AcDbSymbolTable
 70
     2
100
AcDbDimStyleTable
  0
DIMSTYLE
105
3B3
330
397
100
AcDbSymbolTableRecord
100
AcDbDimStyleTableRecord
  2
Standard
 70
     0
178
     0
340
39E
  0
DIMSTYLE
105
42E
102
{ACAD_REACTORS
330
127
330
128
330
12A
330
12B
330
135
330
136
330
105
330
106
330
107
330
108
330
15F
330
160
330
161
330
164
330
165
102
}
330
397
100
AcDbSymbolTableRecord
100
AcDbDimStyleTableRecord
  2
QCADDimStyle
 70
     0
 41
5.0
 42
1.25
 44
2.5
 73
     0
 77
     1
140
5.0
147
1.25
178
     0
340
42D
  0
ENDTAB
  0
TABLE
  2
BLOCK_RECORD
  5
38E
330
0
100
AcDbSymbolTable
 70
    20
  0
BLOCK_RECORD
  5
3AB
330
38E
100
AcDbSymbolTableRecord
100
AcDbBlockTableRecord
  2
*Model_Space
340
3AE
 70
     0
280
     1
281
     0
  0
BLOCK_RECORD
  5
3A7
330
38E
100
AcDbSymbolTableRecord
100
AcDbBlockTableRecord
  2
*Paper_Space
340
3AA
 70
     0
280
     1
281
     0
  0
BLOCK_RECORD
  5
3AF
330
38E
100
AcDbSymbolTableRecord
100
AcDbBlockTableRecord
  2
*Paper_Space0
340
3B2
 70
     0
280
     1
281
     0
  0
BLOCK_RECORD
  5
448
330
38E
100
AcDbSymbolTableRecord
100
AcDbBlockTableRecord
  2
End Piece
340
0
102
{BLKREFS
331
142
331
145
102
}
 70
     0
280
     1
281
     0
  0
BLOCK_RECORD
  5
44B
330
38E
100
AcDbSymbolTableRecord
100
AcDbBlockTableRecord
  2
Title_Block
340
0
102
{BLKREFS
331
38C
102
}
 70
     0
280
     1
281
     0
  0
BLOCK_RECORD
  5
44E
330
38E
100
AcDbSymbolTableRecord
100
AcDbBlockTableRecord
  2
Title block
340
0
 70
     0
280
     1
281
     0
  0
BLOCK_RECORD
  5
451
330
38E
100
AcDbSymbolTableRecord
100
AcDbBlockTableRecord
  2
M10x100_DIN933_f
340
0
102
{BLKREFS
331
F3
331
F4
331
103
102
}
 70
     0
280
     1
281
     0
  0
BLOCK_RECORD
  5
464
330
38E
100
AcDbSymbolTableRecord
100
AcDbBlockTableRecord
  2
*D5
340
0
 70
     0
280
     1
281
     0
  0
BLOCK_RECORD
  5
471
330
38E
100
AcDbSymbolTableRecord
100
AcDbBlockTableRecord
  2
*D6
340
0
 70
     0
280
     1
281
     0
  0
BLOCK_RECORD
  5
47E
330
38E
100
AcDbSymbolTableRecord
100
AcDbBlockTableRecord
  2
*D7
340
0
 70
     0
280
     1
281
     0
  0
BLOCK_RECORD
  5
48A
330
38E
100
AcDbSymbolTableRecord
100
AcDbBlockTableRecord
  2
*D8
340
0
 70
     0
280
     1
281
     0
  0
BLOCK_RECORD
  5
496
330
38E
100
AcDbSymbolTableRecord
100
AcDbBlockTableRecord
  2
*D9
340
0
 70
     0
280
     1
281
     0
  0
BLOCK_RECORD
  5
4A3
330
38E
100
AcDbSymbolTableRecord
100
AcDbBlockTableRecord
  2
*D10
340
0
 70
     0
280
     1
281
     0
  0
BLOCK_RECORD
  5
4AF
330
38E
100
AcDbSymbolTableRecord
100
AcDbBlockTableRecord
  2
*D11
340
0
 70
     0
280
     1
281
     0
  0
BLOCK_RECORD
  5
4BB
330
38E
100
AcDbSymbolTableRecord
100
AcDbBlockTableRecord
  2
*D12
340
0
 70
     0
280
     1
281
     0
  0
BLOCK_RECORD
  5
4C7
330
38E
100
AcDbSymbolTableRecord
100
AcDbBlockTableRecord
  2
*D13
340
0
 70
     0
280
     1
281
     0
  0
BLOCK_RECORD
  5
4D4
330
38E
100
AcDbSymbolTableRecord
100
AcDbBlockTableRecord
  2
*D14
340
0
 70
     0
280
     1
281
     0
  0
BLOCK_RECORD
  5
4E0
330
38E
100
AcDbSymbolTableRecord
100
AcDbBlockTableRecord
  2
*D15
340
0
 70
     0
280
     1
281
     0
  0
BLOCK_RECORD
  5
4ED
330
38E
100
AcDbSymbolTableRecord
100
AcDbBlockTableRecord
  2
*D16
340
0
 70
     0
280
     1
281
     0
  0
BLOCK_RECORD
  5
4F9
330
38E
100
AcDbSymbolTableRecord
100
AcDbBlockTableRecord
  2
*D17
340
0
 70
     0
280
     1
281
     0
  0
BLOCK_RECORD
  5
505
330
38E
100
AcDbSymbolTableRecord
100
AcDbBlockTableRecord
  2
*D18
340
0
 70
     0
280
     1
281
     0
  0
BLOCK_RECORD
  5
512
330
38E
100
AcDbSymbolTableRecord
100
AcDbBlockTableRecord
  2
*D19
340
0
 70
     0
280
     1
281
     0
  0
ENDTAB
  0
ENDSEC
  0
SECTION
  2
BLOCKS
  0
BLOCK
  5
3AC
330
3AB
100
AcDbEntity
  8
0
100
AcDbBlockBegin
  2
*Model_Space
 70
     0
 10
0.0
 20
0.0
 30
0.0
  3
*Model_Space
  1

  0
ENDBLK
  5
3AD
330
3AB
100
AcDbEntity
  8
0
100
AcDbBlockEnd
  0
BLOCK
  5
3A8
330
3A7
100
AcDbEntity
 67
     1
  8
0
100
AcDbBlockBegin
  2
*Paper_Space
 70
     0
 10
0.0
 20
0.0
 30
0.0
  3
*Paper_Space
  1

  0
ENDBLK
  5
3A9
330
3A7
100
AcDbEntity
 67
     1
  8
0
100
AcDbBlockEnd
  0
BLOCK
  5
3B0
330
3AF
100
AcDbEntity
  8
0
100
AcDbBlockBegin
  2
*Paper_Space0
 70
     0
 10
0.0
 20
0.0
 30
0.0
  3
*Paper_Space0
  1

  0
ENDBLK
  5
3B1
330
3AF
100
AcDbEntity
  8
0
100
AcDbBlockEnd
  0
BLOCK
  5
449
330
448
100
AcDbEntity
  8
0
100
AcDbBlockBegin
  2
End Piece
 70
     0
 10
0.0
 20
0.0
 30
0.0
  3
End Piece
  1

  0
CIRCLE
  5
10A
330
448
100
AcDbEntity
  8
0
100
AcDbCircle
 10
50.0
 20
0.0
 30
0.0
 40
5.0
  0
LINE
  5
10F
330
448
100
AcDbEntity
  8
0
100
AcDbLine
 10
44.0
 20
8.0
 30
0.0
 11
56.0
 21
8.0
 31
0.0
  0
LINE
  5
110
330
448
100
AcDbEntity
  8
0
100
AcDbLine
 10
44.0
 20
-8.0
 30
0.0
 11
56.0
 21
-8.0
 31
0.0
  0
ARC
  5
111
330
448
100
AcDbEntity
  8
0
100
AcDbCircle
 10
50.0
 20
0.0
 30
0.0
 40
10.0
100
AcDbArc
 50
126.869897645844
 51
233.1301023541561
  0
ARC
  5
112
330
448
100
AcDbEntity
  8
0
100
AcDbCircle
 10
50.0
 20
0.0
 30
0.0
 40
10.0
100
AcDbArc
 50
306.869897645844
 51
53.13010235415599
  0
LINE
  5
120
330
448
100
AcDbEntity
  8
0
100
AcDbLine
 10
-20.0
 20
8.0
 30
0.0
 11
-20.0
 21
-8.0
 31
0.0
  0
LINE
  5
125
330
448
100
AcDbEntity
  8
Hidden Detail
100
AcDbLine
 10
-5.0
 20
-8.0
 30
0.0
 11
-5.0
 21
8.0
 31
0.0
  0
LINE
  5
126
330
448
100
AcDbEntity
  8
Hidden Detail
100
AcDbLine
 10
5.0
 20
-8.0
 30
0.0
 11
5.0
 21
8.0
 31
0.0
  0
DIMENSION
  5
127
330
448
100
AcDbEntity
  8
Dimensions
100
AcDbDimension
280
     0
  2
*D5
 10
5.0
 20
-19.81596065019522
 30
0.0
 11
0.0
 21
-16.06596065019522
 31
0.0
 70
    32
 71
     5
 42
10.0
 73
     0
 74
     0
 75
     0
  3
QCADDimStyle
100
AcDbAlignedDimension
 13
-5.0
 23
-8.0
 33
0.0
 14
5.0
 24
-8.0
 34
0.0
100
AcDbRotatedDimension
1001
ACAD
1000
DSTYLE
1002
{
1070
   279
1070
     2
1070
    41
1040
5.0
1070
    79
1070
     2
1070
   176
1070
     0
1070
   177
1070
     0
1070
   178
1070
     0
1070
    44
1040
2.5
1070
    42
1040
1.25
1070
   147
1040
1.25
1070
   140
1040
5.0
1070
    78
1070
     8
1002
}
  0
DIMENSION
  5
128
330
448
100
AcDbEntity
  8
Dimensions
100
AcDbDimension
280
     0
  2
*D6
 10
55.0
 20
-20.0
 30
0.0
 11
50.0
 21
-16.25
 31
0.0
 70
    32
 71
     5
 42
10.0
 73
     0
 74
     0
 75
     0
  3
QCADDimStyle
100
AcDbAlignedDimension
 13
45.0
 23
0.0
 33
0.0
 14
55.0
 24
0.0
 34
0.0
100
AcDbRotatedDimension
1001
ACAD
1000
DSTYLE
1002
{
1070
   279
1070
     2
1070
    41
1040
5.0
1070
    79
1070
     2
1070
   176
1070
     0
1070
   177
1070
     0
1070
   178
1070
     0
1070
    44
1040
2.5
1070
    42
1040
1.25
1070
   147
1040
1.25
1070
   140
1040
5.0
1070
    78
1070
     8
1002
}
  0
DIMENSION
  5
12A
330
448
100
AcDbEntity
  8
Dimensions
100
AcDbDimension
280
     0
  2
*D7
 10
-30.0
 20
8.0
 30
0.0
 11
-33.75
 21
0.0
 31
0.0
 70
    32
 71
     5
 42
16.0
 73
     0
 74
     0
 75
     0
  3
QCADDimStyle
100
AcDbAlignedDimension
 13
-20.0
 23
-8.0
 33
0.0
 14
-20.0
 24
8.0
 34
0.0
 50
90.0
100
AcDbRotatedDimension
1001
ACAD
1000
DSTYLE
1002
{
1070
   279
1070
     2
1070
    41
1040
5.0
1070
    79
1070
     2
1070
   176
1070
     0
1070
   177
1070
     0
1070
   178
1070
     0
1070
    44
1040
2.5
1070
    42
1040
1.25
1070
   147
1040
1.25
1070
   140
1040
5.0
1070
    78
1070
     8
1002
}
  0
DIMENSION
  5
12B
330
448
100
AcDbEntity
  8
Dimensions
100
AcDbDimension
280
     0
  2
*D8
 10
60.0
 20
-24.84472318299382
 30
0.0
 11
50.0
 21
-21.09472318299382
 31
0.0
 70
    32
 71
     5
 42
20.0
 73
     0
 74
     0
 75
     0
  3
QCADDimStyle
100
AcDbAlignedDimension
 13
40.0
 23
0.0
 33
0.0
 14
60.0
 24
0.0
 34
0.0
100
AcDbRotatedDimension
1001
ACAD
1000
DSTYLE
1002
{
1070
   279
1070
     2
1070
    41
1040
5.0
1070
    79
1070
     2
1070
   176
1070
     0
1070
   177
1070
     0
1070
   178
1070
     0
1070
    44
1040
2.5
1070
    42
1040
1.25
1070
   147
1040
1.25
1070
   140
1040
5.0
1070
    78
1070
     8
1002
}
  0
LINE
  5
12C
330
448
100
AcDbEntity
  8
Hidden Detail
100
AcDbLine
 10
45.0
 20
-8.0
 30
0.0
 11
45.0
 21
8.0
 31
0.0
  0
LINE
  5
12D
330
448
100
AcDbEntity
  8
Hidden Detail
100
AcDbLine
 10
55.0
 20
-8.0
 30
0.0
 11
55.0
 21
8.0
 31
0.0
  0
LINE
  5
12E
330
448
100
AcDbEntity
  8
0
100
AcDbLine
 10
-20.0
 20
8.0
 30
0.0
 11
15.0
 21
8.0
 31
0.0
  0
LINE
  5
12F
330
448
100
AcDbEntity
  8
0
100
AcDbLine
 10
-20.0
 20
-8.0
 30
0.0
 11
15.0
 21
-8.0
 31
0.0
  0
LINE
  5
130
330
448
100
AcDbEntity
  8
0
100
AcDbLine
 10
15.0
 20
-8.0
 30
0.0
 11
15.0
 21
-5.0
 31
0.0
  0
LINE
  5
131
330
448
100
AcDbEntity
  8
0
100
AcDbLine
 10
15.0
 20
5.0
 30
0.0
 11
15.0
 21
8.0
 31
0.0
  0
LINE
  5
132
330
448
100
AcDbEntity
  8
0
100
AcDbLine
 10
15.0
 20
5.0
 30
0.0
 11
25.0
 21
5.0
 31
0.0
  0
LINE
  5
133
330
448
100
AcDbEntity
  8
0
100
AcDbLine
 10
15.0
 20
-5.0
 30
0.0
 11
25.0
 21
-5.0
 31
0.0
  0
LINE
  5
134
330
448
100
AcDbEntity
  8
0
100
AcDbLine
 10
25.0
 20
5.0
 30
0.0
 11
25.0
 21
-5.0
 31
0.0
  0
DIMENSION
  5
135
330
448
100
AcDbEntity
  8
Dimensions
100
AcDbDimension
280
     0
  2
*D9
 10
25.0
 20
-20.0
 30
0.0
 11
20.0
 21
-16.25
 31
0.0
 70
    32
 71
     5
 42
10.0
 73
     0
 74
     0
 75
     0
  3
QCADDimStyle
100
AcDbAlignedDimension
 13
15.0
 23
-5.0
 33
0.0
 14
25.0
 24
-5.0
 34
0.0
100
AcDbRotatedDimension
1001
ACAD
1000
DSTYLE
1002
{
1070
   279
1070
     2
1070
    41
1040
5.0
1070
    79
1070
     2
1070
   176
1070
     0
1070
   177
1070
     0
1070
   178
1070
     0
1070
    44
1040
2.5
1070
    42
1040
1.25
1070
   147
1040
1.25
1070
   140
1040
5.0
1070
    78
1070
     8
1002
}
  0
DIMENSION
  5
136
330
448
100
AcDbEntity
  8
Dimensions
100
AcDbDimension
280
     0
  2
*D10
 10
25.0
 20
-30.0
 30
0.0
 11
2.5
 21
-26.25
 31
0.0
 70
    32
 71
     5
 42
45.0
 73
     0
 74
     0
 75
     0
  3
QCADDimStyle
100
AcDbAlignedDimension
 13
-20.0
 23
-8.0
 33
0.0
 14
25.0
 24
-5.0
 34
0.0
100
AcDbRotatedDimension
1001
ACAD
1000
DSTYLE
1002
{
1070
   279
1070
     2
1070
    41
1040
5.0
1070
    79
1070
     2
1070
   176
1070
     0
1070
   177
1070
     0
1070
   178
1070
     0
1070
    44
1040
2.5
1070
    42
1040
1.25
1070
   147
1040
1.25
1070
   140
1040
5.0
1070
    78
1070
     8
1002
}
  0
LINE
  5
13D
330
448
100
AcDbEntity
  8
References
100
AcDbLine
 10
-40.0
 20
8.0
 30
0.0
 11
80.0
 21
8.0
 31
0.0
  0
LINE
  5
13E
330
448
100
AcDbEntity
  8
References
100
AcDbLine
 10
-40.0
 20
5.0
 30
0.0
 11
80.0
 21
5.0
 31
0.0
  0
LINE
  5
13F
330
448
100
AcDbEntity
  8
References
100
AcDbLine
 10
-40.0
 20
-5.0
 30
0.0
 11
80.0
 21
-5.0
 31
0.0
  0
LINE
  5
140
330
448
100
AcDbEntity
  8
References
100
AcDbLine
 10
-40.0
 20
-8.0
 30
0.0
 11
80.0
 21
-8.0
 31
0.0
  0
ENDBLK
  5
44A
330
448
100
AcDbEntity
  8
0
100
AcDbBlockEnd
  0
BLOCK
  5
44C
330
44B
100
AcDbEntity
  8
0
100
AcDbBlockBegin
  2
Title_Block
 70
     2
 10
0.0
 20
0.0
 30
0.0
  3
Title_Block
  1

  0
MTEXT
  5
366
330
44B
100
AcDbEntity
  8
9.1 Drawing sheet
  6
Continuous
370
     0
100
AcDbMText
 10
-99.23973375451266
 20
27.1524363532405
 30
0.0
 40
1.738229999999999
 41
96.56814079422385
 46
0.0
 71
     2
 72
     1
  1
Drawing No.:
  7
textstyle16
 73
     1
 44
1.0
  0
LINE
  5
367
330
44B
100
AcDbEntity
  8
9.1 Drawing sheet
100
AcDbLine
 10
-157.40625
 20
28.0
 30
0.0
 11
0.0
 21
28.0
 31
0.0
  0
LINE
  5
368
330
44B
100
AcDbEntity
  8
9.1 Drawing sheet
100
AcDbLine
 10
-116.7397337545127
 20
21.00000000000001
 30
0.0
 11
-116.7397337545127
 21
28.0
 31
0.0
  0
LINE
  5
369
330
44B
100
AcDbEntity
  8
9.1 Drawing sheet
100
AcDbLine
 10
-141.7397337545127
 20
21.00000000000001
 30
0.0
 11
-141.7397337545127
 21
28.0
 31
0.0
  0
LINE
  5
36A
330
44B
100
AcDbEntity
  8
9.1 Drawing sheet
  6
DASHDOT2
 62
     9
420
 12632256
370
     5
100
AcDbLine
 10
-83.53851711827724
 20
24.50000000000004
 30
0.0
 11
-79.09351711827726
 21
24.50000000000004
 31
0.0
  0
LINE
  5
36B
330
44B
100
AcDbEntity
  8
9.1 Drawing sheet
100
AcDbLine
 10
-126.7397337545127
 20
21.00000000000001
 30
0.0
 11
-126.7397337545127
 21
28.0
 31
0.0
  0
LINE
  5
36C
330
44B
100
AcDbEntity
  8
9.1 Drawing sheet
100
AcDbLine
 10
-106.7397337545127
 20
21.00000000000001
 30
0.0
 11
-106.7397337545127
 21
28.0
 31
0.0
  0
MTEXT
  5
36D
330
44B
100
AcDbEntity
  8
9.1 Drawing sheet
  6
Continuous
370
     0
100
AcDbMText
 10
-149.5729918772563
 20
27.15243635324036
 30
0.0
 40
1.738229999999999
 41
96.56814079422385
 46
0.0
 71
     2
 72
     1
  1
Designed:
  7
textstyle17
 73
     1
 44
1.0
  0
CIRCLE
  5
36E
330
44B
100
AcDbEntity
  8
9.1 Drawing sheet
  6
Continuous
 62
     9
420
 12632256
370
     9
100
AcDbCircle
 10
-87.16345039074811
 20
24.50000000000004
 30
0.0
 40
1.045039318981162
  0
MTEXT
  5
36F
330
44B
100
AcDbEntity
  8
9.1 Drawing sheet
  6
Continuous
370
     0
100
AcDbMText
 10
-134.2397337545127
 20
27.15243635324072
 30
0.0
 40
1.738229999999999
 41
96.56814079422385
 46
0.0
 71
     2
 72
     1
  1
Date:
  7
textstyle18
 73
     1
 44
1.0
  0
CIRCLE
  5
370
330
44B
100
AcDbEntity
  8
9.1 Drawing sheet
  6
Continuous
 62
     9
420
 12632256
370
     9
100
AcDbCircle
 10
-87.16345039074811
 20
24.50000000000004
 30
0.0
 40
1.897832541109371
  0
MTEXT
  5
371
330
44B
100
AcDbEntity
  8
9.1 Drawing sheet
  6
Continuous
370
     0
100
AcDbMText
 10
-121.7397337545127
 20
27.15243635324054
 30
0.0
 40
1.738229999999999
 41
96.56814079422385
 46
0.0
 71
     2
 72
     1
  1
Scale:
  7
textstyle19
 73
     1
 44
1.0
  0
LINE
  5
372
330
44B
100
AcDbEntity
  8
9.1 Drawing sheet
  6
Continuous
 62
     9
420
 12632256
370
     9
100
AcDbLine
 10
-79.34859232437442
 20
26.39783254110942
 30
0.0
 11
-79.34859232437442
 21
22.60216745889068
 31
0.0
  0
MTEXT
  5
373
330
44B
100
AcDbEntity
  8
9.1 Drawing sheet
  6
Continuous
370
     0
100
AcDbMText
 10
-151.5024098586736
 20
19.77156643398788
 30
0.0
 40
1.738229999999999
 41
96.56814079422385
 46
0.0
 71
     2
 72
     1
  1
License:
  7
textstyle20
 73
     1
 44
1.0
  0
ATTDEF
  5
374
330
44B
100
AcDbEntity
  8
9.1 Drawing sheet
  6
Continuous
370
     0
100
AcDbText
 10
-145.303125
 20
18.15000000000012
 30
0.0
 40
1.5
  1
Creative Commons Attribution-ShareAlike 
  7
textstyle21
 11
-145.303125
 21
18.90000000000012
 31
0.0
100
AcDbAttributeDefinition
  3
License
  2
8. License
 70
     0
 74
     2
280
     0
  0
MTEXT
  5
375
330
44B
100
AcDbEntity
  8
9.1 Drawing sheet
  6
Continuous
370
     0
100
AcDbMText
 10
-111.7397337545127
 20
27.15243635324054
 30
0.0
 40
1.738229999999999
 41
96.56814079422385
 46
0.0
 71
     2
 72
     1
  1
Sheet:
  7
textstyle22
 73
     1
 44
1.0
  0
LINE
  5
376
330
44B
100
AcDbEntity
  8
9.1 Drawing sheet
  6
Continuous
 62
     9
420
 12632256
370
     9
100
AcDbLine
 10
-83.28344191218008
 20
25.54503931898122
 30
0.0
 11
-83.28344191218008
 21
23.45496068101889
 31
0.0
  0
LINE
  5
377
330
44B
100
AcDbEntity
  8
9.1 Drawing sheet
100
AcDbLine
 10
-91.73973375451266
 20
0.0000000000000213
 30
0.0
 11
-91.73973375451266
 21
21.00000000000001
 31
0.0
  0
LINE
  5
378
330
44B
100
AcDbEntity
  8
9.1 Drawing sheet
  6
Continuous
 62
     9
420
 12632256
370
     9
100
AcDbLine
 10
-83.28344191218008
 20
23.45496068101889
 30
0.0
 11
-79.34859232437442
 21
22.60216745889068
 31
0.0
  0
LINE
  5
379
330
44B
100
AcDbEntity
  8
9.1 Drawing sheet
  6
Continuous
 62
     9
420
 12632256
370
     9
100
AcDbLine
 10
-79.34859232437442
 20
26.39783254110942
 30
0.0
 11
-83.28344191218008
 21
25.54503931898122
 31
0.0
  0
ATTDEF
  5
37A
330
44B
100
AcDbEntity
  8
9.1 Drawing sheet
  6
Continuous
370
     0
100
AcDbText
 10
-45.8698668772563
 20
9.230000000000008
 30
0.0
 40
2.54
  1

  7
textstyle23
 72
     1
 11
-45.8698668772563
 21
10.50000000000001
 31
0.0
100
AcDbAttributeDefinition
  3
Title
  2
2. Title
 70
     0
 74
     2
280
     0
  0
ATTDEF
  5
37B
330
44B
100
AcDbEntity
  8
9.1 Drawing sheet
  6
Continuous
370
     0
100
AcDbText
 10
-49.8369008290483
 20
24.03943795887411
 30
0.0
 40
1.5
  1

  7
textstyle24
 11
-49.8369008290483
 21
24.78943795887411
 31
0.0
100
AcDbAttributeDefinition
  3
Project
  2
1. Project
 70
     0
 74
     2
280
     0
  0
ATTDEF
  5
37C
330
44B
100
AcDbEntity
  8
9.1 Drawing sheet
  6
Continuous
370
     0
100
AcDbText
 10
-99.23973375451266
 20
22.24999999999994
 30
0.0
 40
1.5
  1

  7
textstyle25
 72
     1
 11
-99.23973375451266
 21
22.99999999999994
 31
0.0
100
AcDbAttributeDefinition
  3
Drawing No.
  2
3. Drawing No.
 70
     0
 74
     2
280
     0
  0
ATTDEF
  5
37D
330
44B
100
AcDbEntity
  8
9.1 Drawing sheet
  6
Continuous
370
     0
100
AcDbText
 10
-111.7397337545127
 20
22.25000000000004
 30
0.0
 40
1.5
  1

  7
textstyle26
 72
     1
 11
-111.7397337545127
 21
23.00000000000004
 31
0.0
100
AcDbAttributeDefinition
  3
Sheet
  2
7. Sheet
 70
     0
 74
     2
280
     0
  0
ATTDEF
  5
37E
330
44B
100
AcDbEntity
  8
9.1 Drawing sheet
  6
Continuous
370
     0
100
AcDbText
 10
-121.7397337545127
 20
22.24999999999996
 30
0.0
 40
1.5
  1

  7
textstyle27
 72
     1
 11
-121.7397337545127
 21
22.99999999999996
 31
0.0
100
AcDbAttributeDefinition
  3
Scale
  2
6. Scale
 70
     0
 74
     2
280
     0
  0
ATTDEF
  5
37F
330
44B
100
AcDbEntity
  8
9.1 Drawing sheet
  6
Continuous
370
     0
100
AcDbText
 10
-134.2397337545127
 20
22.24999999999995
 30
0.0
 40
1.5
  1

  7
textstyle28
 72
     1
 11
-134.2397337545127
 21
22.99999999999995
 31
0.0
100
AcDbAttributeDefinition
  3
Date
  2
4. Drawing Date
 70
     0
 74
     2
280
     0
  0
ATTDEF
  5
380
330
44B
100
AcDbEntity
  8
9.1 Drawing sheet
  6
Continuous
370
     0
100
AcDbText
 10
-157.6087061629706
 20
22.2499999999998
 30
0.0
 40
1.5
  1
Russell Gower
  7
textstyle29
 72
     1
 11
-149.5729918772563
 21
22.9999999999998
 31
0.0
100
AcDbAttributeDefinition
  3
Designed
  2
5. Designed
 70
     0
 74
     2
280
     0
  0
MTEXT
  5
381
330
44B
100
AcDbEntity
  8
9.1 Drawing sheet
  6
Continuous
370
     0
100
AcDbMText
 10
-75.25166607373669
 20
24.50000000000006
 30
0.0
 40
1.738231
 41
96.56814079422385
 46
0.0
 71
     4
 72
     1
  1
Project:
  7
textstyle30
 73
     1
 44
1.0
  0
LINE
  5
382
330
44B
100
AcDbEntity
  8
9.1 Drawing sheet
100
AcDbLine
 10
-157.40625
 20
0.0
 30
0.0
 11
0.0
 21
0.0
 31
0.0
  0
LINE
  5
383
330
44B
100
AcDbEntity
  8
9.1 Drawing sheet
100
AcDbLine
 10
-91.73973375451266
 20
21.00000000000003
 30
0.0
 11
-91.73973375451268
 21
28.00000000000006
 31
0.0
  0
LINE
  5
384
330
44B
100
AcDbEntity
  8
9.1 Drawing sheet
100
AcDbLine
 10
0.0
 20
0.0000000000000213
 30
0.0
 11
0.0
 21
28.0
 31
0.0
  0
LINE
  5
385
330
44B
100
AcDbEntity
  8
9.1 Drawing sheet
100
AcDbLine
 10
-76.73973375451267
 20
21.00000000000003
 30
0.0
 11
-76.73973375451268
 21
28.00000000000006
 31
0.0
  0
LINE
  5
386
330
44B
100
AcDbEntity
  8
9.1 Drawing sheet
  6
DASHDOT2
 62
     9
420
 12632256
370
     5
100
AcDbLine
 10
-87.16345039074811
 20
22.27750000000006
 30
0.0
 11
-87.16345039074811
 21
26.72250000000003
 31
0.0
  0
LINE
  5
387
330
44B
100
AcDbEntity
  8
9.1 Drawing sheet
100
AcDbLine
 10
-157.40625
 20
28.0
 30
0.0
 11
-157.40625
 21
0.0
 31
0.0
  0
LINE
  5
388
330
44B
100
AcDbEntity
  8
9.1 Drawing sheet
100
AcDbLine
 10
-157.40625
 20
21.00000000000001
 30
0.0
 11
0.0
 21
21.00000000000001
 31
0.0
  0
LINE
  5
389
330
44B
100
AcDbEntity
  8
9.1 Drawing sheet
  6
DASHDOT2
 62
     9
420
 12632256
370
     5
100
AcDbLine
 10
-89.38595039074806
 20
24.50000000000004
 30
0.0
 11
-84.94095039074803
 21
24.50000000000004
 31
0.0
  0
MTEXT
  5
38A
330
44B
100
AcDbEntity
  8
9.1 Drawing sheet
  6
Continuous
370
     0
100
AcDbMText
 10
-88.23228620279437
 20
20.11427840362431
 30
0.0
 40
1.73823122
 41
96.56814079422385
 46
0.0
 71
     2
 72
     1
  1
Title:
  7
textstyle31
 73
     1
 44
1.0
  0
IMAGE
  5
38B
330
44B
100
AcDbEntity
  8
0
160
               140
310
8C0000000100000084000000060000000500000026BC2A3D40E361C004641A9CEA55004000000000000000004C78557A80C659C004641A9CEA55004000000000000000004C78557A80C659C00920E51578093040000000000000000026BC2A3D40E361C00920E51578093040000000000000000026BC2A3D40E361C004641A
310
9CEA5500400000000000000000
100
AcDbRasterImage
 90
        0
 10
-143.1015916666667
 20
2.041951388888722
 30
0.0
 11
0.09925558312655088
 21
0.0
 31
0.0
 12
6.077651608671727E-18
 22
0.09925558312655086
 32
0.0
 13
403.0
 23
141.0
340
52F
 70
     3
280
     0
281
    50
282
    50
283
     0
360
530
 71
     1
 91
        2
 14
-0.5
 24
-0.5
 14
402.5
 24
140.5
290
     0
  0
ENDBLK
  5
44D
330
44B
100
AcDbEntity
  8
0
100
AcDbBlockEnd
  0
BLOCK
  5
44F
330
44E
100
AcDbEntity
  8
0
100
AcDbBlockBegin
  2
Title block
 70
     2
 10
0.0
 20
0.0
 30
0.0
  3
Title block
  1

  0
MTEXT
  5
19D
330
44E
100
AcDbEntity
  8
9.1 Drawing sheet
  6
Continuous
370
     0
100
AcDbMText
 10
-99.23973375451264
 20
27.15243635324049
 30
0.0
 40
1.738229999999999
 41
96.56814079422385
 46
0.0
 71
     2
 72
     1
  1
Drawing No.:
  7
textstyle0
 73
     1
 44
1.0
  0
LINE
  5
19E
330
44E
100
AcDbEntity
  8
9.1 Drawing sheet
100
AcDbLine
 10
-157.40625
 20
27.99999999999999
 30
0.0
 11
0.0
 21
27.99999999999999
 31
0.0
  0
LINE
  5
19F
330
44E
100
AcDbEntity
  8
9.1 Drawing sheet
100
AcDbLine
 10
-116.7397337545127
 20
21.0
 30
0.0
 11
-116.7397337545127
 21
27.99999999999999
 31
0.0
  0
LINE
  5
1A0
330
44E
100
AcDbEntity
  8
9.1 Drawing sheet
100
AcDbLine
 10
-141.7397337545127
 20
21.0
 30
0.0
 11
-141.7397337545127
 21
27.99999999999999
 31
0.0
  0
LINE
  5
1A1
330
44E
100
AcDbEntity
  8
9.1 Drawing sheet
  6
DASHDOT2
 62
     9
420
 12632256
370
     5
100
AcDbLine
 10
-83.53851711827723
 20
24.50000000000003
 30
0.0
 11
-79.09351711827725
 21
24.50000000000003
 31
0.0
  0
LINE
  5
1A2
330
44E
100
AcDbEntity
  8
9.1 Drawing sheet
100
AcDbLine
 10
-126.7397337545127
 20
21.0
 30
0.0
 11
-126.7397337545127
 21
27.99999999999999
 31
0.0
  0
LINE
  5
1A3
330
44E
100
AcDbEntity
  8
9.1 Drawing sheet
100
AcDbLine
 10
-106.7397337545127
 20
21.0
 30
0.0
 11
-106.7397337545127
 21
27.99999999999999
 31
0.0
  0
MTEXT
  5
1A4
330
44E
100
AcDbEntity
  8
9.1 Drawing sheet
  6
Continuous
370
     0
100
AcDbMText
 10
-149.5729918772563
 20
27.15243635324036
 30
0.0
 40
1.738229999999999
 41
96.56814079422385
 46
0.0
 71
     2
 72
     1
  1
Designed:
  7
textstyle1
 73
     1
 44
1.0
  0
CIRCLE
  5
1A5
330
44E
100
AcDbEntity
  8
9.1 Drawing sheet
  6
Continuous
 62
     9
420
 12632256
370
     9
100
AcDbCircle
 10
-87.1634503907481
 20
24.50000000000003
 30
0.0
 40
1.045039318981162
  0
MTEXT
  5
1A6
330
44E
100
AcDbEntity
  8
9.1 Drawing sheet
  6
Continuous
370
     0
100
AcDbMText
 10
-134.2397337545127
 20
27.15243635324072
 30
0.0
 40
1.738229999999999
 41
96.56814079422385
 46
0.0
 71
     2
 72
     1
  1
Date:
  7
textstyle2
 73
     1
 44
1.0
  0
CIRCLE
  5
1A7
330
44E
100
AcDbEntity
  8
9.1 Drawing sheet
  6
Continuous
 62
     9
420
 12632256
370
     9
100
AcDbCircle
 10
-87.1634503907481
 20
24.50000000000003
 30
0.0
 40
1.897832541109371
  0
MTEXT
  5
1A8
330
44E
100
AcDbEntity
  8
9.1 Drawing sheet
  6
Continuous
370
     0
100
AcDbMText
 10
-121.7397337545127
 20
27.15243635324054
 30
0.0
 40
1.738229999999999
 41
96.56814079422385
 46
0.0
 71
     2
 72
     1
  1
Scale:
  7
textstyle3
 73
     1
 44
1.0
  0
LINE
  5
1A9
330
44E
100
AcDbEntity
  8
9.1 Drawing sheet
  6
Continuous
 62
     9
420
 12632256
370
     9
100
AcDbLine
 10
-79.34859232437441
 20
26.39783254110941
 30
0.0
 11
-79.34859232437441
 21
22.60216745889067
 31
0.0
  0
MTEXT
  5
1AA
330
44E
100
AcDbEntity
  8
9.1 Drawing sheet
  6
Continuous
370
     0
100
AcDbMText
 10
-151.5024098586736
 20
19.77156643398788
 30
0.0
 40
1.738229999999999
 41
96.56814079422385
 46
0.0
 71
     2
 72
     1
  1
License:
  7
textstyle4
 73
     1
 44
1.0
  0
ATTDEF
  5
1AB
330
44E
100
AcDbEntity
  8
9.1 Drawing sheet
  6
Continuous
370
     0
100
AcDbText
 10
-141.1870337687264
 20
17.80191128639461
 30
0.0
 40
1.73823
  1
GPLv2
  7
textstyle5
 72
     1
 11
-137.2553230544407
 21
18.67102628639461
 31
0.0
100
AcDbAttributeDefinition
  3
License
  2
8. License
 70
     0
 74
     2
280
     0
  0
MTEXT
  5
1AC
330
44E
100
AcDbEntity
  8
9.1 Drawing sheet
  6
Continuous
370
     0
100
AcDbMText
 10
-111.7397337545127
 20
27.15243635324054
 30
0.0
 40
1.738229999999999
 41
96.56814079422385
 46
0.0
 71
     2
 72
     1
  1
Sheet:
  7
textstyle6
 73
     1
 44
1.0
  0
LINE
  5
1AD
330
44E
100
AcDbEntity
  8
9.1 Drawing sheet
  6
Continuous
 62
     9
420
 12632256
370
     9
100
AcDbLine
 10
-83.28344191218007
 20
25.54503931898121
 30
0.0
 11
-83.28344191218007
 21
23.45496068101888
 31
0.0
  0
LINE
  5
1AE
330
44E
100
AcDbEntity
  8
9.1 Drawing sheet
100
AcDbLine
 10
-91.73973375451264
 20
0.0
 30
0.0
 11
-91.73973375451264
 21
21.0
 31
0.0
  0
LINE
  5
1AF
330
44E
100
AcDbEntity
  8
9.1 Drawing sheet
  6
Continuous
 62
     9
420
 12632256
370
     9
100
AcDbLine
 10
-83.28344191218007
 20
23.45496068101888
 30
0.0
 11
-79.34859232437441
 21
22.60216745889067
 31
0.0
  0
LINE
  5
1B0
330
44E
100
AcDbEntity
  8
9.1 Drawing sheet
  6
Continuous
 62
     9
420
 12632256
370
     9
100
AcDbLine
 10
-79.34859232437441
 20
26.39783254110941
 30
0.0
 11
-83.28344191218007
 21
25.54503931898121
 31
0.0
  0
ATTDEF
  5
1B1
330
44E
100
AcDbEntity
  8
9.1 Drawing sheet
  6
Continuous
370
     0
100
AcDbText
 10
-45.86986687725632
 20
9.230000000000011
 30
0.0
 40
2.54
  1

  7
textstyle7
 72
     1
 11
-45.86986687725632
 21
10.50000000000001
 31
0.0
100
AcDbAttributeDefinition
  3
Title
  2
2. Title
 70
     0
 74
     2
280
     0
  0
ATTDEF
  5
1B2
330
44E
100
AcDbEntity
  8
9.1 Drawing sheet
  6
Continuous
370
     0
100
AcDbText
 10
-49.83690082904825
 20
23.92032234887409
 30
0.0
 40
1.73823122
  1

  7
textstyle8
 11
-49.83690082904825
 21
24.78943795887409
 31
0.0
100
AcDbAttributeDefinition
  3
Customer/Project
  2
1. Customer/Project
 70
     0
 74
     2
280
     0
  0
ATTDEF
  5
1B3
330
44E
100
AcDbEntity
  8
9.1 Drawing sheet
  6
Continuous
370
     0
100
AcDbText
 10
-99.23973375451264
 20
22.13088438999994
 30
0.0
 40
1.73823122
  1

  7
textstyle9
 72
     1
 11
-99.23973375451264
 21
22.99999999999994
 31
0.0
100
AcDbAttributeDefinition
  3
Drawing No.
  2
3. Drawing No.
 70
     0
 74
     2
280
     0
  0
ATTDEF
  5
1B4
330
44E
100
AcDbEntity
  8
9.1 Drawing sheet
  6
Continuous
370
     0
100
AcDbText
 10
-111.7397337545127
 20
22.13088438999993
 30
0.0
 40
1.73823122
  1

  7
textstyle10
 72
     1
 11
-111.7397337545127
 21
22.99999999999993
 31
0.0
100
AcDbAttributeDefinition
  3
Sheet
  2
7. Sheet
 70
     0
 74
     2
280
     0
  0
ATTDEF
  5
1B5
330
44E
100
AcDbEntity
  8
9.1 Drawing sheet
  6
Continuous
370
     0
100
AcDbText
 10
-121.7397337545127
 20
22.13088438999996
 30
0.0
 40
1.73823122
  1

  7
textstyle11
 72
     1
 11
-121.7397337545127
 21
22.99999999999996
 31
0.0
100
AcDbAttributeDefinition
  3
Scale
  2
6. Scale
 70
     0
 74
     2
280
     0
  0
ATTDEF
  5
1B6
330
44E
100
AcDbEntity
  8
9.1 Drawing sheet
  6
Continuous
370
     0
100
AcDbText
 10
-134.2397337545127
 20
22.13088438999995
 30
0.0
 40
1.73823122
  1

  7
textstyle12
 72
     1
 11
-134.2397337545127
 21
22.99999999999995
 31
0.0
100
AcDbAttributeDefinition
  3
Date
  2
4. Drawing Date
 70
     0
 74
     2
280
     0
  0
ATTDEF
  5
1B7
330
44E
100
AcDbEntity
  8
9.1 Drawing sheet
  6
Continuous
370
     0
100
AcDbText
 10
-149.5729918772563
 20
22.1308843899998
 30
0.0
 40
1.73823122
  1

  7
textstyle13
 72
     1
 11
-149.5729918772563
 21
22.9999999999998
 31
0.0
100
AcDbAttributeDefinition
  3
Designed
  2
5. Designed
 70
     0
 74
     2
280
     0
  0
MTEXT
  5
1B8
330
44E
100
AcDbEntity
  8
9.1 Drawing sheet
  6
Continuous
370
     0
100
AcDbMText
 10
-75.25166607373667
 20
24.50000000000006
 30
0.0
 40
1.73823122
 41
96.56814079422385
 46
0.0
 71
     4
 72
     1
  1
Customer/Project:
  7
textstyle14
 73
     1
 44
1.0
  0
LINE
  5
1B9
330
44E
100
AcDbEntity
  8
9.1 Drawing sheet
100
AcDbLine
 10
-157.40625
 20
-0.0000000000000102
 30
0.0
 11
0.0000000000000229
 21
-0.0000000000000102
 31
0.0
  0
LINE
  5
1BA
330
44E
100
AcDbEntity
  8
9.1 Drawing sheet
100
AcDbLine
 10
-91.73973375451264
 20
21.00000000000002
 30
0.0
 11
-91.73973375451267
 21
28.00000000000004
 31
0.0
  0
LINE
  5
1BB
330
44E
100
AcDbEntity
  8
9.1 Drawing sheet
100
AcDbLine
 10
-0.0000000000000025
 20
0.0
 30
0.0
 11
0.0
 21
27.99999999999999
 31
0.0
  0
LINE
  5
1BC
330
44E
100
AcDbEntity
  8
9.1 Drawing sheet
100
AcDbLine
 10
-76.73973375451266
 20
21.00000000000002
 30
0.0
 11
-76.73973375451267
 21
28.00000000000004
 31
0.0
  0
LINE
  5
1BD
330
44E
100
AcDbEntity
  8
9.1 Drawing sheet
  6
DASHDOT2
 62
     9
420
 12632256
370
     5
100
AcDbLine
 10
-87.1634503907481
 20
22.27750000000005
 30
0.0
 11
-87.1634503907481
 21
26.72250000000001
 31
0.0
  0
LINE
  5
1BE
330
44E
100
AcDbEntity
  8
9.1 Drawing sheet
100
AcDbLine
 10
-157.40625
 20
27.99999999999999
 30
0.0
 11
-157.40625
 21
-0.0000000000000102
 31
0.0
  0
LINE
  5
1BF
330
44E
100
AcDbEntity
  8
9.1 Drawing sheet
100
AcDbLine
 10
-157.40625
 20
21.0
 30
0.0
 11
0.0
 21
21.0
 31
0.0
  0
LINE
  5
1C0
330
44E
100
AcDbEntity
  8
9.1 Drawing sheet
  6
DASHDOT2
 62
     9
420
 12632256
370
     5
100
AcDbLine
 10
-89.38595039074805
 20
24.50000000000003
 30
0.0
 11
-84.94095039074801
 21
24.50000000000003
 31
0.0
  0
MTEXT
  5
1C1
330
44E
100
AcDbEntity
  8
9.1 Drawing sheet
  6
Continuous
370
     0
100
AcDbMText
 10
-88.23228620279436
 20
20.11427840362431
 30
0.0
 40
1.73823122
 41
96.56814079422385
 46
0.0
 71
     2
 72
     1
  1
Title:
  7
textstyle15
 73
     1
 44
1.0
  0
ENDBLK
  5
450
330
44E
100
AcDbEntity
  8
0
100
AcDbBlockEnd
  0
BLOCK
  5
452
330
451
100
AcDbEntity
  8
0
100
AcDbBlockBegin
  2
M10x100_DIN933_f
 70
     0
 10
0.0
 20
0.0
 30
0.0
  3
M10x100_DIN933_f
  1

  0
LINE
  5
DB
330
451
100
AcDbEntity
  8
NULL
  6
Continuous
 62
     4
420
    65535
100
AcDbLine
 10
-5.0
 20
0.0
 30
0.0
 11
-5.0
 21
6.051933
 31
0.0
  0
LINE
  5
DC
330
451
100
AcDbEntity
  8
NULL
  6
Continuous
 62
     4
420
    65535
100
AcDbLine
 10
5.0
 20
0.0
 30
0.0
 11
5.0
 21
6.051933
 31
0.0
  0
LINE
  5
DD
330
451
100
AcDbEntity
  8
NULL
  6
Continuous
 62
     4
420
    65535
100
AcDbLine
 10
5.0
 20
0.0
 30
0.0
 11
5.0
 21
-99.08
 31
0.0
  0
LINE
  5
DE
330
451
100
AcDbEntity
  8
NULL
  6
Continuous
 62
     4
420
    65535
100
AcDbLine
 10
5.0
 20
-99.08
 30
0.0
 11
4.08
 21
-100.0
 31
0.0
  0
LINE
  5
DF
330
451
100
AcDbEntity
  8
NULL
  6
Continuous
 62
     4
420
    65535
100
AcDbLine
 10
4.08
 20
-100.0
 30
0.0
 11
-4.08
 21
-100.0
 31
0.0
  0
LINE
  5
E0
330
451
100
AcDbEntity
  8
NULL
  6
Continuous
 62
     4
420
    65535
100
AcDbLine
 10
-4.08
 20
-100.0
 30
0.0
 11
-5.0
 21
-99.08
 31
0.0
  0
LINE
  5
E1
330
451
100
AcDbEntity
  8
NULL
  6
Continuous
 62
     4
420
    65535
100
AcDbLine
 10
-5.0
 20
-99.08
 30
0.0
 11
-5.0
 21
0.0
 31
0.0
  0
LINE
  5
E2
330
451
100
AcDbEntity
  8
NULL
  6
Continuous
 62
     4
420
    65535
100
AcDbLine
 10
5.0
 20
-99.08
 30
0.0
 11
-5.0
 21
-99.08
 31
0.0
  0
LINE
  5
E3
330
451
100
AcDbEntity
  8
NULL
  6
Continuous
 62
     4
420
    65535
100
AcDbLine
 10
-5.0
 20
-1.593487
 30
0.0
 11
5.0
 21
-1.593487
 31
0.0
  0
LINE
  5
E4
330
451
100
AcDbEntity
  8
NULL
  6
Continuous
 62
     2
420
 16776960
100
AcDbLine
 10
5.0
 20
0.0
 30
0.0
 11
4.08
 21
-1.593487
 31
0.0
  0
LINE
  5
E5
330
451
100
AcDbEntity
  8
NULL
  6
Continuous
 62
     2
420
 16776960
100
AcDbLine
 10
4.08
 20
-1.593487
 30
0.0
 11
4.08
 21
-100.0
 31
0.0
  0
LINE
  5
E6
330
451
100
AcDbEntity
  8
NULL
  6
Continuous
 62
     2
420
 16776960
100
AcDbLine
 10
-4.08
 20
-100.0
 30
0.0
 11
-4.08
 21
-1.593487
 31
0.0
  0
LINE
  5
E7
330
451
100
AcDbEntity
  8
NULL
  6
Continuous
 62
     2
420
 16776960
100
AcDbLine
 10
-4.08
 20
-1.593487
 30
0.0
 11
-5.0
 21
0.0
 31
0.0
  0
LINE
  5
E8
330
451
100
AcDbEntity
  8
NULL
  6
Continuous
 62
     4
420
    65535
100
AcDbLine
 10
9.814955
 20
0.0
 30
0.0
 11
9.814955
 21
6.051933
 31
0.0
  0
LINE
  5
E9
330
451
100
AcDbEntity
  8
NULL
  6
Continuous
 62
     4
420
    65535
100
AcDbLine
 10
9.814955
 20
6.051933
 30
0.0
 11
8.5
 21
7.0
 31
0.0
  0
LINE
  5
EA
330
451
100
AcDbEntity
  8
NULL
  6
Continuous
 62
     4
420
    65535
100
AcDbLine
 10
8.5
 20
7.0
 30
0.0
 11
-8.5
 21
7.0
 31
0.0
  0
LINE
  5
EB
330
451
100
AcDbEntity
  8
NULL
  6
Continuous
 62
     4
420
    65535
100
AcDbLine
 10
-8.5
 20
7.0
 30
0.0
 11
-9.814955
 21
6.051933
 31
0.0
  0
LINE
  5
EC
330
451
100
AcDbEntity
  8
NULL
  6
Continuous
 62
     4
420
    65535
100
AcDbLine
 10
-9.814955
 20
6.051933
 30
0.0
 11
-9.814955
 21
0.0
 31
0.0
  0
LINE
  5
ED
330
451
100
AcDbEntity
  8
NULL
  6
Continuous
 62
     4
420
    65535
100
AcDbLine
 10
-9.814955
 20
0.0
 30
0.0
 11
-8.5
 21
0.0
 31
0.0
  0
LINE
  5
EE
330
451
100
AcDbEntity
  8
NULL
  6
Continuous
 62
     4
420
    65535
100
AcDbLine
 10
-8.5
 20
0.0
 30
0.0
 11
8.5
 21
0.0
 31
0.0
  0
LINE
  5
EF
330
451
100
AcDbEntity
  8
NULL
  6
Continuous
 62
     4
420
    65535
100
AcDbLine
 10
8.5
 20
0.0
 30
0.0
 11
9.814955
 21
0.0
 31
0.0
  0
ARC
  5
F0
330
451
100
AcDbEntity
  8
NULL
  6
Continuous
 62
     4
420
    65535
100
AcDbCircle
 10
7.407477
 20
3.469247
 30
0.0
 40
3.530753
100
AcDbArc
 50
47.010879
 51
132.989121
  0
ARC
  5
F1
330
451
100
AcDbEntity
  8
NULL
  6
Continuous
 62
     4
420
    65535
100
AcDbCircle
 10
0.0
 20
-6.658762
 30
0.0
 40
13.658762
100
AcDbArc
 50
68.526837
 51
111.473163
  0
ARC
  5
F2
330
451
100
AcDbEntity
  8
NULL
  6
Continuous
 62
     4
420
    65535
100
AcDbCircle
 10
-7.407477
 20
3.469247
 30
0.0
 40
3.530753
100
AcDbArc
 50
47.010879
 51
132.989121
  0
ENDBLK
  5
453
330
451
100
AcDbEntity
  8
0
100
AcDbBlockEnd
  0
BLOCK
  5
465
330
464
100
AcDbEntity
  8
0
100
AcDbBlockBegin
  2
*D5
 70
     1
 10
0.0
 20
0.0
 30
0.0
  3
*D5
  1

  0
LINE
  5
467
330
464
100
AcDbEntity
  8
Dimensions
 62
     0
370
    -2
100
AcDbLine
 10
-5.0
 20
-9.25
 30
0.0
 11
-5.0
 21
-22.31596065019522
 31
0.0
  0
LINE
  5
468
330
464
100
AcDbEntity
  8
Dimensions
 62
     0
370
    -2
100
AcDbLine
 10
5.0
 20
-9.25
 30
0.0
 11
5.0
 21
-22.31596065019522
 31
0.0
  0
LINE
  5
469
330
464
100
AcDbEntity
  8
Dimensions
 62
     0
370
    -2
100
AcDbLine
 10
-10.0
 20
-19.81596065019522
 30
0.0
 11
-15.0
 21
-19.81596065019522
 31
0.0
  0
LINE
  5
46A
330
464
100
AcDbEntity
  8
Dimensions
 62
     0
370
    -2
100
AcDbLine
 10
10.0
 20
-19.81596065019522
 30
0.0
 11
15.0
 21
-19.81596065019522
 31
0.0
  0
SOLID
  5
46B
330
464
100
AcDbEntity
  8
Dimensions
 62
     0
100
AcDbTrace
 10
-10.0
 20
-20.64929398352855
 30
0.0
 11
-10.0
 21
-18.98262731686189
 31
0.0
 12
-5.0
 22
-19.81596065019522
 32
0.0
 13
-5.0
 23
-19.81596065019522
 33
0.0
  0
SOLID
  5
46C
330
464
100
AcDbEntity
  8
Dimensions
 62
     0
100
AcDbTrace
 10
10.0
 20
-18.98262731686189
 30
0.0
 11
10.0
 21
-20.64929398352855
 31
0.0
 12
5.0
 22
-19.81596065019522
 32
0.0
 13
5.0
 23
-19.81596065019522
 33
0.0
  0
MTEXT
  5
46D
330
464
100
AcDbEntity
  8
Dimensions
 62
     0
100
AcDbMText
 10
0.0
 20
-16.06596065019522
 30
0.0
 40
5.0
 41
0.0
 46
0.0
 71
     5
 72
     1
  1
\A1;10
  7
QCADDimTextStyle
 73
     1
 44
1.0
  0
POINT
  5
46E
330
464
100
AcDbEntity
  8
Defpoints
 62
     0
100
AcDbPoint
 10
-5.0
 20
-8.0
 30
0.0
  0
POINT
  5
46F
330
464
100
AcDbEntity
  8
Defpoints
 62
     0
100
AcDbPoint
 10
5.0
 20
-8.0
 30
0.0
  0
POINT
  5
470
330
464
100
AcDbEntity
  8
Defpoints
 62
     0
100
AcDbPoint
 10
5.0
 20
-19.81596065019522
 30
0.0
  0
ENDBLK
  5
466
330
464
100
AcDbEntity
  8
0
100
AcDbBlockEnd
  0
BLOCK
  5
472
330
471
100
AcDbEntity
  8
0
100
AcDbBlockBegin
  2
*D6
 70
     1
 10
0.0
 20
0.0
 30
0.0
  3
*D6
  1

  0
LINE
  5
474
330
471
100
AcDbEntity
  8
Dimensions
 62
     0
370
    -2
100
AcDbLine
 10
45.0
 20
-1.25
 30
0.0
 11
45.0
 21
-22.5
 31
0.0
  0
LINE
  5
475
330
471
100
AcDbEntity
  8
Dimensions
 62
     0
370
    -2
100
AcDbLine
 10
55.0
 20
-1.25
 30
0.0
 11
55.0
 21
-22.5
 31
0.0
  0
LINE
  5
476
330
471
100
AcDbEntity
  8
Dimensions
 62
     0
370
    -2
100
AcDbLine
 10
40.0
 20
-20.0
 30
0.0
 11
35.0
 21
-20.0
 31
0.0
  0
LINE
  5
477
330
471
100
AcDbEntity
  8
Dimensions
 62
     0
370
    -2
100
AcDbLine
 10
60.0
 20
-20.0
 30
0.0
 11
65.0
 21
-20.0
 31
0.0
  0
SOLID
  5
478
330
471
100
AcDbEntity
  8
Dimensions
 62
     0
100
AcDbTrace
 10
40.0
 20
-20.83333333333333
 30
0.0
 11
40.0
 21
-19.16666666666667
 31
0.0
 12
45.0
 22
-20.0
 32
0.0
 13
45.0
 23
-20.0
 33
0.0
  0
SOLID
  5
479
330
471
100
AcDbEntity
  8
Dimensions
 62
     0
100
AcDbTrace
 10
60.0
 20
-19.16666666666667
 30
0.0
 11
60.0
 21
-20.83333333333333
 31
0.0
 12
55.0
 22
-20.0
 32
0.0
 13
55.0
 23
-20.0
 33
0.0
  0
MTEXT
  5
47A
330
471
100
AcDbEntity
  8
Dimensions
 62
     0
100
AcDbMText
 10
50.0
 20
-16.25
 30
0.0
 40
5.0
 41
0.0
 46
0.0
 71
     5
 72
     1
  1
\A1;10
  7
QCADDimTextStyle
 73
     1
 44
1.0
  0
POINT
  5
47B
330
471
100
AcDbEntity
  8
Defpoints
 62
     0
100
AcDbPoint
 10
45.0
 20
0.0
 30
0.0
  0
POINT
  5
47C
330
471
100
AcDbEntity
  8
Defpoints
 62
     0
100
AcDbPoint
 10
55.0
 20
0.0
 30
0.0
  0
POINT
  5
47D
330
471
100
AcDbEntity
  8
Defpoints
 62
     0
100
AcDbPoint
 10
55.0
 20
-20.0
 30
0.0
  0
ENDBLK
  5
473
330
471
100
AcDbEntity
  8
0
100
AcDbBlockEnd
  0
BLOCK
  5
47F
330
47E
100
AcDbEntity
  8
0
100
AcDbBlockBegin
  2
*D7
 70
     1
 10
0.0
 20
0.0
 30
0.0
  3
*D7
  1

  0
LINE
  5
481
330
47E
100
AcDbEntity
  8
Dimensions
 62
     0
370
    -2
100
AcDbLine
 10
-21.25
 20
-8.0
 30
0.0
 11
-32.5
 21
-8.0
 31
0.0
  0
LINE
  5
482
330
47E
100
AcDbEntity
  8
Dimensions
 62
     0
370
    -2
100
AcDbLine
 10
-21.25
 20
8.0
 30
0.0
 11
-32.5
 21
8.0
 31
0.0
  0
LINE
  5
483
330
47E
100
AcDbEntity
  8
Dimensions
 62
     0
370
    -2
100
AcDbLine
 10
-30.0
 20
-3.0
 30
0.0
 11
-30.0
 21
3.0
 31
0.0
  0
SOLID
  5
484
330
47E
100
AcDbEntity
  8
Dimensions
 62
     0
100
AcDbTrace
 10
-30.83333333333333
 20
-3.0
 30
0.0
 11
-29.16666666666667
 21
-3.0
 31
0.0
 12
-30.0
 22
-8.0
 32
0.0
 13
-30.0
 23
-8.0
 33
0.0
  0
SOLID
  5
485
330
47E
100
AcDbEntity
  8
Dimensions
 62
     0
100
AcDbTrace
 10
-29.16666666666667
 20
3.0
 30
0.0
 11
-30.83333333333333
 21
3.0
 31
0.0
 12
-30.0
 22
8.0
 32
0.0
 13
-30.0
 23
8.0
 33
0.0
  0
MTEXT
  5
486
330
47E
100
AcDbEntity
  8
Dimensions
 62
     0
100
AcDbMText
 10
-33.75
 20
0.0
 30
0.0
 40
5.0
 41
0.0
 46
0.0
 71
     5
 72
     1
  1
\A1;16
  7
QCADDimTextStyle
 11
0.0
 21
1.0
 31
0.0
 73
     1
 44
1.0
  0
POINT
  5
487
330
47E
100
AcDbEntity
  8
Defpoints
 62
     0
100
AcDbPoint
 10
-20.0
 20
-8.0
 30
0.0
  0
POINT
  5
488
330
47E
100
AcDbEntity
  8
Defpoints
 62
     0
100
AcDbPoint
 10
-20.0
 20
8.0
 30
0.0
  0
POINT
  5
489
330
47E
100
AcDbEntity
  8
Defpoints
 62
     0
100
AcDbPoint
 10
-30.0
 20
8.0
 30
0.0
  0
ENDBLK
  5
480
330
47E
100
AcDbEntity
  8
0
100
AcDbBlockEnd
  0
BLOCK
  5
48B
330
48A
100
AcDbEntity
  8
0
100
AcDbBlockBegin
  2
*D8
 70
     1
 10
0.0
 20
0.0
 30
0.0
  3
*D8
  1

  0
LINE
  5
48D
330
48A
100
AcDbEntity
  8
Dimensions
 62
     0
370
    -2
100
AcDbLine
 10
40.0
 20
-1.25
 30
0.0
 11
40.0
 21
-27.34472318299382
 31
0.0
  0
LINE
  5
48E
330
48A
100
AcDbEntity
  8
Dimensions
 62
     0
370
    -2
100
AcDbLine
 10
60.0
 20
-1.25
 30
0.0
 11
60.0
 21
-27.34472318299382
 31
0.0
  0
LINE
  5
48F
330
48A
100
AcDbEntity
  8
Dimensions
 62
     0
370
    -2
100
AcDbLine
 10
45.0
 20
-24.84472318299382
 30
0.0
 11
55.0
 21
-24.84472318299382
 31
0.0
  0
SOLID
  5
490
330
48A
100
AcDbEntity
  8
Dimensions
 62
     0
100
AcDbTrace
 10
45.0
 20
-24.01138984966049
 30
0.0
 11
45.0
 21
-25.67805651632715
 31
0.0
 12
40.0
 22
-24.84472318299382
 32
0.0
 13
40.0
 23
-24.84472318299382
 33
0.0
  0
SOLID
  5
491
330
48A
100
AcDbEntity
  8
Dimensions
 62
     0
100
AcDbTrace
 10
55.0
 20
-25.67805651632715
 30
0.0
 11
55.0
 21
-24.01138984966049
 31
0.0
 12
60.0
 22
-24.84472318299382
 32
0.0
 13
60.0
 23
-24.84472318299382
 33
0.0
  0
MTEXT
  5
492
330
48A
100
AcDbEntity
  8
Dimensions
 62
     0
100
AcDbMText
 10
50.0
 20
-21.09472318299382
 30
0.0
 40
5.0
 41
0.0
 46
0.0
 71
     5
 72
     1
  1
\A1;20
  7
QCADDimTextStyle
 73
     1
 44
1.0
  0
POINT
  5
493
330
48A
100
AcDbEntity
  8
Defpoints
 62
     0
100
AcDbPoint
 10
40.0
 20
0.0
 30
0.0
  0
POINT
  5
494
330
48A
100
AcDbEntity
  8
Defpoints
 62
     0
100
AcDbPoint
 10
60.0
 20
0.0
 30
0.0
  0
POINT
  5
495
330
48A
100
AcDbEntity
  8
Defpoints
 62
     0
100
AcDbPoint
 10
60.0
 20
-24.84472318299382
 30
0.0
  0
ENDBLK
  5
48C
330
48A
100
AcDbEntity
  8
0
100
AcDbBlockEnd
  0
BLOCK
  5
497
330
496
100
AcDbEntity
  8
0
100
AcDbBlockBegin
  2
*D9
 70
     1
 10
0.0
 20
0.0
 30
0.0
  3
*D9
  1

  0
LINE
  5
499
330
496
100
AcDbEntity
  8
Dimensions
 62
     0
370
    -2
100
AcDbLine
 10
15.0
 20
-6.25
 30
0.0
 11
15.0
 21
-22.5
 31
0.0
  0
LINE
  5
49A
330
496
100
AcDbEntity
  8
Dimensions
 62
     0
370
    -2
100
AcDbLine
 10
25.0
 20
-6.25
 30
0.0
 11
25.0
 21
-22.5
 31
0.0
  0
LINE
  5
49B
330
496
100
AcDbEntity
  8
Dimensions
 62
     0
370
    -2
100
AcDbLine
 10
10.0
 20
-20.0
 30
0.0
 11
5.0
 21
-20.0
 31
0.0
  0
LINE
  5
49C
330
496
100
AcDbEntity
  8
Dimensions
 62
     0
370
    -2
100
AcDbLine
 10
30.0
 20
-20.0
 30
0.0
 11
35.0
 21
-20.0
 31
0.0
  0
SOLID
  5
49D
330
496
100
AcDbEntity
  8
Dimensions
 62
     0
100
AcDbTrace
 10
10.0
 20
-20.83333333333333
 30
0.0
 11
10.0
 21
-19.16666666666667
 31
0.0
 12
15.0
 22
-20.0
 32
0.0
 13
15.0
 23
-20.0
 33
0.0
  0
SOLID
  5
49E
330
496
100
AcDbEntity
  8
Dimensions
 62
     0
100
AcDbTrace
 10
30.0
 20
-19.16666666666667
 30
0.0
 11
30.0
 21
-20.83333333333333
 31
0.0
 12
25.0
 22
-20.0
 32
0.0
 13
25.0
 23
-20.0
 33
0.0
  0
MTEXT
  5
49F
330
496
100
AcDbEntity
  8
Dimensions
 62
     0
100
AcDbMText
 10
20.0
 20
-16.25
 30
0.0
 40
5.0
 41
0.0
 46
0.0
 71
     5
 72
     1
  1
\A1;10
  7
QCADDimTextStyle
 73
     1
 44
1.0
  0
POINT
  5
4A0
330
496
100
AcDbEntity
  8
Defpoints
 62
     0
100
AcDbPoint
 10
15.0
 20
-5.0
 30
0.0
  0
POINT
  5
4A1
330
496
100
AcDbEntity
  8
Defpoints
 62
     0
100
AcDbPoint
 10
25.0
 20
-5.0
 30
0.0
  0
POINT
  5
4A2
330
496
100
AcDbEntity
  8
Defpoints
 62
     0
100
AcDbPoint
 10
25.0
 20
-20.0
 30
0.0
  0
ENDBLK
  5
498
330
496
100
AcDbEntity
  8
0
100
AcDbBlockEnd
  0
BLOCK
  5
4A4
330
4A3
100
AcDbEntity
  8
0
100
AcDbBlockBegin
  2
*D10
 70
     1
 10
0.0
 20
0.0
 30
0.0
  3
*D10
  1

  0
LINE
  5
4A6
330
4A3
100
AcDbEntity
  8
Dimensions
 62
     0
370
    -2
100
AcDbLine
 10
-20.0
 20
-9.25
 30
0.0
 11
-20.0
 21
-32.5
 31
0.0
  0
LINE
  5
4A7
330
4A3
100
AcDbEntity
  8
Dimensions
 62
     0
370
    -2
100
AcDbLine
 10
25.0
 20
-6.25
 30
0.0
 11
25.0
 21
-32.5
 31
0.0
  0
LINE
  5
4A8
330
4A3
100
AcDbEntity
  8
Dimensions
 62
     0
370
    -2
100
AcDbLine
 10
-15.0
 20
-30.0
 30
0.0
 11
20.0
 21
-30.0
 31
0.0
  0
SOLID
  5
4A9
330
4A3
100
AcDbEntity
  8
Dimensions
 62
     0
100
AcDbTrace
 10
-15.0
 20
-29.16666666666667
 30
0.0
 11
-15.0
 21
-30.83333333333333
 31
0.0
 12
-20.0
 22
-30.0
 32
0.0
 13
-20.0
 23
-30.0
 33
0.0
  0
SOLID
  5
4AA
330
4A3
100
AcDbEntity
  8
Dimensions
 62
     0
100
AcDbTrace
 10
20.0
 20
-30.83333333333333
 30
0.0
 11
20.0
 21
-29.16666666666667
 31
0.0
 12
25.0
 22
-30.0
 32
0.0
 13
25.0
 23
-30.0
 33
0.0
  0
MTEXT
  5
4AB
330
4A3
100
AcDbEntity
  8
Dimensions
 62
     0
100
AcDbMText
 10
2.5
 20
-26.25
 30
0.0
 40
5.0
 41
0.0
 46
0.0
 71
     5
 72
     1
  1
\A1;45
  7
QCADDimTextStyle
 73
     1
 44
1.0
  0
POINT
  5
4AC
330
4A3
100
AcDbEntity
  8
Defpoints
 62
     0
100
AcDbPoint
 10
-20.0
 20
-8.0
 30
0.0
  0
POINT
  5
4AD
330
4A3
100
AcDbEntity
  8
Defpoints
 62
     0
100
AcDbPoint
 10
25.0
 20
-5.0
 30
0.0
  0
POINT
  5
4AE
330
4A3
100
AcDbEntity
  8
Defpoints
 62
     0
100
AcDbPoint
 10
25.0
 20
-30.0
 30
0.0
  0
ENDBLK
  5
4A5
330
4A3
100
AcDbEntity
  8
0
100
AcDbBlockEnd
  0
BLOCK
  5
4B0
330
4AF
100
AcDbEntity
  8
0
100
AcDbBlockBegin
  2
*D11
 70
     1
 10
0.0
 20
0.0
 30
0.0
  3
*D11
  1

  0
LINE
  5
4B2
330
4AF
100
AcDbEntity
  8
Dimensions
 62
     0
370
    -2
100
AcDbLine
 10
40.0
 20
-1.25
 30
0.0
 11
40.0
 21
-42.5
 31
0.0
  0
LINE
  5
4B3
330
4AF
100
AcDbEntity
  8
Dimensions
 62
     0
370
    -2
100
AcDbLine
 10
540.0
 20
-1.25
 30
0.0
 11
540.0
 21
-42.5
 31
0.0
  0
LINE
  5
4B4
330
4AF
100
AcDbEntity
  8
Dimensions
 62
     0
370
    -2
100
AcDbLine
 10
45.0
 20
-40.0
 30
0.0
 11
535.0
 21
-40.0
 31
0.0
  0
SOLID
  5
4B5
330
4AF
100
AcDbEntity
  8
Dimensions
 62
     0
100
AcDbTrace
 10
45.0
 20
-39.16666666666666
 30
0.0
 11
45.0
 21
-40.83333333333334
 31
0.0
 12
40.0
 22
-40.0
 32
0.0
 13
40.0
 23
-40.0
 33
0.0
  0
SOLID
  5
4B6
330
4AF
100
AcDbEntity
  8
Dimensions
 62
     0
100
AcDbTrace
 10
535.0
 20
-40.83333333333334
 30
0.0
 11
535.0
 21
-39.16666666666666
 31
0.0
 12
540.0
 22
-40.0
 32
0.0
 13
540.0
 23
-40.0
 33
0.0
  0
MTEXT
  5
4B7
330
4AF
100
AcDbEntity
  8
Dimensions
 62
     0
100
AcDbMText
 10
290.0
 20
-36.25
 30
0.0
 40
5.0
 41
0.0
 46
0.0
 71
     5
 72
     1
  1
\A1;500
  7
QCADDimTextStyle
 73
     1
 44
1.0
  0
POINT
  5
4B8
330
4AF
100
AcDbEntity
  8
Defpoints
 62
     0
100
AcDbPoint
 10
40.0
 20
0.0
 30
0.0
  0
POINT
  5
4B9
330
4AF
100
AcDbEntity
  8
Defpoints
 62
     0
100
AcDbPoint
 10
540.0
 20
0.0
 30
0.0
  0
POINT
  5
4BA
330
4AF
100
AcDbEntity
  8
Defpoints
 62
     0
100
AcDbPoint
 10
540.0
 20
-40.0
 30
0.0
  0
ENDBLK
  5
4B1
330
4AF
100
AcDbEntity
  8
0
100
AcDbBlockEnd
  0
BLOCK
  5
4BC
330
4BB
100
AcDbEntity
  8
0
100
AcDbBlockBegin
  2
*D12
 70
     1
 10
0.0
 20
0.0
 30
0.0
  3
*D12
  1

  0
LINE
  5
4BE
330
4BB
100
AcDbEntity
  8
Dimensions
 62
     0
370
    -2
100
AcDbLine
 10
60.0
 20
-1.25
 30
0.0
 11
60.0
 21
-32.5
 31
0.0
  0
LINE
  5
4BF
330
4BB
100
AcDbEntity
  8
Dimensions
 62
     0
370
    -2
100
AcDbLine
 10
520.0
 20
-1.249999999999936
 30
0.0
 11
520.0
 21
-32.5
 31
0.0
  0
LINE
  5
4C0
330
4BB
100
AcDbEntity
  8
Dimensions
 62
     0
370
    -2
100
AcDbLine
 10
65.0
 20
-30.0
 30
0.0
 11
515.0
 21
-30.0
 31
0.0
  0
SOLID
  5
4C1
330
4BB
100
AcDbEntity
  8
Dimensions
 62
     0
100
AcDbTrace
 10
65.0
 20
-29.16666666666667
 30
0.0
 11
65.0
 21
-30.83333333333333
 31
0.0
 12
60.0
 22
-30.0
 32
0.0
 13
60.0
 23
-30.0
 33
0.0
  0
SOLID
  5
4C2
330
4BB
100
AcDbEntity
  8
Dimensions
 62
     0
100
AcDbTrace
 10
515.0
 20
-30.83333333333333
 30
0.0
 11
515.0
 21
-29.16666666666667
 31
0.0
 12
520.0
 22
-30.0
 32
0.0
 13
520.0
 23
-30.0
 33
0.0
  0
MTEXT
  5
4C3
330
4BB
100
AcDbEntity
  8
Dimensions
 62
     0
100
AcDbMText
 10
290.0
 20
-26.25
 30
0.0
 40
5.0
 41
0.0
 46
0.0
 71
     5
 72
     1
  1
\A1;460
  7
QCADDimTextStyle
 73
     1
 44
1.0
  0
POINT
  5
4C4
330
4BB
100
AcDbEntity
  8
Defpoints
 62
     0
100
AcDbPoint
 10
60.0
 20
-0.0000000000000005
 30
0.0
  0
POINT
  5
4C5
330
4BB
100
AcDbEntity
  8
Defpoints
 62
     0
100
AcDbPoint
 10
520.0
 20
0.0000000000000642
 30
0.0
  0
POINT
  5
4C6
330
4BB
100
AcDbEntity
  8
Defpoints
 62
     0
100
AcDbPoint
 10
520.0
 20
-30.0
 30
0.0
  0
ENDBLK
  5
4BD
330
4BB
100
AcDbEntity
  8
0
100
AcDbBlockEnd
  0
BLOCK
  5
4C8
330
4C7
100
AcDbEntity
  8
0
100
AcDbBlockBegin
  2
*D13
 70
     1
 10
0.0
 20
0.0
 30
0.0
  3
*D13
  1

  0
LINE
  5
4CA
330
4C7
100
AcDbEntity
  8
Dimensions
 62
     0
370
    -2
100
AcDbLine
 10
595.0
 20
0.343487000000062
 30
0.0
 11
595.0
 21
-32.5
 31
0.0
  0
LINE
  5
4CB
330
4C7
100
AcDbEntity
  8
Dimensions
 62
     0
370
    -2
100
AcDbLine
 10
605.0
 20
0.343487000000064
 30
0.0
 11
605.0
 21
-32.5
 31
0.0
  0
LINE
  5
4CC
330
4C7
100
AcDbEntity
  8
Dimensions
 62
     0
370
    -2
100
AcDbLine
 10
590.0
 20
-30.0
 30
0.0
 11
585.0
 21
-30.0
 31
0.0
  0
LINE
  5
4CD
330
4C7
100
AcDbEntity
  8
Dimensions
 62
     0
370
    -2
100
AcDbLine
 10
610.0
 20
-30.0
 30
0.0
 11
615.0
 21
-30.0
 31
0.0
  0
SOLID
  5
4CE
330
4C7
100
AcDbEntity
  8
Dimensions
 62
     0
100
AcDbTrace
 10
590.0
 20
-30.83333333333333
 30
0.0
 11
590.0
 21
-29.16666666666667
 31
0.0
 12
595.0
 22
-30.0
 32
0.0
 13
595.0
 23
-30.0
 33
0.0
  0
SOLID
  5
4CF
330
4C7
100
AcDbEntity
  8
Dimensions
 62
     0
100
AcDbTrace
 10
610.0
 20
-29.16666666666667
 30
0.0
 11
610.0
 21
-30.83333333333333
 31
0.0
 12
605.0
 22
-30.0
 32
0.0
 13
605.0
 23
-30.0
 33
0.0
  0
MTEXT
  5
4D0
330
4C7
100
AcDbEntity
  8
Dimensions
 62
     0
100
AcDbMText
 10
600.0
 20
-26.25
 30
0.0
 40
5.0
 41
0.0
 46
0.0
 71
     5
 72
     1
  1
\A1;10
  7
QCADDimTextStyle
 73
     1
 44
1.0
  0
POINT
  5
4D1
330
4C7
100
AcDbEntity
  8
Defpoints
 62
     0
100
AcDbPoint
 10
595.0
 20
1.593487000000062
 30
0.0
  0
POINT
  5
4D2
330
4C7
100
AcDbEntity
  8
Defpoints
 62
     0
100
AcDbPoint
 10
605.0
 20
1.593487000000064
 30
0.0
  0
POINT
  5
4D3
330
4C7
100
AcDbEntity
  8
Defpoints
 62
     0
100
AcDbPoint
 10
605.0
 20
-30.0
 30
0.0
  0
ENDBLK
  5
4C9
330
4C7
100
AcDbEntity
  8
0
100
AcDbBlockEnd
  0
BLOCK
  5
4D5
330
4D4
100
AcDbEntity
  8
0
100
AcDbBlockBegin
  2
*D14
 70
     1
 10
0.0
 20
0.0
 30
0.0
  3
*D14
  1

  0
LINE
  5
4D7
330
4D4
100
AcDbEntity
  8
Dimensions
 62
     0
370
    -2
100
AcDbLine
 10
600.8838834764832
 20
-0.8838834764831192
 30
0.0
 11
616.8606417502378
 21
-16.86064175023781
 31
0.0
  0
LINE
  5
4D8
330
4D4
100
AcDbEntity
  8
Dimensions
 62
     0
370
    -2
100
AcDbLine
 10
622.0970869120796
 20
20.32931995911327
 30
0.0
 11
638.0738451858342
 21
4.352561685358578
 31
0.0
  0
LINE
  5
4D9
330
4D4
100
AcDbEntity
  8
Dimensions
 62
     0
370
    -2
100
AcDbLine
 10
618.6284087032043
 20
-11.5573408913387
 30
0.0
 11
632.7705443269351
 21
2.584794732392206
 31
0.0
  0
SOLID
  5
4DA
330
4D4
100
AcDbEntity
  8
Dimensions
 62
     0
100
AcDbTrace
 10
618.0391530522155
 20
-10.96808524034991
 30
0.0
 11
619.2176643541931
 21
-12.14659654232749
 31
0.0
 12
615.0928747972715
 22
-15.09287479727144
 32
0.0
 13
615.0928747972715
 23
-15.09287479727144
 33
0.0
  0
SOLID
  5
4DB
330
4D4
100
AcDbEntity
  8
Dimensions
 62
     0
100
AcDbTrace
 10
633.3597999779239
 20
1.995539081403417
 30
0.0
 11
632.1812886759463
 21
3.174050383380996
 31
0.0
 12
636.3060782328679
 22
6.120328638324946
 32
0.0
 13
636.3060782328679
 23
6.120328638324946
 33
0.0
  0
MTEXT
  5
4DC
330
4D4
100
AcDbEntity
  8
Dimensions
 62
     0
100
AcDbMText
 10
623.0478260856202
 20
-1.834622650023696
 30
0.0
 40
5.0
 41
0.0
 46
0.0
 71
     5
 72
     1
  1
\A1;30
  7
QCADDimTextStyle
 11
0.7071067811865472
 21
0.7071067811865478
 31
0.0
 73
     1
 44
1.0
  0
POINT
  5
4DD
330
4D4
100
AcDbEntity
  8
Defpoints
 62
     0
100
AcDbPoint
 10
600.0
 20
0.0000000000000647
 30
0.0
  0
POINT
  5
4DE
330
4D4
100
AcDbEntity
  8
Defpoints
 62
     0
100
AcDbPoint
 10
621.2132034355964
 20
21.21320343559645
 30
0.0
  0
POINT
  5
4DF
330
4D4
100
AcDbEntity
  8
Defpoints
 62
     0
100
AcDbPoint
 10
636.3060782328679
 20
6.120328638324946
 30
0.0
  0
ENDBLK
  5
4D6
330
4D4
100
AcDbEntity
  8
0
100
AcDbBlockEnd
  0
BLOCK
  5
4E1
330
4E0
100
AcDbEntity
  8
0
100
AcDbBlockBegin
  2
*D15
 70
     1
 10
0.0
 20
0.0
 30
0.0
  3
*D15
  1

  0
LINE
  5
4E3
330
4E0
100
AcDbEntity
  8
Dimensions
 62
     0
370
    -2
100
AcDbLine
 10
73.75
 20
195.0
 30
0.0
 11
57.5
 21
195.0
 31
0.0
  0
LINE
  5
4E4
330
4E0
100
AcDbEntity
  8
Dimensions
 62
     0
370
    -2
100
AcDbLine
 10
73.75
 20
185.0
 30
0.0
 11
57.5
 21
185.0
 31
0.0
  0
LINE
  5
4E5
330
4E0
100
AcDbEntity
  8
Dimensions
 62
     0
370
    -2
100
AcDbLine
 10
60.0
 20
200.0
 30
0.0
 11
60.0
 21
205.0
 31
0.0
  0
LINE
  5
4E6
330
4E0
100
AcDbEntity
  8
Dimensions
 62
     0
370
    -2
100
AcDbLine
 10
60.0
 20
180.0
 30
0.0
 11
60.0
 21
175.0
 31
0.0
  0
SOLID
  5
4E7
330
4E0
100
AcDbEntity
  8
Dimensions
 62
     0
100
AcDbTrace
 10
59.16666666666666
 20
200.0
 30
0.0
 11
60.83333333333334
 21
200.0
 31
0.0
 12
60.0
 22
195.0
 32
0.0
 13
60.0
 23
195.0
 33
0.0
  0
SOLID
  5
4E8
330
4E0
100
AcDbEntity
  8
Dimensions
 62
     0
100
AcDbTrace
 10
60.83333333333334
 20
180.0
 30
0.0
 11
59.16666666666666
 21
180.0
 31
0.0
 12
60.0
 22
185.0
 32
0.0
 13
60.0
 23
185.0
 33
0.0
  0
MTEXT
  5
4E9
330
4E0
100
AcDbEntity
  8
Dimensions
 62
     0
100
AcDbMText
 10
56.25
 20
190.0
 30
0.0
 40
5.0
 41
0.0
 46
0.0
 71
     5
 72
     1
  1
\A1;10
  7
QCADDimTextStyle
 11
0.0
 21
1.0
 31
0.0
 73
     1
 44
1.0
  0
POINT
  5
4EA
330
4E0
100
AcDbEntity
  8
Defpoints
 62
     0
100
AcDbPoint
 10
75.0
 20
195.0
 30
0.0
  0
POINT
  5
4EB
330
4E0
100
AcDbEntity
  8
Defpoints
 62
     0
100
AcDbPoint
 10
75.0
 20
185.0
 30
0.0
  0
POINT
  5
4EC
330
4E0
100
AcDbEntity
  8
Defpoints
 62
     0
100
AcDbPoint
 10
60.0
 20
185.0
 30
0.0
  0
ENDBLK
  5
4E2
330
4E0
100
AcDbEntity
  8
0
100
AcDbBlockEnd
  0
BLOCK
  5
4EE
330
4ED
100
AcDbEntity
  8
0
100
AcDbBlockBegin
  2
*D16
 70
     1
 10
0.0
 20
0.0
 30
0.0
  3
*D16
  1

  0
LINE
  5
4F0
330
4ED
100
AcDbEntity
  8
Dimensions
 62
     0
370
    -2
100
AcDbLine
 10
73.75
 20
200.0
 30
0.0
 11
47.5
 21
200.0
 31
0.0
  0
LINE
  5
4F1
330
4ED
100
AcDbEntity
  8
Dimensions
 62
     0
370
    -2
100
AcDbLine
 10
73.75
 20
180.0
 30
0.0
 11
47.5
 21
180.0
 31
0.0
  0
LINE
  5
4F2
330
4ED
100
AcDbEntity
  8
Dimensions
 62
     0
370
    -2
100
AcDbLine
 10
50.0
 20
195.0
 30
0.0
 11
50.0
 21
185.0
 31
0.0
  0
SOLID
  5
4F3
330
4ED
100
AcDbEntity
  8
Dimensions
 62
     0
100
AcDbTrace
 10
50.83333333333334
 20
195.0
 30
0.0
 11
49.16666666666666
 21
195.0
 31
0.0
 12
50.0
 22
200.0
 32
0.0
 13
50.0
 23
200.0
 33
0.0
  0
SOLID
  5
4F4
330
4ED
100
AcDbEntity
  8
Dimensions
 62
     0
100
AcDbTrace
 10
49.16666666666666
 20
185.0
 30
0.0
 11
50.83333333333334
 21
185.0
 31
0.0
 12
50.0
 22
180.0
 32
0.0
 13
50.0
 23
180.0
 33
0.0
  0
MTEXT
  5
4F5
330
4ED
100
AcDbEntity
  8
Dimensions
 62
     0
100
AcDbMText
 10
46.25
 20
190.0
 30
0.0
 40
5.0
 41
0.0
 46
0.0
 71
     5
 72
     1
  1
\A1;20
  7
QCADDimTextStyle
 11
0.0
 21
1.0
 31
0.0
 73
     1
 44
1.0
  0
POINT
  5
4F6
330
4ED
100
AcDbEntity
  8
Defpoints
 62
     0
100
AcDbPoint
 10
75.0
 20
200.0
 30
0.0
  0
POINT
  5
4F7
330
4ED
100
AcDbEntity
  8
Defpoints
 62
     0
100
AcDbPoint
 10
75.0
 20
180.0
 30
0.0
  0
POINT
  5
4F8
330
4ED
100
AcDbEntity
  8
Defpoints
 62
     0
100
AcDbPoint
 10
50.0
 20
180.0
 30
0.0
  0
ENDBLK
  5
4EF
330
4ED
100
AcDbEntity
  8
0
100
AcDbBlockEnd
  0
BLOCK
  5
4FA
330
4F9
100
AcDbEntity
  8
0
100
AcDbBlockBegin
  2
*D17
 70
     1
 10
0.0
 20
0.0
 30
0.0
  3
*D17
  1

  0
LINE
  5
4FC
330
4F9
100
AcDbEntity
  8
Dimensions
 62
     0
370
    -2
100
AcDbLine
 10
75.0
 20
178.75
 30
0.0
 11
75.0
 21
167.5
 31
0.0
  0
LINE
  5
4FD
330
4F9
100
AcDbEntity
  8
Dimensions
 62
     0
370
    -2
100
AcDbLine
 10
505.0
 20
178.75
 30
0.0
 11
505.0
 21
167.5
 31
0.0
  0
LINE
  5
4FE
330
4F9
100
AcDbEntity
  8
Dimensions
 62
     0
370
    -2
100
AcDbLine
 10
80.0
 20
170.0
 30
0.0
 11
500.0
 21
170.0
 31
0.0
  0
SOLID
  5
4FF
330
4F9
100
AcDbEntity
  8
Dimensions
 62
     0
100
AcDbTrace
 10
80.0
 20
170.8333333333333
 30
0.0
 11
80.0
 21
169.1666666666667
 31
0.0
 12
75.0
 22
170.0
 32
0.0
 13
75.0
 23
170.0
 33
0.0
  0
SOLID
  5
500
330
4F9
100
AcDbEntity
  8
Dimensions
 62
     0
100
AcDbTrace
 10
500.0
 20
169.1666666666667
 30
0.0
 11
500.0
 21
170.8333333333333
 31
0.0
 12
505.0
 22
170.0
 32
0.0
 13
505.0
 23
170.0
 33
0.0
  0
MTEXT
  5
501
330
4F9
100
AcDbEntity
  8
Dimensions
 62
     0
100
AcDbMText
 10
290.0
 20
173.75
 30
0.0
 40
5.0
 41
0.0
 46
0.0
 71
     5
 72
     1
  1
\A1;430
  7
QCADDimTextStyle
 73
     1
 44
1.0
  0
POINT
  5
502
330
4F9
100
AcDbEntity
  8
Defpoints
 62
     0
100
AcDbPoint
 10
75.0
 20
180.0
 30
0.0
  0
POINT
  5
503
330
4F9
100
AcDbEntity
  8
Defpoints
 62
     0
100
AcDbPoint
 10
505.0
 20
180.0
 30
0.0
  0
POINT
  5
504
330
4F9
100
AcDbEntity
  8
Defpoints
 62
     0
100
AcDbPoint
 10
505.0
 20
170.0
 30
0.0
  0
ENDBLK
  5
4FB
330
4F9
100
AcDbEntity
  8
0
100
AcDbBlockEnd
  0
BLOCK
  5
506
330
505
100
AcDbEntity
  8
0
100
AcDbBlockBegin
  2
*D18
 70
     1
 10
0.0
 20
0.0
 30
0.0
  3
*D18
  1

  0
LINE
  5
508
330
505
100
AcDbEntity
  8
Dimensions
 62
     0
370
    -2
100
AcDbLine
 10
595.0
 20
188.75
 30
0.0
 11
595.0
 21
167.5
 31
0.0
  0
LINE
  5
509
330
505
100
AcDbEntity
  8
Dimensions
 62
     0
370
    -2
100
AcDbLine
 10
605.0
 20
188.75
 30
0.0
 11
605.0
 21
167.5
 31
0.0
  0
LINE
  5
50A
330
505
100
AcDbEntity
  8
Dimensions
 62
     0
370
    -2
100
AcDbLine
 10
590.0
 20
170.0
 30
0.0
 11
585.0
 21
170.0
 31
0.0
  0
LINE
  5
50B
330
505
100
AcDbEntity
  8
Dimensions
 62
     0
370
    -2
100
AcDbLine
 10
610.0
 20
170.0
 30
0.0
 11
615.0
 21
170.0
 31
0.0
  0
SOLID
  5
50C
330
505
100
AcDbEntity
  8
Dimensions
 62
     0
100
AcDbTrace
 10
590.0
 20
169.1666666666667
 30
0.0
 11
590.0
 21
170.8333333333333
 31
0.0
 12
595.0
 22
170.0
 32
0.0
 13
595.0
 23
170.0
 33
0.0
  0
SOLID
  5
50D
330
505
100
AcDbEntity
  8
Dimensions
 62
     0
100
AcDbTrace
 10
610.0
 20
170.8333333333333
 30
0.0
 11
610.0
 21
169.1666666666667
 31
0.0
 12
605.0
 22
170.0
 32
0.0
 13
605.0
 23
170.0
 33
0.0
  0
MTEXT
  5
50E
330
505
100
AcDbEntity
  8
Dimensions
 62
     0
100
AcDbMText
 10
600.0
 20
173.75
 30
0.0
 40
5.0
 41
0.0
 46
0.0
 71
     5
 72
     1
  1
\A1;10
  7
QCADDimTextStyle
 73
     1
 44
1.0
  0
POINT
  5
50F
330
505
100
AcDbEntity
  8
Defpoints
 62
     0
100
AcDbPoint
 10
595.0
 20
190.0
 30
0.0
  0
POINT
  5
510
330
505
100
AcDbEntity
  8
Defpoints
 62
     0
100
AcDbPoint
 10
605.0
 20
190.0
 30
0.0
  0
POINT
  5
511
330
505
100
AcDbEntity
  8
Defpoints
 62
     0
100
AcDbPoint
 10
605.0
 20
170.0
 30
0.0
  0
ENDBLK
  5
507
330
505
100
AcDbEntity
  8
0
100
AcDbBlockEnd
  0
BLOCK
  5
513
330
512
100
AcDbEntity
  8
0
100
AcDbBlockBegin
  2
*D19
 70
     1
 10
0.0
 20
0.0
 30
0.0
  3
*D19
  1

  0
LINE
  5
515
330
512
100
AcDbEntity
  8
Dimensions
 62
     0
370
    -2
100
AcDbLine
 10
590.0
 20
188.75
 30
0.0
 11
590.0
 21
157.5
 31
0.0
  0
LINE
  5
516
330
512
100
AcDbEntity
  8
Dimensions
 62
     0
370
    -2
100
AcDbLine
 10
610.0
 20
188.75
 30
0.0
 11
610.0
 21
157.5
 31
0.0
  0
LINE
  5
517
330
512
100
AcDbEntity
  8
Dimensions
 62
     0
370
    -2
100
AcDbLine
 10
595.0
 20
160.0
 30
0.0
 11
605.0
 21
160.0
 31
0.0
  0
SOLID
  5
518
330
512
100
AcDbEntity
  8
Dimensions
 62
     0
100
AcDbTrace
 10
595.0
 20
160.8333333333333
 30
0.0
 11
595.0
 21
159.1666666666667
 31
0.0
 12
590.0
 22
160.0
 32
0.0
 13
590.0
 23
160.0
 33
0.0
  0
SOLID
  5
519
330
512
100
AcDbEntity
  8
Dimensions
 62
     0
100
AcDbTrace
 10
605.0
 20
159.1666666666667
 30
0.0
 11
605.0
 21
160.8333333333333
 31
0.0
 12
610.0
 22
160.0
 32
0.0
 13
610.0
 23
160.0
 33
0.0
  0
MTEXT
  5
51A
330
512
100
AcDbEntity
  8
Dimensions
 62
     0
100
AcDbMText
 10
600.0
 20
163.75
 30
0.0
 40
5.0
 41
0.0
 46
0.0
 71
     5
 72
     1
  1
\A1;20
  7
QCADDimTextStyle
 73
     1
 44
1.0
  0
POINT
  5
51B
330
512
100
AcDbEntity
  8
Defpoints
 62
     0
100
AcDbPoint
 10
590.0
 20
190.0
 30
0.0
  0
POINT
  5
51C
330
512
100
AcDbEntity
  8
Defpoints
 62
     0
100
AcDbPoint
 10
610.0
 20
190.0
 30
0.0
  0
POINT
  5
51D
330
512
100
AcDbEntity
  8
Defpoints
 62
     0
100
AcDbPoint
 10
610.0
 20
160.0
 30
0.0
  0
ENDBLK
  5
514
330
512
100
AcDbEntity
  8
0
100
AcDbBlockEnd
  0
ENDSEC
  0
SECTION
  2
ENTITIES
  0
LINE
  5
17
330
3AB
100
AcDbEntity
  8
0
100
AcDbLine
 10
40.0
 20
0.0
 30
0.0
 11
540.0
 21
0.0
 31
0.0
  0
LINE
  5
18
330
3AB
100
AcDbEntity
  8
0
100
AcDbLine
 10
600.0
 20
0.0
 30
0.0
 11
621.2132034355964
 21
21.21320343559642
 31
0.0
  0
LINE
  5
19
330
3AB
100
AcDbEntity
  8
0
100
AcDbLine
 10
600.0
 20
0.0
 30
0.0
 11
578.7867965644036
 21
21.21320343559643
 31
0.0
  0
LINE
  5
1A
330
3AB
100
AcDbEntity
  8
0
100
AcDbLine
 10
621.2132034355964
 20
21.21320343559642
 30
0.0
 11
617.6776695296637
 21
24.74873734152916
 31
0.0
  0
LINE
  5
1B
330
3AB
100
AcDbEntity
  8
0
100
AcDbLine
 10
578.7867965644036
 20
21.21320343559643
 30
0.0
 11
582.3223304703363
 21
24.74873734152916
 31
0.0
  0
LINE
  5
1C
330
3AB
100
AcDbEntity
  8
0
100
AcDbLine
 10
600.0
 20
7.071067811865476
 30
0.0
 11
582.3223304703363
 21
24.74873734152916
 31
0.0
  0
LINE
  5
1D
330
3AB
100
AcDbEntity
  8
0
100
AcDbLine
 10
600.0
 20
7.071067811865476
 30
0.0
 11
617.6776695296637
 21
24.74873734152916
 31
0.0
  0
LINE
  5
22
330
3AB
100
AcDbEntity
  8
0
100
AcDbLine
 10
40.0
 20
0.0
 30
0.0
 11
40.0
 21
24.74873734152916
 31
0.0
  0
LINE
  5
23
330
3AB
100
AcDbEntity
  8
0
100
AcDbLine
 10
540.0
 20
0.0
 30
0.0
 11
540.0
 21
24.74873734152916
 31
0.0
  0
LINE
  5
24
330
3AB
100
AcDbEntity
  8
0
100
AcDbLine
 10
40.0
 20
24.74873734152916
 30
0.0
 11
540.0
 21
24.74873734152916
 31
0.0
  0
LINE
  5
2A
330
3AB
100
AcDbEntity
  8
Hidden Detail
100
AcDbLine
 10
40.0
 20
5.0
 30
0.0
 11
540.0
 21
5.0
 31
0.0
  0
INSERT
  5
F3
330
3AB
100
AcDbEntity
  8
0
100
AcDbBlockReference
  2
M10x100_DIN933_f
 10
520.0
 20
0.0000000000000647
 30
0.0
 50
180.0
  0
INSERT
  5
F4
330
3AB
100
AcDbEntity
  8
0
100
AcDbBlockReference
  2
M10x100_DIN933_f
 10
60.0
 20
0.0
 30
0.0
 50
180.0
  0
INSERT
  5
103
330
3AB
100
AcDbEntity
  8
0
100
AcDbBlockReference
  2
M10x100_DIN933_f
 10
600.0
 20
0.0000000000000652
 30
0.0
 50
180.0
  0
DIMENSION
  5
105
330
3AB
100
AcDbEntity
  8
Dimensions
100
AcDbDimension
280
     0
  2
*D11
 10
540.0
 20
-40.0
 30
0.0
 11
290.0
 21
-36.25
 31
0.0
 70
    32
 71
     5
 42
500.0
 73
     0
 74
     0
 75
     0
  3
QCADDimStyle
100
AcDbAlignedDimension
 13
40.0
 23
0.0
 33
0.0
 14
540.0
 24
0.0
 34
0.0
100
AcDbRotatedDimension
1001
ACAD
1000
DSTYLE
1002
{
1070
   279
1070
     2
1070
    41
1040
5.0
1070
    79
1070
     2
1070
   176
1070
     0
1070
   177
1070
     0
1070
   178
1070
     0
1070
    44
1040
2.5
1070
    42
1040
1.25
1070
   147
1040
1.25
1070
   140
1040
5.0
1070
    78
1070
     8
1002
}
  0
DIMENSION
  5
106
330
3AB
100
AcDbEntity
  8
Dimensions
100
AcDbDimension
280
     0
  2
*D12
 10
520.0
 20
-30.0
 30
0.0
 11
290.0
 21
-26.25
 31
0.0
 70
    32
 71
     5
 42
460.0
 73
     0
 74
     0
 75
     0
  3
QCADDimStyle
100
AcDbAlignedDimension
 13
60.0
 23
-0.0000000000000005
 33
0.0
 14
520.0
 24
0.0000000000000642
 34
0.0
100
AcDbRotatedDimension
1001
ACAD
1000
DSTYLE
1002
{
1070
   279
1070
     2
1070
    41
1040
5.0
1070
    79
1070
     2
1070
   176
1070
     0
1070
   177
1070
     0
1070
   178
1070
     0
1070
    44
1040
2.5
1070
    42
1040
1.25
1070
   147
1040
1.25
1070
   140
1040
5.0
1070
    78
1070
     8
1002
}
  0
DIMENSION
  5
107
330
3AB
100
AcDbEntity
  8
Dimensions
100
AcDbDimension
280
     0
  2
*D13
 10
605.0
 20
-30.0
 30
0.0
 11
600.0
 21
-26.25
 31
0.0
 70
    32
 71
     5
 42
10.0
 73
     0
 74
     0
 75
     0
  3
QCADDimStyle
100
AcDbAlignedDimension
 13
595.0
 23
1.593487000000062
 33
0.0
 14
605.0
 24
1.593487000000064
 34
0.0
100
AcDbRotatedDimension
1001
ACAD
1000
DSTYLE
1002
{
1070
   279
1070
     2
1070
    41
1040
5.0
1070
    79
1070
     2
1070
   176
1070
     0
1070
   177
1070
     0
1070
   178
1070
     0
1070
    44
1040
2.5
1070
    42
1040
1.25
1070
   147
1040
1.25
1070
   140
1040
5.0
1070
    78
1070
     8
1002
}
  0
DIMENSION
  5
108
330
3AB
100
AcDbEntity
  8
Dimensions
100
AcDbDimension
280
     0
  2
*D14
 10
636.3060782328679
 20
6.120328638324946
 30
0.0
 11
623.0478260856202
 21
-1.834622650023696
 31
0.0
 70
    33
 71
     5
 42
29.99999999999993
 73
     0
 74
     0
 75
     0
  3
QCADDimStyle
100
AcDbAlignedDimension
 13
600.0
 23
0.0000000000000647
 33
0.0
 14
621.2132034355964
 24
21.21320343559645
 34
0.0
1001
ACAD
1000
DSTYLE
1002
{
1070
   279
1070
     2
1070
    41
1040
5.0
1070
    79
1070
     2
1070
   176
1070
     0
1070
   177
1070
     0
1070
   178
1070
     0
1070
    44
1040
2.5
1070
    42
1040
1.25
1070
   147
1040
1.25
1070
   140
1040
5.0
1070
    78
1070
     8
1002
}
  0
INSERT
  5
142
330
3AB
100
AcDbEntity
  8
Hidden Detail
100
AcDbBlockReference
  2
End Piece
 10
60.0
 20
140.0
 30
0.0
  0
INSERT
  5
145
330
3AB
100
AcDbEntity
  8
0
100
AcDbBlockReference
  2
End Piece
 10
520.0
 20
140.0
 30
0.0
 42
-1.0
 50
180.0
  0
LINE
  5
14A
330
3AB
100
AcDbEntity
  8
References
100
AcDbLine
 10
0.0
 20
200.0
 30
0.0
 11
600.0
 21
200.0
 31
0.0
  0
LINE
  5
14B
330
3AB
100
AcDbEntity
  8
References
100
AcDbLine
 10
600.0
 20
180.0
 30
0.0
 11
0.0
 21
180.0
 31
0.0
  0
LINE
  5
14C
330
3AB
100
AcDbEntity
  8
0
100
AcDbLine
 10
75.0
 20
200.0
 30
0.0
 11
504.9999999999999
 21
200.0
 31
0.0
  0
LINE
  5
14D
330
3AB
100
AcDbEntity
  8
0
100
AcDbLine
 10
504.9999999999999
 20
200.0
 30
0.0
 11
504.9999999999999
 21
180.0
 31
0.0
  0
LINE
  5
14E
330
3AB
100
AcDbEntity
  8
0
100
AcDbLine
 10
504.9999999999999
 20
180.0
 30
0.0
 11
75.0
 21
180.0
 31
0.0
  0
LINE
  5
14F
330
3AB
100
AcDbEntity
  8
0
100
AcDbLine
 10
75.0
 20
180.0
 30
0.0
 11
75.0
 21
200.0
 31
0.0
  0
LINE
  5
150
330
3AB
100
AcDbEntity
  8
References
100
AcDbLine
 10
75.0
 20
75.0
 30
0.0
 11
75.0
 21
215.0
 31
0.0
  0
LINE
  5
151
330
3AB
100
AcDbEntity
  8
References
100
AcDbLine
 10
85.0
 20
75.0
 30
0.0
 11
85.0
 21
215.0
 31
0.0
  0
LINE
  5
152
330
3AB
100
AcDbEntity
  8
References
100
AcDbLine
 10
495.0
 20
75.0
 30
0.0
 11
495.0
 21
215.0
 31
0.0
  0
LINE
  5
153
330
3AB
100
AcDbEntity
  8
References
100
AcDbLine
 10
505.0
 20
75.0
 30
0.0
 11
505.0
 21
215.0
 31
0.0
  0
LINE
  5
157
330
3AB
100
AcDbEntity
  8
References
100
AcDbLine
 10
5.0
 20
195.0
 30
0.0
 11
595.0
 21
195.0
 31
0.0
  0
LINE
  5
158
330
3AB
100
AcDbEntity
  8
References
100
AcDbLine
 10
5.0
 20
185.0
 30
0.0
 11
595.0
 21
185.0
 31
0.0
  0
LINE
  5
159
330
3AB
100
AcDbEntity
  8
Hidden Detail
100
AcDbLine
 10
75.0
 20
195.0
 30
0.0
 11
85.0
 21
195.0
 31
0.0
  0
LINE
  5
15A
330
3AB
100
AcDbEntity
  8
Hidden Detail
100
AcDbLine
 10
85.0
 20
195.0
 30
0.0
 11
85.0
 21
185.0
 31
0.0
  0
LINE
  5
15B
330
3AB
100
AcDbEntity
  8
Hidden Detail
100
AcDbLine
 10
85.0
 20
185.0
 30
0.0
 11
75.0
 21
185.0
 31
0.0
  0
LINE
  5
15C
330
3AB
100
AcDbEntity
  8
Hidden Detail
100
AcDbLine
 10
505.0
 20
195.0
 30
0.0
 11
495.0
 21
195.0
 31
0.0
  0
LINE
  5
15D
330
3AB
100
AcDbEntity
  8
Hidden Detail
100
AcDbLine
 10
495.0
 20
195.0
 30
0.0
 11
495.0
 21
185.0
 31
0.0
  0
LINE
  5
15E
330
3AB
100
AcDbEntity
  8
Hidden Detail
100
AcDbLine
 10
495.0
 20
185.0
 30
0.0
 11
505.0
 21
185.0
 31
0.0
  0
DIMENSION
  5
15F
330
3AB
100
AcDbEntity
  8
Dimensions
100
AcDbDimension
280
     0
  2
*D15
 10
60.0
 20
185.0
 30
0.0
 11
56.25
 21
190.0
 31
0.0
 70
    32
 71
     5
 42
10.0
 73
     0
 74
     0
 75
     0
  3
QCADDimStyle
100
AcDbAlignedDimension
 13
75.0
 23
195.0
 33
0.0
 14
75.0
 24
185.0
 34
0.0
 50
90.0
100
AcDbRotatedDimension
1001
ACAD
1000
DSTYLE
1002
{
1070
   279
1070
     2
1070
    41
1040
5.0
1070
    79
1070
     2
1070
   176
1070
     0
1070
   177
1070
     0
1070
   178
1070
     0
1070
    44
1040
2.5
1070
    42
1040
1.25
1070
   147
1040
1.25
1070
   140
1040
5.0
1070
    78
1070
     8
1002
}
  0
DIMENSION
  5
160
330
3AB
100
AcDbEntity
  8
Dimensions
100
AcDbDimension
280
     0
  2
*D16
 10
50.0
 20
180.0
 30
0.0
 11
46.25
 21
190.0
 31
0.0
 70
    32
 71
     5
 42
20.0
 73
     0
 74
     0
 75
     0
  3
QCADDimStyle
100
AcDbAlignedDimension
 13
75.0
 23
200.0
 33
0.0
 14
75.0
 24
180.0
 34
0.0
 50
90.0
100
AcDbRotatedDimension
1001
ACAD
1000
DSTYLE
1002
{
1070
   279
1070
     2
1070
    41
1040
5.0
1070
    79
1070
     2
1070
   176
1070
     0
1070
   177
1070
     0
1070
   178
1070
     0
1070
    44
1040
2.5
1070
    42
1040
1.25
1070
   147
1040
1.25
1070
   140
1040
5.0
1070
    78
1070
     8
1002
}
  0
DIMENSION
  5
161
330
3AB
100
AcDbEntity
  8
Dimensions
100
AcDbDimension
280
     0
  2
*D17
 10
505.0
 20
170.0
 30
0.0
 11
290.0
 21
173.75
 31
0.0
 70
    32
 71
     5
 42
430.0
 73
     0
 74
     0
 75
     0
  3
QCADDimStyle
100
AcDbAlignedDimension
 13
75.0
 23
180.0
 33
0.0
 14
505.0
 24
180.0
 34
0.0
100
AcDbRotatedDimension
1001
ACAD
1000
DSTYLE
1002
{
1070
   279
1070
     2
1070
    41
1040
5.0
1070
    79
1070
     2
1070
   176
1070
     0
1070
   177
1070
     0
1070
   178
1070
     0
1070
    44
1040
2.5
1070
    42
1040
1.25
1070
   147
1040
1.25
1070
   140
1040
5.0
1070
    78
1070
     8
1002
}
  0
CIRCLE
  5
162
330
3AB
100
AcDbEntity
  8
0
100
AcDbCircle
 10
600.0
 20
190.0
 30
0.0
 40
10.0
  0
CIRCLE
  5
163
330
3AB
100
AcDbEntity
  8
0
100
AcDbCircle
 10
600.0
 20
190.0
 30
0.0
 40
5.0
  0
DIMENSION
  5
164
330
3AB
100
AcDbEntity
  8
Dimensions
100
AcDbDimension
280
     0
  2
*D18
 10
605.0
 20
170.0
 30
0.0
 11
600.0
 21
173.75
 31
0.0
 70
    32
 71
     5
 42
10.0
 73
     0
 74
     0
 75
     0
  3
QCADDimStyle
100
AcDbAlignedDimension
 13
595.0
 23
190.0
 33
0.0
 14
605.0
 24
190.0
 34
0.0
100
AcDbRotatedDimension
1001
ACAD
1000
DSTYLE
1002
{
1070
   279
1070
     2
1070
    41
1040
5.0
1070
    79
1070
     2
1070
   176
1070
     0
1070
   177
1070
     0
1070
   178
1070
     0
1070
    44
1040
2.5
1070
    42
1040
1.25
1070
   147
1040
1.25
1070
   140
1040
5.0
1070
    78
1070
     8
1002
}
  0
DIMENSION
  5
165
330
3AB
100
AcDbEntity
  8
Dimensions
100
AcDbDimension
280
     0
  2
*D19
 10
610.0
 20
160.0
 30
0.0
 11
600.0
 21
163.75
 31
0.0
 70
    32
 71
     5
 42
20.0
 73
     0
 74
     0
 75
     0
  3
QCADDimStyle
100
AcDbAlignedDimension
 13
590.0
 23
190.0
 33
0.0
 14
610.0
 24
190.0
 34
0.0
100
AcDbRotatedDimension
1001
ACAD
1000
DSTYLE
1002
{
1070
   279
1070
     2
1070
    41
1040
5.0
1070
    79
1070
     2
1070
   176
1070
     0
1070
   177
1070
     0
1070
   178
1070
     0
1070
    44
1040
2.5
1070
    42
1040
1.25
1070
   147
1040
1.25
1070
   140
1040
5.0
1070
    78
1070
     8
1002
}
  0
LINE
  5
1CB
330
3AB
100
AcDbEntity
  8
Page
100
AcDbLine
 10
-26.83402872928195
 20
-191.9855734806629
 30
0.0
 11
713.165971270718
 21
-191.9855734806629
 31
0.0
  0
LINE
  5
1CC
330
3AB
100
AcDbEntity
  8
Page
100
AcDbLine
 10
-26.83402872928195
 20
-191.9855734806629
 30
0.0
 11
-26.83402872928192
 21
328.0144265193371
 31
0.0
  0
LINE
  5
1CD
330
3AB
100
AcDbEntity
  8
Page
100
AcDbLine
 10
713.165971270718
 20
-191.9855734806629
 30
0.0
 11
713.165971270718
 21
328.0144265193371
 31
0.0
  0
LINE
  5
1CE
330
3AB
100
AcDbEntity
  8
Page
100
AcDbLine
 10
-26.83402872928192
 20
328.0144265193371
 30
0.0
 11
713.165971270718
 21
328.0144265193371
 31
0.0
  0
INSERT
  5
38C
330
3AB
100
AcDbEntity
  8
0
100
AcDbBlockReference
 66
     1
  2
Title_Block
 10
713.165971270718
 20
-191.9855734806629
 30
0.0
 41
3.0
 42
3.0
 43
3.0
  0
ATTRIB
  5
363
330
38C
100
AcDbEntity
  8
0
100
AcDbText
 10
339.0539128643228
 20
-125.235573480663
 30
0.0
 40
4.5
  1
1:2.5
  7
textstyle32
 72
     1
 11
347.94677000718
 21
-122.985573480663
 31
0.0
100
AcDbAttribute
  2
6. Scale
 70
     0
 74
     2
280
     0
  0
ATTRIB
  5
364
330
38C
100
AcDbEntity
  8
0
100
AcDbText
 10
292.7681985786085
 20
-125.2355734806629
 30
0.0
 40
4.5
  1
28/08/14
  7
textstyle33
 72
     1
 11
310.4467700071799
 21
-122.9855734806629
 31
0.0
100
AcDbAttribute
  2
4. Drawing Date
 70
     0
 74
     2
280
     0
  0
ATTRIB
  5
365
330
38C
100
AcDbEntity
  8
9.1 Drawing sheet
370
     0
100
AcDbText
 10
240.3398527818063
 20
-125.2355734806631
 30
0.0
 40
4.5
  1
Russell Gower
  7
textstyle34
 72
     1
 11
264.4469956389491
 21
-122.9855734806631
 31
0.0
100
AcDbAttribute
  2
5. Designed
 70
     0
 74
     2
280
     0
  0
ATTRIB
  5
35E
330
38C
100
AcDbEntity
  8
9.1 Drawing sheet
370
     0
100
AcDbText
 10
277.2565962707181
 20
-137.5355734806625
 30
0.0
 40
4.5
  1
Creative Commons Attribution-ShareAlike 
  7
textstyle35
 11
277.2565962707181
 21
-135.2855734806625
 31
0.0
100
AcDbAttribute
  2
8. License
 70
     0
 74
     2
280
     0
  0
ATTRIB
  5
35F
330
38C
100
AcDbEntity
  8
0
100
AcDbText
 10
537.8192277818063
 20
-164.2955734806629
 30
0.0
 40
7.62
  1
Cone Bender
  7
textstyle36
 72
     1
 11
575.5563706389491
 21
-160.4855734806629
 31
0.0
100
AcDbAttribute
  2
2. Title
 70
     0
 74
     2
280
     0
  0
ATTRIB
  5
360
330
38C
100
AcDbEntity
  8
0
100
AcDbText
 10
563.6552687835731
 20
-119.8672596040406
 30
0.0
 40
4.5
  1
Tools
  7
textstyle37
 11
563.6552687835731
 21
-117.6172596040406
 31
0.0
100
AcDbAttribute
  2
1. Project
 70
     0
 74
     2
280
     0
  0
ATTRIB
  5
361
330
38C
100
AcDbEntity
  8
0
100
AcDbText
 10
413.6253414357515
 20
-125.2355734806632
 30
0.0
 40
4.5
  1
1
  7
textstyle38
 72
     1
 11
415.4467700071801
 21
-122.9855734806632
 31
0.0
100
AcDbAttribute
  2
3. Drawing No.
 70
     0
 74
     2
280
     0
  0
ATTRIB
  5
362
330
38C
100
AcDbEntity
  8
0
100
AcDbText
 10
376.1253414357514
 20
-125.2355734806628
 30
0.0
 40
4.5
  1
1
  7
textstyle39
 72
     1
 11
377.94677000718
 21
-122.9855734806628
 31
0.0
100
AcDbAttribute
  2
7. Sheet
 70
     0
 74
     2
280
     0
  0
SEQEND
  5
53A
330
38C
100
AcDbEntity
  8
0
  0
ENDSEC
  0
SECTION
  2
OBJECTS
  0
DICTIONARY
  5
399
330
0
100
AcDbDictionary
281
     1
  3
ACAD_DETAILVIEWSTYLE
350
542
  3
ACAD_GROUP
350
39A
  3
ACAD_IMAGE_DICT
350
52E
  3
ACAD_LAYOUT
350
3A6
  3
ACAD_MATERIAL
350
3CF
  3
ACAD_MLEADERSTYLE
350
3F7
  3
ACAD_MLINESTYLE
350
3A3
  3
ACAD_PLOTSETTINGS
350
3A5
  3
ACAD_PLOTSTYLENAME
350
39B
  3
ACAD_SCALELIST
350
3D3
  3
ACAD_SECTIONVIEWSTYLE
350
543
  3
ACAD_TABLESTYLE
350
3F5
  3
ACAD_VISUALSTYLE
350
3B6
  3
AcDbVariableDictionary
350
53B
  3
ACDB_RECOMPOSE_DATA
350
53F
  3
QCAD_OBJECTS
350
3FB
  0
SUN
  5
3F9
330
3B5
100
AcDbSun
 90
        1
290
     0
 63
     7
421
 16777215
 40
1.0
291
     1
 91
  2455826
 92
 54000000
292
     0
 70
     2
 71
   256
280
     1
  0
IMAGEDEF_REACTOR
  5
530
330
38B
100
AcDbRasterImageDefReactor
 90
        2
330
38B
  0
DICTIONARY
  5
542
102
{ACAD_REACTORS
330
399
102
}
330
399
100
AcDbDictionary
281
     1
  0
DICTIONARY
  5
39A
102
{ACAD_REACTORS
330
399
102
}
330
399
100
AcDbDictionary
281
     1
  0
DICTIONARY
  5
52E
102
{ACAD_REACTORS
330
399
102
}
330
399
100
AcDbDictionary
281
     1
  3
image_227
350
52F
  0
DICTIONARY
  5
3A6
102
{ACAD_REACTORS
330
399
102
}
330
399
100
AcDbDictionary
281
     1
  3
Layout1
350
3AA
  3
Layout2
350
3B2
  3
Model
350
3AE
  0
DICTIONARY
  5
3CF
102
{ACAD_REACTORS
330
399
102
}
330
399
100
AcDbDictionary
281
     1
  3
ByBlock
350
3D1
  3
ByLayer
350
3D0
  3
Global
350
3D2
  0
DICTIONARY
  5
3F7
102
{ACAD_REACTORS
330
399
102
}
330
399
100
AcDbDictionary
281
     1
  3
Standard
350
3F8
  0
DICTIONARY
  5
3A3
102
{ACAD_REACTORS
330
399
102
}
330
399
100
AcDbDictionary
281
     1
  3
Standard
350
3A4
  0
DICTIONARY
  5
3A5
102
{ACAD_REACTORS
330
399
102
}
330
399
100
AcDbDictionary
281
     1
  0
ACDBDICTIONARYWDFLT
  5
39B
102
{ACAD_REACTORS
330
399
102
}
330
399
100
AcDbDictionary
281
     1
  3
Normal
350
39C
100
AcDbDictionaryWithDefault
340
39C
  0
DICTIONARY
  5
3D3
102
{ACAD_REACTORS
330
399
102
}
330
399
100
AcDbDictionary
281
     1
  3
A0
350
3D4
  3
A1
350
3D5
  3
A2
350
3D6
  3
A3
350
3D7
  3
A4
350
3D8
  3
A5
350
3D9
  3
A6
350
3DA
  3
A7
350
3DB
  3
A8
350
3DC
  3
A9
350
3DD
  3
B0
350
3DE
  3
B1
350
3DF
  3
B2
350
3E0
  3
B3
350
3E1
  3
B4
350
3E2
  3
B5
350
3E3
  3
B6
350
3E4
  3
B7
350
3E5
  3
B8
350
3E6
  3
B9
350
3E7
  3
C0
350
3E8
  3
C1
350
3E9
  3
C2
350
3EA
  3
C3
350
3EB
  3
C4
350
3EC
  3
C5
350
3ED
  3
C6
350
3EE
  3
C7
350
3EF
  3
C8
350
3F0
  3
C9
350
3F1
  3
D0
350
3F2
  3
D1
350
3F3
  3
D2
350
3F4
  0
DICTIONARY
  5
543
102
{ACAD_REACTORS
330
399
102
}
330
399
100
AcDbDictionary
281
     1
  0
DICTIONARY
  5
3F5
102
{ACAD_REACTORS
330
399
102
}
330
399
100
AcDbDictionary
281
     1
  3
Standard
350
3F6
  0
DICTIONARY
  5
3B6
102
{ACAD_REACTORS
330
399
102
}
330
399
100
AcDbDictionary
281
     1
  3
2dWireframe
350
3BB
  3
Basic
350
3BE
  3
Brighten
350
3C2
  3
ColorChange
350
3C6
  3
Conceptual
350
3C0
  3
Dim
350
3C1
  3
EdgeColorOff
350
3C9
  3
Facepattern
350
3C5
  3
Flat
350
3B7
  3
FlatWithEdges
350
3B8
  3
Gouraud
350
3B9
  3
GouraudWithEdges
350
3BA
  3
Hidden
350
3BD
  3
JitterOff
350
3C7
  3
Linepattern
350
3C4
  3
OverhangOff
350
3C8
  3
Realistic
350
3BF
  3
Shaded
350
3CE
  3
Shaded with edges
350
3CD
  3
Shades of Gray
350
3CA
  3
Sketchy
350
3CB
  3
Thicken
350
3C3
  3
Wireframe
350
3BC
  3
X-Ray
350
3CC
  0
DICTIONARY
  5
53B
102
{ACAD_REACTORS
330
399
102
}
330
399
100
AcDbDictionary
281
     1
  3
CANNOSCALE
350
53C
  3
CMLEADERSTYLE
350
541
  3
CTABLESTYLE
350
540
  0
XRECORD
  5
53F
102
{ACAD_REACTORS
330
399
102
}
330
399
100
AcDbXrecord
280
     1
 90
        1
330
3F6
  0
DICTIONARY
  5
3FB
102
{ACAD_REACTORS
330
399
102
}
330
399
100
AcDbDictionary
281
     1
  3
DimensionSettings/AngularFormat
350
3FC
  3
DimensionSettings/AngularPrecision
350
3FD
  3
DimensionSettings/DimensionFont
350
3FE
  3
DimensionSettings/KeepProportions
350
3FF
  3
DimensionSettings/LinearFormat
350
400
  3
DimensionSettings/LinearPrecision
350
401
  3
Grid/DisplayGrid00
350
402
  3
Grid/DisplayGrid01
350
403
  3
Grid/DisplayGrid02
350
404
  3
Grid/DisplayGrid03
350
405
  3
Grid/GridSpacingX00
350
406
  3
Grid/GridSpacingX01
350
407
  3
Grid/GridSpacingX02
350
408
  3
Grid/GridSpacingX03
350
409
  3
Grid/GridSpacingY00
350
40A
  3
Grid/GridSpacingY01
350
40B
  3
Grid/GridSpacingY02
350
40C
  3
Grid/GridSpacingY03
350
40D
  3
Grid/IsometricGrid00
350
40E
  3
Grid/IsometricGrid01
350
40F
  3
Grid/IsometricGrid02
350
410
  3
Grid/IsometricGrid03
350
411
  3
Grid/IsometricProjection00
350
412
  3
Grid/IsometricProjection01
350
413
  3
Grid/IsometricProjection02
350
414
  3
Grid/IsometricProjection03
350
415
  3
Grid/MetaGridSpacingX00
350
416
  3
Grid/MetaGridSpacingX01
350
417
  3
Grid/MetaGridSpacingX02
350
418
  3
Grid/MetaGridSpacingX03
350
419
  3
Grid/MetaGridSpacingY00
350
41A
  3
Grid/MetaGridSpacingY01
350
41B
  3
Grid/MetaGridSpacingY02
350
41C
  3
Grid/MetaGridSpacingY03
350
41D
  3
MultiPageSettings/Columns
350
41E
  3
MultiPageSettings/GlueMarginsBottom
350
41F
  3
MultiPageSettings/GlueMarginsLeft
350
420
  3
MultiPageSettings/GlueMarginsRight
350
421
  3
MultiPageSettings/GlueMarginsTop
350
422
  3
MultiPageSettings/PrintCropMarks
350
423
  3
MultiPageSettings/Rows
350
424
  3
PageSettings/OffsetX
350
425
  3
PageSettings/OffsetY
350
426
  3
PageSettings/PageOrientation
350
427
  3
PageSettings/PaperHeight
350
428
  3
PageSettings/PaperWidth
350
429
  3
PageSettings/Scale
350
42A
  3
PageSettings/ShowPaperBorders
350
42B
  3
UnitSettings/PaperUnit
350
42C
  0
IMAGEDEF
  5
52F
102
{ACAD_REACTORS
330
52E
330
530
102
}
330
52E
100
AcDbRasterImageDef
 90
        0
  1
/Users/russell/projects/QCad-Libs/cc-by-sa.png
 10
403.0
 20
141.0
 11
0.002481389578163772
 21
0.002481389578163772
280
     1
281
     1
  0
LAYOUT
  5
3AA
102
{ACAD_REACTORS
330
3A6
102
}
330
3A6
100
AcDbPlotSettings
  1

  2
none_device
  4

  6

 40
0.0
 41
0.0
 42
0.0
 43
0.0
 44
0.0
 45
0.0
 46
0.0
 47
0.0
 48
0.0
 49
0.0
140
0.0
141
0.0
142
1.0
143
1.0
 70
   688
 72
     0
 73
     0
 74
     5
  7

 75
    16
 76
     0
 77
     2
 78
   300
147
1.0
148
0.0
149
0.0
100
AcDbLayout
  1
Layout1
 70
     1
 71
     1
 10
0.0
 20
0.0
 11
12.0
 21
9.0
 12
0.0
 22
0.0
 32
0.0
 14
1.000000000000000E+20
 24
1.000000000000000E+20
 34
1.000000000000000E+20
 15
-1.000000000000000E+20
 25
-1.000000000000000E+20
 35
-1.000000000000000E+20
146
0.0
 13
0.0
 23
0.0
 33
0.0
 16
1.0
 26
0.0
 36
0.0
 17
0.0
 27
1.0
 37
0.0
 76
     0
330
3A7
  0
LAYOUT
  5
3B2
102
{ACAD_REACTORS
330
3A6
102
}
330
3A6
100
AcDbPlotSettings
  1

  2
none_device
  4

  6

 40
0.0
 41
0.0
 42
0.0
 43
0.0
 44
0.0
 45
0.0
 46
0.0
 47
0.0
 48
0.0
 49
0.0
140
0.0
141
0.0
142
1.0
143
1.0
 70
   688
 72
     0
 73
     0
 74
     5
  7

 75
    16
 76
     0
 77
     2
 78
   300
147
1.0
148
0.0
149
0.0
100
AcDbLayout
  1
Layout2
 70
     1
 71
     2
 10
0.0
 20
0.0
 11
0.0
 21
0.0
 12
0.0
 22
0.0
 32
0.0
 14
0.0
 24
0.0
 34
0.0
 15
0.0
 25
0.0
 35
0.0
146
0.0
 13
0.0
 23
0.0
 33
0.0
 16
1.0
 26
0.0
 36
0.0
 17
0.0
 27
1.0
 37
0.0
 76
     0
330
3AF
  0
LAYOUT
  5
3AE
102
{ACAD_REACTORS
330
3A6
102
}
330
3A6
100
AcDbPlotSettings
  1

  2
none_device
  4
Letter_(8.50_x_11.00_Inches)
  6

 40
6.35
 41
6.35
 42
6.35000508
 43
6.35000508
 44
215.9
 45
279.4
 46
0.0
 47
0.0
 48
0.0
 49
0.0
140
0.0
141
0.0
142
1.0
143
1.0
 70
  1712
 72
     0
 73
     0
 74
     0
  7

 75
     0
 76
     0
 77
     2
 78
   300
147
1.0
148
0.0
149
0.0
100
AcDbLayout
  1
Model
 70
     1
 71
     0
 10
0.0
 20
0.0
 11
12.0
 21
9.0
 12
0.0
 22
0.0
 32
0.0
 14
1.000000000000000E+20
 24
1.000000000000000E+20
 34
1.000000000000000E+20
 15
-1.000000000000000E+20
 25
-1.000000000000000E+20
 35
-1.000000000000000E+20
146
0.0
 13
0.0
 23
0.0
 33
0.0
 16
1.0
 26
0.0
 36
0.0
 17
0.0
 27
1.0
 37
0.0
 76
     0
330
3AB
331
3B5
  0
MATERIAL
  5
3D1
102
{ACAD_REACTORS
330
3CF
102
}
330
3CF
100
AcDbMaterial
  1
ByBlock
 72
     1
 94
      127
  0
MATERIAL
  5
3D0
102
{ACAD_REACTORS
330
3CF
102
}
330
3CF
100
AcDbMaterial
  1
ByLayer
 72
     1
 94
      127
  0
MATERIAL
  5
3D2
102
{ACAD_REACTORS
330
3CF
102
}
330
3CF
100
AcDbMaterial
  1
Global
 72
     1
 94
      127
  0
MLEADERSTYLE
  5
3F8
102
{ACAD_REACTORS
330
3F7
102
}
330
3F7
100
AcDbMLeaderStyle
179
     2
170
     2
171
     1
172
     0
 90
        2
 40
0.0
 41
0.0
173
     1
 91
-1056964608
340
3A0
 92
       -2
290
     1
 42
0.09
291
     1
 43
0.36
  3
Standard
341
0
 44
0.18
300

342
39E
174
     1
178
     6
175
     1
176
     0
 93
-1056964608
 45
0.18
292
     0
297
     0
 46
0.18
343
0
 94
-1056964608
 47
1.0
 49
1.0
140
1.0
293
     1
141
0.0
294
     1
177
     0
142
1.0
295
     0
296
     0
143
0.125
271
     0
272
     9
273
     9
298
     0
  0
MLINESTYLE
  5
3A4
102
{ACAD_REACTORS
330
3A3
102
}
330
3A3
100
AcDbMlineStyle
  2
Standard
 70
     0
  3

 62
   256
 51
90.0
 52
90.0
 71
     2
 49
0.5
 62
   256
  6
BYLAYER
 49
-0.5
 62
   256
  6
BYLAYER
  0
ACDBPLACEHOLDER
  5
39C
102
{ACAD_REACTORS
330
39B
102
}
330
39B
  0
SCALE
  5
3D4
102
{ACAD_REACTORS
330
3D3
102
}
330
3D3
100
AcDbScale
 70
     0
300
1:1
140
1.0
141
1.0
290
     1
  0
SCALE
  5
3D5
102
{ACAD_REACTORS
330
3D3
102
}
330
3D3
100
AcDbScale
 70
     0
300
1:2
140
1.0
141
2.0
290
     0
  0
SCALE
  5
3D6
102
{ACAD_REACTORS
330
3D3
102
}
330
3D3
100
AcDbScale
 70
     0
300
1:4
140
1.0
141
4.0
290
     0
  0
SCALE
  5
3D7
102
{ACAD_REACTORS
330
3D3
102
}
330
3D3
100
AcDbScale
 70
     0
300
1:5
140
1.0
141
5.0
290
     0
  0
SCALE
  5
3D8
102
{ACAD_REACTORS
330
3D3
102
}
330
3D3
100
AcDbScale
 70
     0
300
1:8
140
1.0
141
8.0
290
     0
  0
SCALE
  5
3D9
102
{ACAD_REACTORS
330
3D3
102
}
330
3D3
100
AcDbScale
 70
     0
300
1:10
140
1.0
141
10.0
290
     0
  0
SCALE
  5
3DA
102
{ACAD_REACTORS
330
3D3
102
}
330
3D3
100
AcDbScale
 70
     0
300
1:16
140
1.0
141
16.0
290
     0
  0
SCALE
  5
3DB
102
{ACAD_REACTORS
330
3D3
102
}
330
3D3
100
AcDbScale
 70
     0
300
1:20
140
1.0
141
20.0
290
     0
  0
SCALE
  5
3DC
102
{ACAD_REACTORS
330
3D3
102
}
330
3D3
100
AcDbScale
 70
     0
300
1:30
140
1.0
141
30.0
290
     0
  0
SCALE
  5
3DD
102
{ACAD_REACTORS
330
3D3
102
}
330
3D3
100
AcDbScale
 70
     0
300
1:40
140
1.0
141
40.0
290
     0
  0
SCALE
  5
3DE
102
{ACAD_REACTORS
330
3D3
102
}
330
3D3
100
AcDbScale
 70
     0
300
1:50
140
1.0
141
50.0
290
     0
  0
SCALE
  5
3DF
102
{ACAD_REACTORS
330
3D3
102
}
330
3D3
100
AcDbScale
 70
     0
300
1:100
140
1.0
141
100.0
290
     0
  0
SCALE
  5
3E0
102
{ACAD_REACTORS
330
3D3
102
}
330
3D3
100
AcDbScale
 70
     0
300
2:1
140
2.0
141
1.0
290
     0
  0
SCALE
  5
3E1
102
{ACAD_REACTORS
330
3D3
102
}
330
3D3
100
AcDbScale
 70
     0
300
4:1
140
4.0
141
1.0
290
     0
  0
SCALE
  5
3E2
102
{ACAD_REACTORS
330
3D3
102
}
330
3D3
100
AcDbScale
 70
     0
300
8:1
140
8.0
141
1.0
290
     0
  0
SCALE
  5
3E3
102
{ACAD_REACTORS
330
3D3
102
}
330
3D3
100
AcDbScale
 70
     0
300
10:1
140
10.0
141
1.0
290
     0
  0
SCALE
  5
3E4
102
{ACAD_REACTORS
330
3D3
102
}
330
3D3
100
AcDbScale
 70
     0
300
100:1
140
100.0
141
1.0
290
     0
  0
SCALE
  5
3E5
102
{ACAD_REACTORS
330
3D3
102
}
330
3D3
100
AcDbScale
 70
     0
300
1/128" = 1'-0"
140
0.0078125
141
12.0
290
     0
  0
SCALE
  5
3E6
102
{ACAD_REACTORS
330
3D3
102
}
330
3D3
100
AcDbScale
 70
     0
300
1/64" = 1'-0"
140
0.015625
141
12.0
290
     0
  0
SCALE
  5
3E7
102
{ACAD_REACTORS
330
3D3
102
}
330
3D3
100
AcDbScale
 70
     0
300
1/32" = 1'-0"
140
0.03125
141
12.0
290
     0
  0
SCALE
  5
3E8
102
{ACAD_REACTORS
330
3D3
102
}
330
3D3
100
AcDbScale
 70
     0
300
1/16" = 1'-0"
140
0.0625
141
12.0
290
     0
  0
SCALE
  5
3E9
102
{ACAD_REACTORS
330
3D3
102
}
330
3D3
100
AcDbScale
 70
     0
300
3/32" = 1'-0"
140
0.09375
141
12.0
290
     0
  0
SCALE
  5
3EA
102
{ACAD_REACTORS
330
3D3
102
}
330
3D3
100
AcDbScale
 70
     0
300
1/8" = 1'-0"
140
0.125
141
12.0
290
     0
  0
SCALE
  5
3EB
102
{ACAD_REACTORS
330
3D3
102
}
330
3D3
100
AcDbScale
 70
     0
300
3/16" = 1'-0"
140
0.1875
141
12.0
290
     0
  0
SCALE
  5
3EC
102
{ACAD_REACTORS
330
3D3
102
}
330
3D3
100
AcDbScale
 70
     0
300
1/4" = 1'-0"
140
0.25
141
12.0
290
     0
  0
SCALE
  5
3ED
102
{ACAD_REACTORS
330
3D3
102
}
330
3D3
100
AcDbScale
 70
     0
300
3/8" = 1'-0"
140
0.375
141
12.0
290
     0
  0
SCALE
  5
3EE
102
{ACAD_REACTORS
330
3D3
102
}
330
3D3
100
AcDbScale
 70
     0
300
1/2" = 1'-0"
140
0.5
141
12.0
290
     0
  0
SCALE
  5
3EF
102
{ACAD_REACTORS
330
3D3
102
}
330
3D3
100
AcDbScale
 70
     0
300
3/4" = 1'-0"
140
0.75
141
12.0
290
     0
  0
SCALE
  5
3F0
102
{ACAD_REACTORS
330
3D3
102
}
330
3D3
100
AcDbScale
 70
     0
300
1" = 1'-0"
140
1.0
141
12.0
290
     0
  0
SCALE
  5
3F1
102
{ACAD_REACTORS
330
3D3
102
}
330
3D3
100
AcDbScale
 70
     0
300
1-1/2" = 1'-0"
140
1.5
141
12.0
290
     0
  0
SCALE
  5
3F2
102
{ACAD_REACTORS
330
3D3
102
}
330
3D3
100
AcDbScale
 70
     0
300
3" = 1'-0"
140
3.0
141
12.0
290
     0
  0
SCALE
  5
3F3
102
{ACAD_REACTORS
330
3D3
102
}
330
3D3
100
AcDbScale
 70
     0
300
6" = 1'-0"
140
6.0
141
12.0
290
     0
  0
SCALE
  5
3F4
102
{ACAD_REACTORS
330
3D3
102
}
330
3D3
100
AcDbScale
 70
     0
300
1'-0" = 1'-0"
140
12.0
141
12.0
290
     0
  0
TABLESTYLE
  5
3F6
102
{ACAD_REACTORS
330
3F5
102
}
102
{ACAD_XDICTIONARY
360
53D
102
}
330
3F5
100
AcDbTableStyle
  3
Standard
 70
     0
 71
     0
 40
0.06
 41
0.06
280
     0
281
     0
  7
Standard
140
0.18
170
     2
 62
     0
 63
   257
283
     0
 90
        4
 91
        0
  1

274
    -2
284
     1
 64
     0
275
    -2
285
     1
 65
     0
276
    -2
286
     1
 66
     0
277
    -2
287
     1
 67
     0
278
    -2
288
     1
 68
     0
279
    -2
289
     1
 69
     0
  7
Standard
140
0.25
170
     5
 62
     0
 63
   257
283
     0
 90
        4
 91
        0
  1

274
    -2
284
     1
 64
     0
275
    -2
285
     1
 65
     0
276
    -2
286
     1
 66
     0
277
    -2
287
     1
 67
     0
278
    -2
288
     1
 68
     0
279
    -2
289
     1
 69
     0
  7
Standard
140
0.18
170
     5
 62
     0
 63
   257
283
     0
 90
        4
 91
        0
  1

274
    -2
284
     1
 64
     0
275
    -2
285
     1
 65
     0
276
    -2
286
     1
 66
     0
277
    -2
287
     1
 67
     0
278
    -2
288
     1
 68
     0
279
    -2
289
     1
 69
     0
  0
VISUALSTYLE
  5
3BB
102
{ACAD_REACTORS
330
3B6
102
}
330
3B6
100
AcDbVisualStyle
  2
2dWireframe
 70
     4
177
     3
291
     0
 70
    58
 90
        0
176
     1
 90
        2
176
     1
 90
        0
176
     1
 90
        0
176
     1
 40
0.6
176
     1
 40
30.0
176
     1
 62
     7
420
 16777215
176
     1
 90
        1
176
     1
 90
        4
176
     1
 62
     7
176
     1
 62
   257
176
     1
 90
        1
176
     1
 90
        1
176
     1
 40
1.0
176
     1
 90
        0
176
     1
 62
   257
176
     1
 40
1.0
176
     1
 90
        1
176
     1
 90
        6
176
     1
 90
        2
176
     1
 62
     7
176
     1
 90
        5
176
     1
 90
        0
176
     1
 90
        0
176
     1
290
     0
176
     1
 90
        1
176
     1
 40
0.0
176
     1
 90
        0
176
     1
290
     1
176
     1
290
     1
176
     1
290
     0
176
     1
290
     0
176
     1
290
     0
176
     1
290
     0
176
     1
290
     0
176
     1
290
     0
176
     1
290
     0
176
     1
 90
       50
176
     1
 40
0.0
176
     1
 40
1.0
176
     1
 90
        0
176
     1
 62
   178
420
        0
176
     1
 90
       50
176
     1
 90
        3
176
     1
 62
     5
420
      255
176
     1
290
     0
176
     1
 90
       50
176
     1
 90
       50
176
     1
 90
       50
176
     1
290
     0
176
     1
 90
       50
176
     1
 62
   256
176
     0
 40
1.0
176
     0
 90
        2
176
     1
  1
strokes_ogs.tif
176
     1
290
     0
176
     1
 40
1.0
176
     1
 40
1.0
176
     1
  0
VISUALSTYLE
  5
3BE
102
{ACAD_REACTORS
330
3B6
102
}
330
3B6
100
AcDbVisualStyle
  2
Basic
 70
     7
177
     3
291
     1
 70
    58
 90
        1
176
     1
 90
        0
176
     1
 90
        1
176
     1
 90
        0
176
     1
 40
0.6
176
     1
 40
30.0
176
     1
 62
     7
420
 16777215
176
     1
 90
        0
176
     1
 90
        4
176
     1
 62
     7
176
     1
 62
   257
176
     1
 90
        1
176
     1
 90
        1
176
     1
 40
1.0
176
     1
 90
        8
176
     1
 62
     7
176
     1
 40
1.0
176
     1
 90
        1
176
     1
 90
        6
176
     1
 90
        2
176
     1
 62
     7
176
     1
 90
        5
176
     1
 90
        0
176
     1
 90
        0
176
     1
290
     0
176
     1
 90
        1
176
     1
 40
0.0
176
     1
 90
        0
176
     1
290
     0
176
     1
290
     1
176
     1
290
     1
176
     1
290
     0
176
     1
290
     0
176
     1
290
     0
176
     1
290
     0
176
     1
290
     0
176
     1
290
     0
176
     1
 90
       50
176
     1
 40
0.0
176
     1
 40
1.0
176
     1
 90
        0
176
     1
 62
   178
420
        0
176
     1
 90
       50
176
     1
 90
        3
176
     1
 62
     5
420
      255
176
     1
290
     0
176
     1
 90
       50
176
     1
 90
       50
176
     1
 90
       50
176
     1
290
     0
176
     1
 90
       50
176
     1
 62
   256
176
     0
 40
1.0
176
     0
 90
        2
176
     1
  1
strokes_ogs.tif
176
     1
290
     0
176
     1
 40
1.0
176
     1
 40
1.0
176
     1
  0
VISUALSTYLE
  5
3C2
102
{ACAD_REACTORS
330
3B6
102
}
330
3B6
100
AcDbVisualStyle
  2
Brighten
 70
    12
177
     3
291
     1
 70
    58
 90
        2
176
     1
 90
        2
176
     1
 90
        0
176
     1
 90
        0
176
     1
 40
0.6
176
     1
 40
30.0
176
     1
 62
     7
420
 16777215
176
     1
 90
        1
176
     1
 90
        4
176
     1
 62
     7
176
     1
 62
   257
176
     1
 90
        1
176
     1
 90
        1
176
     1
 40
1.0
176
     1
 90
        8
176
     1
 62
     7
176
     1
 40
1.0
176
     1
 90
        1
176
     1
 90
        6
176
     1
 90
        2
176
     1
 62
     7
176
     1
 90
        5
176
     1
 90
        0
176
     1
 90
        0
176
     1
290
     0
176
     1
 90
        1
176
     1
 40
50.0
176
     1
 90
        0
176
     1
290
     0
176
     1
290
     1
176
     1
290
     1
176
     1
290
     0
176
     1
290
     0
176
     1
290
     0
176
     1
290
     0
176
     1
290
     0
176
     1
290
     0
176
     1
 90
       50
176
     1
 40
0.0
176
     1
 40
1.0
176
     1
 90
        0
176
     1
 62
   178
420
        0
176
     1
 90
       50
176
     1
 90
        3
176
     1
 62
     5
420
      255
176
     1
290
     0
176
     1
 90
       50
176
     1
 90
       50
176
     1
 90
       50
176
     1
290
     0
176
     1
 90
       50
176
     1
 62
   256
176
     0
 40
1.0
176
     0
 90
        2
176
     1
  1
strokes_ogs.tif
176
     1
290
     0
176
     1
 40
1.0
176
     1
 40
1.0
176
     1
  0
VISUALSTYLE
  5
3C6
102
{ACAD_REACTORS
330
3B6
102
}
330
3B6
100
AcDbVisualStyle
  2
ColorChange
 70
    16
177
     3
291
     1
 70
    58
 90
        2
176
     1
 90
        2
176
     1
 90
        3
176
     1
 90
        0
176
     1
 40
0.6
176
     1
 40
30.0
176
     1
 62
     8
420
  8421504
176
     1
 90
        1
176
     1
 90
        4
176
     1
 62
     7
176
     1
 62
   257
176
     1
 90
        1
176
     1
 90
        1
176
     1
 40
1.0
176
     1
 90
        8
176
     1
 62
     8
420
  8421504
176
     1
 40
1.0
176
     1
 90
        1
176
     1
 90
        6
176
     1
 90
        2
176
     1
 62
     7
176
     1
 90
        5
176
     1
 90
        0
176
     1
 90
        0
176
     1
290
     0
176
     1
 90
        1
176
     1
 40
0.0
176
     1
 90
        0
176
     1
290
     0
176
     1
290
     1
176
     1
290
     1
176
     1
290
     0
176
     1
290
     0
176
     1
290
     0
176
     1
290
     0
176
     1
290
     0
176
     1
290
     0
176
     1
 90
       50
176
     1
 40
0.0
176
     1
 40
1.0
176
     1
 90
        0
176
     1
 62
   178
420
        0
176
     1
 90
       50
176
     1
 90
        3
176
     1
 62
     5
420
      255
176
     1
290
     0
176
     1
 90
       50
176
     1
 90
       50
176
     1
 90
       50
176
     1
290
     0
176
     1
 90
       50
176
     1
 62
   256
176
     0
 40
1.0
176
     0
 90
        2
176
     1
  1
strokes_ogs.tif
176
     1
290
     0
176
     1
 40
1.0
176
     1
 40
1.0
176
     1
  0
VISUALSTYLE
  5
3C0
102
{ACAD_REACTORS
330
3B6
102
}
330
3B6
100
AcDbVisualStyle
  2
Conceptual
 70
     9
177
     3
291
     0
 70
    58
 90
        3
176
     1
 90
        2
176
     1
 90
        0
176
     1
 90
        0
176
     1
 40
0.6
176
     1
 40
30.0
176
     1
 62
     7
420
 16777215
176
     1
 90
        2
176
     1
 90
        2
176
     1
 62
     7
176
     1
 62
   257
176
     1
 90
        1
176
     1
 90
        1
176
     1
 40
179.0
176
     1
 90
        8
176
     1
 62
     7
176
     1
 40
1.0
176
     1
 90
        1
176
     1
 90
        6
176
     1
 90
        2
176
     1
 62
     7
176
     1
 90
        3
176
     1
 90
        0
176
     1
 90
        0
176
     1
290
     0
176
     1
 90
        1
176
     1
 40
0.0
176
     1
 90
        0
176
     1
290
     0
176
     1
290
     1
176
     1
290
     1
176
     1
290
     0
176
     1
290
     0
176
     1
290
     0
176
     1
290
     0
176
     1
290
     0
176
     1
290
     0
176
     1
 90
       50
176
     1
 40
0.0
176
     1
 40
1.0
176
     1
 90
        0
176
     1
 62
   178
420
        0
176
     1
 90
       50
176
     1
 90
        3
176
     1
 62
     5
420
      255
176
     1
290
     0
176
     1
 90
       50
176
     1
 90
       50
176
     1
 90
       50
176
     1
290
     0
176
     1
 90
       50
176
     1
 62
   256
176
     0
 40
1.0
176
     0
 90
        2
176
     1
  1
strokes_ogs.tif
176
     1
290
     0
176
     1
 40
1.0
176
     1
 40
1.0
176
     1
  0
VISUALSTYLE
  5
3C1
102
{ACAD_REACTORS
330
3B6
102
}
330
3B6
100
AcDbVisualStyle
  2
Dim
 70
    11
177
     3
291
     1
 70
    58
 90
        2
176
     1
 90
        2
176
     1
 90
        0
176
     1
 90
        0
176
     1
 40
0.6
176
     1
 40
30.0
176
     1
 62
     7
420
 16777215
176
     1
 90
        1
176
     1
 90
        4
176
     1
 62
     7
176
     1
 62
   257
176
     1
 90
        1
176
     1
 90
        1
176
     1
 40
1.0
176
     1
 90
        8
176
     1
 62
     7
176
     1
 40
1.0
176
     1
 90
        1
176
     1
 90
        6
176
     1
 90
        2
176
     1
 62
     7
176
     1
 90
        5
176
     1
 90
        0
176
     1
 90
        0
176
     1
290
     0
176
     1
 90
        1
176
     1
 40
-50.0
176
     1
 90
        0
176
     1
290
     0
176
     1
290
     1
176
     1
290
     1
176
     1
290
     0
176
     1
290
     0
176
     1
290
     0
176
     1
290
     0
176
     1
290
     0
176
     1
290
     0
176
     1
 90
       50
176
     1
 40
0.0
176
     1
 40
1.0
176
     1
 90
        0
176
     1
 62
   178
420
        0
176
     1
 90
       50
176
     1
 90
        3
176
     1
 62
     5
420
      255
176
     1
290
     0
176
     1
 90
       50
176
     1
 90
       50
176
     1
 90
       50
176
     1
290
     0
176
     1
 90
       50
176
     1
 62
   256
176
     0
 40
1.0
176
     0
 90
        2
176
     1
  1
strokes_ogs.tif
176
     1
290
     0
176
     1
 40
1.0
176
     1
 40
1.0
176
     1
  0
VISUALSTYLE
  5
3C9
102
{ACAD_REACTORS
330
3B6
102
}
330
3B6
100
AcDbVisualStyle
  2
EdgeColorOff
 70
    22
177
     3
291
     1
 70
    58
 90
        2
176
     0
 90
        2
176
     0
 90
        0
176
     0
 90
        0
176
     0
 40
0.6
176
     0
 40
30.0
176
     0
 62
     7
420
 16777215
176
     0
 90
        1
176
     0
 90
        4
176
     0
 62
     7
176
     0
 62
   257
176
     0
 90
        1
176
     0
 90
        1
176
     0
 40
1.0
176
     0
 90
        8
176
     2
 62
     7
176
     0
 40
1.0
176
     0
 90
        1
176
     0
 90
        6
176
     0
 90
        2
176
     0
 62
     7
176
     0
 90
        5
176
     0
 90
        0
176
     0
 90
        0
176
     0
290
     0
176
     0
 90
        1
176
     0
 40
0.0
176
     0
 90
        0
176
     0
290
     0
176
     0
290
     1
176
     0
290
     1
176
     0
290
     0
176
     0
290
     0
176
     0
290
     0
176
     0
290
     0
176
     0
290
     0
176
     0
290
     0
176
     0
 90
       50
176
     0
 40
0.0
176
     0
 40
1.0
176
     0
 90
        0
176
     0
 62
   178
420
        0
176
     0
 90
       50
176
     0
 90
        3
176
     0
 62
     5
420
      255
176
     0
290
     0
176
     0
 90
       50
176
     0
 90
       50
176
     0
 90
       50
176
     0
290
     0
176
     0
 90
       50
176
     0
 62
   256
176
     0
 40
1.0
176
     0
 90
        2
176
     0
  1
strokes_ogs.tif
176
     0
290
     0
176
     0
 40
1.0
176
     0
 40
1.0
176
     0
  0
VISUALSTYLE
  5
3C5
102
{ACAD_REACTORS
330
3B6
102
}
330
3B6
100
AcDbVisualStyle
  2
Facepattern
 70
    15
177
     3
291
     1
 70
    58
 90
        2
176
     1
 90
        2
176
     1
 90
        0
176
     1
 90
        0
176
     1
 40
0.6
176
     1
 40
30.0
176
     1
 62
     7
420
 16777215
176
     1
 90
        1
176
     1
 90
        4
176
     1
 62
     7
176
     1
 62
   257
176
     1
 90
        1
176
     1
 90
        1
176
     1
 40
1.0
176
     1
 90
        8
176
     1
 62
     7
176
     1
 40
1.0
176
     1
 90
        1
176
     1
 90
        6
176
     1
 90
        2
176
     1
 62
     7
176
     1
 90
        5
176
     1
 90
        0
176
     1
 90
        0
176
     1
290
     0
176
     1
 90
        1
176
     1
 40
0.0
176
     1
 90
        0
176
     1
290
     0
176
     1
290
     1
176
     1
290
     1
176
     1
290
     0
176
     1
290
     0
176
     1
290
     0
176
     1
290
     0
176
     1
290
     0
176
     1
290
     0
176
     1
 90
       50
176
     1
 40
0.0
176
     1
 40
1.0
176
     1
 90
        0
176
     1
 62
   178
420
        0
176
     1
 90
       50
176
     1
 90
        3
176
     1
 62
     5
420
      255
176
     1
290
     0
176
     1
 90
       50
176
     1
 90
       50
176
     1
 90
       50
176
     1
290
     0
176
     1
 90
       50
176
     1
 62
   256
176
     0
 40
1.0
176
     0
 90
        2
176
     1
  1
strokes_ogs.tif
176
     1
290
     0
176
     1
 40
1.0
176
     1
 40
1.0
176
     1
  0
VISUALSTYLE
  5
3B7
102
{ACAD_REACTORS
330
3B6
102
}
330
3B6
100
AcDbVisualStyle
  2
Flat
 70
     0
177
     3
291
     1
 70
    58
 90
        2
176
     1
 90
        1
176
     1
 90
        1
176
     1
 90
        2
176
     1
 40
0.6
176
     1
 40
30.0
176
     1
 62
     7
420
 16777215
176
     1
 90
        0
176
     1
 90
        0
176
     1
 62
     7
176
     1
 62
   257
176
     1
 90
        1
176
     1
 90
        1
176
     1
 40
1.0
176
     1
 90
        8
176
     1
 62
     7
176
     1
 40
1.0
176
     1
 90
        1
176
     1
 90
        6
176
     1
 90
        2
176
     1
 62
     7
176
     1
 90
        5
176
     1
 90
        0
176
     1
 90
        0
176
     1
290
     0
176
     1
 90
       13
176
     1
 40
0.0
176
     1
 90
        0
176
     1
290
     0
176
     1
290
     1
176
     1
290
     1
176
     1
290
     0
176
     1
290
     0
176
     1
290
     0
176
     1
290
     0
176
     1
290
     0
176
     1
290
     0
176
     1
 90
       50
176
     1
 40
0.0
176
     1
 40
1.0
176
     1
 90
        0
176
     1
 62
   178
420
        0
176
     1
 90
       50
176
     1
 90
        3
176
     1
 62
     5
420
      255
176
     1
290
     0
176
     1
 90
       50
176
     1
 90
       50
176
     1
 90
       50
176
     1
290
     0
176
     1
 90
       50
176
     1
 62
   256
176
     0
 40
1.0
176
     0
 90
        2
176
     1
  1
strokes_ogs.tif
176
     1
290
     0
176
     1
 40
1.0
176
     1
 40
1.0
176
     1
  0
VISUALSTYLE
  5
3B8
102
{ACAD_REACTORS
330
3B6
102
}
330
3B6
100
AcDbVisualStyle
  2
FlatWithEdges
 70
     1
177
     3
291
     1
 70
    58
 90
        2
176
     1
 90
        1
176
     1
 90
        1
176
     1
 90
        2
176
     1
 40
0.6
176
     1
 40
30.0
176
     1
 62
     7
420
 16777215
176
     1
 90
        1
176
     1
 90
        0
176
     1
 62
     7
176
     1
 62
   257
176
     1
 90
        1
176
     1
 90
        1
176
     1
 40
1.0
176
     1
 90
        0
176
     1
 62
   257
176
     1
 40
1.0
176
     1
 90
        1
176
     1
 90
        6
176
     1
 90
        2
176
     1
 62
     7
176
     1
 90
        5
176
     1
 90
        0
176
     1
 90
        0
176
     1
290
     0
176
     1
 90
       13
176
     1
 40
0.0
176
     1
 90
        0
176
     1
290
     0
176
     1
290
     1
176
     1
290
     1
176
     1
290
     0
176
     1
290
     0
176
     1
290
     0
176
     1
290
     0
176
     1
290
     0
176
     1
290
     0
176
     1
 90
       50
176
     1
 40
0.0
176
     1
 40
1.0
176
     1
 90
        0
176
     1
 62
   178
420
        0
176
     1
 90
       50
176
     1
 90
        3
176
     1
 62
     5
420
      255
176
     1
290
     0
176
     1
 90
       50
176
     1
 90
       50
176
     1
 90
       50
176
     1
290
     0
176
     1
 90
       50
176
     1
 62
   256
176
     0
 40
1.0
176
     0
 90
        2
176
     1
  1
strokes_ogs.tif
176
     1
290
     0
176
     1
 40
1.0
176
     1
 40
1.0
176
     1
  0
VISUALSTYLE
  5
3B9
102
{ACAD_REACTORS
330
3B6
102
}
330
3B6
100
AcDbVisualStyle
  2
Gouraud
 70
     2
177
     3
291
     1
 70
    58
 90
        2
176
     1
 90
        2
176
     1
 90
        1
176
     1
 90
        2
176
     1
 40
0.6
176
     1
 40
30.0
176
     1
 62
     7
420
 16777215
176
     1
 90
        0
176
     1
 90
        0
176
     1
 62
     7
176
     1
 62
   257
176
     1
 90
        1
176
     1
 90
        1
176
     1
 40
1.0
176
     1
 90
        0
176
     1
 62
     7
176
     1
 40
1.0
176
     1
 90
        1
176
     1
 90
        6
176
     1
 90
        2
176
     1
 62
     7
176
     1
 90
        5
176
     1
 90
        0
176
     1
 90
        0
176
     1
290
     0
176
     1
 90
       13
176
     1
 40
0.0
176
     1
 90
        0
176
     1
290
     0
176
     1
290
     1
176
     1
290
     1
176
     1
290
     0
176
     1
290
     0
176
     1
290
     0
176
     1
290
     0
176
     1
290
     0
176
     1
290
     0
176
     1
 90
       50
176
     1
 40
0.0
176
     1
 40
1.0
176
     1
 90
        0
176
     1
 62
   178
420
        0
176
     1
 90
       50
176
     1
 90
        3
176
     1
 62
     5
420
      255
176
     1
290
     0
176
     1
 90
       50
176
     1
 90
       50
176
     1
 90
       50
176
     1
290
     0
176
     1
 90
       50
176
     1
 62
   256
176
     0
 40
1.0
176
     0
 90
        2
176
     1
  1
strokes_ogs.tif
176
     1
290
     0
176
     1
 40
1.0
176
     1
 40
1.0
176
     1
  0
VISUALSTYLE
  5
3BA
102
{ACAD_REACTORS
330
3B6
102
}
330
3B6
100
AcDbVisualStyle
  2
GouraudWithEdges
 70
     3
177
     3
291
     1
 70
    58
 90
        2
176
     1
 90
        2
176
     1
 90
        1
176
     1
 90
        2
176
     1
 40
0.6
176
     1
 40
30.0
176
     1
 62
     7
420
 16777215
176
     1
 90
        1
176
     1
 90
        0
176
     1
 62
     7
176
     1
 62
   257
176
     1
 90
        1
176
     1
 90
        1
176
     1
 40
1.0
176
     1
 90
        0
176
     1
 62
   257
176
     1
 40
1.0
176
     1
 90
        1
176
     1
 90
        6
176
     1
 90
        2
176
     1
 62
     7
176
     1
 90
        5
176
     1
 90
        0
176
     1
 90
        0
176
     1
290
     0
176
     1
 90
       13
176
     1
 40
0.0
176
     1
 90
        0
176
     1
290
     0
176
     1
290
     1
176
     1
290
     1
176
     1
290
     0
176
     1
290
     0
176
     1
290
     0
176
     1
290
     0
176
     1
290
     0
176
     1
290
     0
176
     1
 90
       50
176
     1
 40
0.0
176
     1
 40
1.0
176
     1
 90
        0
176
     1
 62
   178
420
        0
176
     1
 90
       50
176
     1
 90
        3
176
     1
 62
     5
420
      255
176
     1
290
     0
176
     1
 90
       50
176
     1
 90
       50
176
     1
 90
       50
176
     1
290
     0
176
     1
 90
       50
176
     1
 62
   256
176
     0
 40
1.0
176
     0
 90
        2
176
     1
  1
strokes_ogs.tif
176
     1
290
     0
176
     1
 40
1.0
176
     1
 40
1.0
176
     1
  0
VISUALSTYLE
  5
3BD
102
{ACAD_REACTORS
330
3B6
102
}
330
3B6
100
AcDbVisualStyle
  2
Hidden
 70
     6
177
     3
291
     0
 70
    58
 90
        1
176
     1
 90
        2
176
     1
 90
        2
176
     1
 90
        0
176
     1
 40
0.6
176
     1
 40
30.0
176
     1
 62
     7
420
 16777215
176
     1
 90
        2
176
     1
 90
        2
176
     1
 62
     7
176
     1
 62
   257
176
     1
 90
        2
176
     1
 90
        1
176
     1
 40
40.0
176
     1
 90
        0
176
     1
 62
   257
176
     1
 40
1.0
176
     1
 90
        1
176
     1
 90
        6
176
     1
 90
        2
176
     1
 62
     7
176
     1
 90
        3
176
     1
 90
        0
176
     1
 90
        0
176
     1
290
     0
176
     1
 90
        1
176
     1
 40
0.0
176
     1
 90
        0
176
     1
290
     0
176
     1
290
     1
176
     1
290
     1
176
     1
290
     0
176
     1
290
     0
176
     1
290
     0
176
     1
290
     0
176
     1
290
     0
176
     1
290
     0
176
     1
 90
       50
176
     1
 40
0.0
176
     1
 40
1.0
176
     1
 90
        0
176
     1
 62
   178
420
        0
176
     1
 90
       50
176
     1
 90
        3
176
     1
 62
     5
420
      255
176
     1
290
     0
176
     1
 90
       50
176
     1
 90
       50
176
     1
 90
       50
176
     1
290
     0
176
     1
 90
       50
176
     1
 62
   256
176
     0
 40
1.0
176
     0
 90
        2
176
     1
  1
strokes_ogs.tif
176
     1
290
     0
176
     1
 40
1.0
176
     1
 40
1.0
176
     1
  0
VISUALSTYLE
  5
3C7
102
{ACAD_REACTORS
330
3B6
102
}
330
3B6
100
AcDbVisualStyle
  2
JitterOff
 70
    20
177
     3
291
     1
 70
    58
 90
        2
176
     0
 90
        2
176
     0
 90
        0
176
     0
 90
        0
176
     0
 40
0.6
176
     0
 40
30.0
176
     0
 62
     7
420
 16777215
176
     0
 90
        1
176
     0
 90
        4
176
     0
 62
     7
176
     0
 62
   257
176
     0
 90
        1
176
     0
 90
        1
176
     0
 40
1.0
176
     0
 90
       10
176
     2
 62
     7
176
     0
 40
1.0
176
     0
 90
        1
176
     0
 90
        6
176
     0
 90
        2
176
     0
 62
     7
176
     0
 90
        5
176
     0
 90
        0
176
     0
 90
        0
176
     0
290
     0
176
     0
 90
        1
176
     0
 40
0.0
176
     0
 90
        0
176
     0
290
     0
176
     0
290
     1
176
     0
290
     1
176
     0
290
     0
176
     0
290
     0
176
     0
290
     0
176
     0
290
     0
176
     0
290
     0
176
     0
290
     0
176
     0
 90
       50
176
     0
 40
0.0
176
     0
 40
1.0
176
     0
 90
        0
176
     0
 62
   178
420
        0
176
     0
 90
       50
176
     0
 90
        3
176
     0
 62
     5
420
      255
176
     0
290
     0
176
     0
 90
       50
176
     0
 90
       50
176
     0
 90
       50
176
     0
290
     0
176
     0
 90
       50
176
     0
 62
   256
176
     0
 40
1.0
176
     0
 90
        2
176
     0
  1
strokes_ogs.tif
176
     0
290
     0
176
     0
 40
1.0
176
     0
 40
1.0
176
     0
  0
VISUALSTYLE
  5
3C4
102
{ACAD_REACTORS
330
3B6
102
}
330
3B6
100
AcDbVisualStyle
  2
Linepattern
 70
    14
177
     3
291
     1
 70
    58
 90
        2
176
     1
 90
        2
176
     1
 90
        0
176
     1
 90
        0
176
     1
 40
0.6
176
     1
 40
30.0
176
     1
 62
     7
420
 16777215
176
     1
 90
        1
176
     1
 90
        4
176
     1
 62
     7
176
     1
 62
   257
176
     1
 90
        7
176
     1
 90
        7
176
     1
 40
1.0
176
     1
 90
        8
176
     1
 62
     7
176
     1
 40
1.0
176
     1
 90
        1
176
     1
 90
        6
176
     1
 90
        2
176
     1
 62
     7
176
     1
 90
        5
176
     1
 90
        0
176
     1
 90
        0
176
     1
290
     0
176
     1
 90
        1
176
     1
 40
0.0
176
     1
 90
        0
176
     1
290
     0
176
     1
290
     1
176
     1
290
     1
176
     1
290
     0
176
     1
290
     0
176
     1
290
     0
176
     1
290
     0
176
     1
290
     0
176
     1
290
     0
176
     1
 90
       50
176
     1
 40
0.0
176
     1
 40
1.0
176
     1
 90
        0
176
     1
 62
   178
420
        0
176
     1
 90
       50
176
     1
 90
        3
176
     1
 62
     5
420
      255
176
     1
290
     0
176
     1
 90
       50
176
     1
 90
       50
176
     1
 90
       50
176
     1
290
     0
176
     1
 90
       50
176
     1
 62
   256
176
     0
 40
1.0
176
     0
 90
        2
176
     1
  1
strokes_ogs.tif
176
     1
290
     0
176
     1
 40
1.0
176
     1
 40
1.0
176
     1
  0
VISUALSTYLE
  5
3C8
102
{ACAD_REACTORS
330
3B6
102
}
330
3B6
100
AcDbVisualStyle
  2
OverhangOff
 70
    21
177
     3
291
     1
 70
    58
 90
        2
176
     0
 90
        2
176
     0
 90
        0
176
     0
 90
        0
176
     0
 40
0.6
176
     0
 40
30.0
176
     0
 62
     7
420
 16777215
176
     0
 90
        1
176
     0
 90
        4
176
     0
 62
     7
176
     0
 62
   257
176
     0
 90
        1
176
     0
 90
        1
176
     0
 40
1.0
176
     0
 90
        9
176
     2
 62
     7
176
     0
 40
1.0
176
     0
 90
        1
176
     0
 90
        6
176
     0
 90
        2
176
     0
 62
     7
176
     0
 90
        5
176
     0
 90
        0
176
     0
 90
        0
176
     0
290
     0
176
     0
 90
        1
176
     0
 40
0.0
176
     0
 90
        0
176
     0
290
     0
176
     0
290
     1
176
     0
290
     1
176
     0
290
     0
176
     0
290
     0
176
     0
290
     0
176
     0
290
     0
176
     0
290
     0
176
     0
290
     0
176
     0
 90
       50
176
     0
 40
0.0
176
     0
 40
1.0
176
     0
 90
        0
176
     0
 62
   178
420
        0
176
     0
 90
       50
176
     0
 90
        3
176
     0
 62
     5
420
      255
176
     0
290
     0
176
     0
 90
       50
176
     0
 90
       50
176
     0
 90
       50
176
     0
290
     0
176
     0
 90
       50
176
     0
 62
   256
176
     0
 40
1.0
176
     0
 90
        2
176
     0
  1
strokes_ogs.tif
176
     0
290
     0
176
     0
 40
1.0
176
     0
 40
1.0
176
     0
  0
VISUALSTYLE
  5
3BF
102
{ACAD_REACTORS
330
3B6
102
}
330
3B6
100
AcDbVisualStyle
  2
Realistic
 70
     8
177
     3
291
     0
 70
    58
 90
        2
176
     1
 90
        3
176
     1
 90
        0
176
     1
 90
        2
176
     1
 40
0.6
176
     1
 40
30.0
176
     1
 62
     7
420
 16777215
176
     1
 90
        0
176
     1
 90
        0
176
     1
 62
     7
176
     1
 62
   257
176
     1
 90
        1
176
     1
 90
        1
176
     1
 40
1.0
176
     1
 90
        8
176
     1
 62
   257
176
     1
 40
1.0
176
     1
 90
        1
176
     1
 90
        6
176
     1
 90
        2
176
     1
 62
     7
176
     1
 90
        3
176
     1
 90
        0
176
     1
 90
        0
176
     1
290
     0
176
     1
 90
       13
176
     1
 40
0.0
176
     1
 90
        0
176
     1
290
     0
176
     1
290
     1
176
     1
290
     1
176
     1
290
     0
176
     1
290
     0
176
     1
290
     0
176
     1
290
     0
176
     1
290
     0
176
     1
290
     0
176
     1
 90
       50
176
     1
 40
0.0
176
     1
 40
1.0
176
     1
 90
        0
176
     1
 62
   178
420
        0
176
     1
 90
       50
176
     1
 90
        3
176
     1
 62
     5
420
      255
176
     1
290
     0
176
     1
 90
       50
176
     1
 90
       50
176
     1
 90
       50
176
     1
290
     0
176
     1
 90
       50
176
     1
 62
   256
176
     0
 40
1.0
176
     0
 90
        2
176
     1
  1
strokes_ogs.tif
176
     1
290
     0
176
     1
 40
1.0
176
     1
 40
1.0
176
     1
  0
VISUALSTYLE
  5
3CE
102
{ACAD_REACTORS
330
3B6
102
}
330
3B6
100
AcDbVisualStyle
  2
Shaded
 70
    27
177
     3
291
     0
 70
    58
 90
        2
176
     1
 90
        2
176
     1
 90
        1
176
     1
 90
        2
176
     1
 40
0.6
176
     1
 40
30.0
176
     1
 62
     7
420
 16777215
176
     1
 90
        0
176
     1
 90
        4
176
     1
 62
     7
176
     1
 62
   257
176
     1
 90
        1
176
     1
 90
        1
176
     1
 40
1.0
176
     1
 90
        8
176
     1
 62
   257
176
     1
 40
1.0
176
     1
 90
        1
176
     1
 90
        6
176
     1
 90
        2
176
     1
 62
     8
420
  7895160
176
     1
 90
        3
176
     1
 90
        0
176
     1
 90
        0
176
     1
290
     0
176
     1
 90
        5
176
     1
 40
0.0
176
     1
 90
        0
176
     1
290
     0
176
     1
290
     1
176
     1
290
     1
176
     1
290
     0
176
     1
290
     0
176
     1
290
     0
176
     1
290
     0
176
     1
290
     0
176
     1
290
     0
176
     1
 90
       50
176
     1
 40
0.0
176
     1
 40
1.0
176
     1
 90
        0
176
     1
 62
   178
420
        0
176
     1
 90
       50
176
     1
 90
        3
176
     1
 62
     5
420
      255
176
     1
290
     0
176
     1
 90
       50
176
     1
 90
       50
176
     1
 90
       50
176
     1
290
     0
176
     1
 90
       50
176
     1
 62
   256
176
     0
 40
1.0
176
     0
 90
        2
176
     1
  1
strokes_ogs.tif
176
     1
290
     0
176
     1
 40
1.0
176
     1
 40
1.0
176
     1
  0
VISUALSTYLE
  5
3CD
102
{ACAD_REACTORS
330
3B6
102
}
330
3B6
100
AcDbVisualStyle
  2
Shaded with edges
 70
    26
177
     3
291
     0
 70
    58
 90
        2
176
     1
 90
        2
176
     1
 90
        1
176
     1
 90
        2
176
     1
 40
0.6
176
     1
 40
30.0
176
     1
 62
     7
420
 16777215
176
     1
 90
        1
176
     1
 90
       10
176
     1
 62
     7
176
     1
 62
   257
176
     1
 90
        2
176
     1
 90
        1
176
     1
 40
1.0
176
     1
 90
        8
176
     1
 62
   257
176
     1
 40
1.0
176
     1
 90
        1
176
     1
 90
        6
176
     1
 90
        2
176
     1
 62
     7
176
     1
 90
        3
176
     1
 90
        0
176
     1
 90
        0
176
     1
290
     0
176
     1
 90
        5
176
     1
 40
0.0
176
     1
 90
        0
176
     1
290
     0
176
     1
290
     1
176
     1
290
     1
176
     1
290
     0
176
     1
290
     0
176
     1
290
     0
176
     1
290
     0
176
     1
290
     0
176
     1
290
     0
176
     1
 90
       50
176
     1
 40
0.0
176
     1
 40
1.0
176
     1
 90
        0
176
     1
 62
   178
420
        0
176
     1
 90
       50
176
     1
 90
        3
176
     1
 62
     5
420
      255
176
     1
290
     0
176
     1
 90
       50
176
     1
 90
       50
176
     1
 90
       50
176
     1
290
     0
176
     1
 90
       50
176
     1
 62
   256
176
     0
 40
1.0
176
     0
 90
        2
176
     1
  1
strokes_ogs.tif
176
     1
290
     0
176
     1
 40
1.0
176
     1
 40
1.0
176
     1
  0
VISUALSTYLE
  5
3CA
102
{ACAD_REACTORS
330
3B6
102
}
330
3B6
100
AcDbVisualStyle
  2
Shades of Gray
 70
    23
177
     3
291
     0
 70
    58
 90
        2
176
     1
 90
        2
176
     1
 90
        3
176
     1
 90
        0
176
     1
 40
0.6
176
     1
 40
30.0
176
     1
 62
     7
420
 16777215
176
     1
 90
        2
176
     1
 90
        2
176
     1
 62
     7
176
     1
 62
     7
176
     1
 90
        1
176
     1
 90
        1
176
     1
 40
40.0
176
     1
 90
        8
176
     1
 62
     7
176
     1
 40
1.0
176
     1
 90
        1
176
     1
 90
        6
176
     1
 90
        2
176
     1
 62
     7
176
     1
 90
        3
176
     1
 90
        0
176
     1
 90
        0
176
     1
290
     0
176
     1
 90
        1
176
     1
 40
0.0
176
     1
 90
        0
176
     1
290
     0
176
     1
290
     1
176
     1
290
     1
176
     1
290
     0
176
     1
290
     0
176
     1
290
     0
176
     1
290
     0
176
     1
290
     0
176
     1
290
     0
176
     1
 90
       50
176
     1
 40
0.0
176
     1
 40
1.0
176
     1
 90
        0
176
     1
 62
   178
420
        0
176
     1
 90
       50
176
     1
 90
        3
176
     1
 62
     5
420
      255
176
     1
290
     0
176
     1
 90
       50
176
     1
 90
       50
176
     1
 90
       50
176
     1
290
     0
176
     1
 90
       50
176
     1
 62
   256
176
     0
 40
1.0
176
     0
 90
        2
176
     1
  1
strokes_ogs.tif
176
     1
290
     0
176
     1
 40
1.0
176
     1
 40
1.0
176
     1
  0
VISUALSTYLE
  5
3CB
102
{ACAD_REACTORS
330
3B6
102
}
330
3B6
100
AcDbVisualStyle
  2
Sketchy
 70
    24
177
     3
291
     0
 70
    58
 90
        1
176
     1
 90
        2
176
     1
 90
        2
176
     1
 90
        0
176
     1
 40
0.6
176
     1
 40
30.0
176
     1
 62
     7
420
 16777215
176
     1
 90
        2
176
     1
 90
        2
176
     1
 62
     7
176
     1
 62
     7
176
     1
 90
        1
176
     1
 90
        1
176
     1
 40
40.0
176
     1
 90
       11
176
     1
 62
     7
176
     1
 40
1.0
176
     1
 90
        1
176
     1
 90
        6
176
     1
 90
        2
176
     1
 62
     7
176
     1
 90
        6
176
     1
 90
        0
176
     1
 90
        0
176
     1
290
     0
176
     1
 90
        1
176
     1
 40
0.0
176
     1
 90
        0
176
     1
290
     0
176
     1
290
     1
176
     1
290
     1
176
     1
290
     0
176
     1
290
     0
176
     1
290
     0
176
     1
290
     0
176
     1
290
     0
176
     1
290
     0
176
     1
 90
       50
176
     1
 40
0.0
176
     1
 40
1.0
176
     1
 90
        0
176
     1
 62
   178
420
        0
176
     1
 90
       50
176
     1
 90
        3
176
     1
 62
     5
420
      255
176
     1
290
     0
176
     1
 90
       50
176
     1
 90
       50
176
     1
 90
       50
176
     1
290
     0
176
     1
 90
       50
176
     1
 62
   256
176
     0
 40
1.0
176
     0
 90
        2
176
     1
  1
strokes_ogs.tif
176
     1
290
     0
176
     1
 40
1.0
176
     1
 40
1.0
176
     1
  0
VISUALSTYLE
  5
3C3
102
{ACAD_REACTORS
330
3B6
102
}
330
3B6
100
AcDbVisualStyle
  2
Thicken
 70
    13
177
     3
291
     1
 70
    58
 90
        2
176
     1
 90
        2
176
     1
 90
        0
176
     1
 90
        0
176
     1
 40
0.6
176
     1
 40
30.0
176
     1
 62
     7
420
 16777215
176
     1
 90
        1
176
     1
 90
        4
176
     1
 62
     7
176
     1
 62
   257
176
     1
 90
        1
176
     1
 90
        1
176
     1
 40
1.0
176
     1
 90
       12
176
     1
 62
     7
176
     1
 40
1.0
176
     1
 90
        1
176
     1
 90
        6
176
     1
 90
        2
176
     1
 62
     7
176
     1
 90
        5
176
     1
 90
        0
176
     1
 90
        0
176
     1
290
     0
176
     1
 90
        1
176
     1
 40
0.0
176
     1
 90
        0
176
     1
290
     0
176
     1
290
     1
176
     1
290
     1
176
     1
290
     0
176
     1
290
     0
176
     1
290
     0
176
     1
290
     0
176
     1
290
     0
176
     1
290
     0
176
     1
 90
       50
176
     1
 40
0.0
176
     1
 40
1.0
176
     1
 90
        0
176
     1
 62
   178
420
        0
176
     1
 90
       50
176
     1
 90
        3
176
     1
 62
     5
420
      255
176
     1
290
     0
176
     1
 90
       50
176
     1
 90
       50
176
     1
 90
       50
176
     1
290
     0
176
     1
 90
       50
176
     1
 62
   256
176
     0
 40
1.0
176
     0
 90
        2
176
     1
  1
strokes_ogs.tif
176
     1
290
     0
176
     1
 40
1.0
176
     1
 40
1.0
176
     1
  0
VISUALSTYLE
  5
3BC
102
{ACAD_REACTORS
330
3B6
102
}
330
3B6
100
AcDbVisualStyle
  2
Wireframe
 70
     5
177
     3
291
     0
 70
    58
 90
        0
176
     1
 90
        2
176
     1
 90
        0
176
     1
 90
        0
176
     1
 40
0.6
176
     1
 40
30.0
176
     1
 62
     7
420
 16777215
176
     1
 90
        1
176
     1
 90
        4
176
     1
 62
     7
176
     1
 62
   257
176
     1
 90
        1
176
     1
 90
        1
176
     1
 40
1.0
176
     1
 90
        0
176
     1
 62
   257
176
     1
 40
1.0
176
     1
 90
        1
176
     1
 90
        6
176
     1
 90
        2
176
     1
 62
     7
176
     1
 90
        3
176
     1
 90
        0
176
     1
 90
        0
176
     1
290
     0
176
     1
 90
        1
176
     1
 40
0.0
176
     1
 90
        0
176
     1
290
     0
176
     1
290
     1
176
     1
290
     1
176
     1
290
     0
176
     1
290
     0
176
     1
290
     0
176
     1
290
     0
176
     1
290
     0
176
     1
290
     0
176
     1
 90
       50
176
     1
 40
0.0
176
     1
 40
1.0
176
     1
 90
        0
176
     1
 62
   178
420
        0
176
     1
 90
       50
176
     1
 90
        3
176
     1
 62
     5
420
      255
176
     1
290
     0
176
     1
 90
       50
176
     1
 90
       50
176
     1
 90
       50
176
     1
290
     0
176
     1
 90
       50
176
     1
 62
   256
176
     0
 40
1.0
176
     0
 90
        2
176
     1
  1
strokes_ogs.tif
176
     1
290
     0
176
     1
 40
1.0
176
     1
 40
1.0
176
     1
  0
VISUALSTYLE
  5
3CC
102
{ACAD_REACTORS
330
3B6
102
}
330
3B6
100
AcDbVisualStyle
  2
X-Ray
 70
    25
177
     3
291
     0
 70
    58
 90
        2
176
     1
 90
        2
176
     1
 90
        1
176
     1
 90
        1
176
     1
 40
0.5
176
     1
 40
30.0
176
     1
 62
     7
420
 16777215
176
     1
 90
        1
176
     1
 90
        0
176
     1
 62
     7
176
     1
 62
   257
176
     1
 90
        1
176
     1
 90
        1
176
     1
 40
1.0
176
     1
 90
        8
176
     1
 62
     7
176
     1
 40
1.0
176
     1
 90
        1
176
     1
 90
        6
176
     1
 90
        2
176
     1
 62
     7
176
     1
 90
        3
176
     1
 90
        0
176
     1
 90
        0
176
     1
290
     0
176
     1
 90
       13
176
     1
 40
0.0
176
     1
 90
        0
176
     1
290
     0
176
     1
290
     1
176
     1
290
     1
176
     1
290
     0
176
     1
290
     0
176
     1
290
     0
176
     1
290
     0
176
     1
290
     0
176
     1
290
     0
176
     1
 90
       50
176
     1
 40
0.0
176
     1
 40
1.0
176
     1
 90
        0
176
     1
 62
   178
420
        0
176
     1
 90
       50
176
     1
 90
        3
176
     1
 62
     5
420
      255
176
     1
290
     0
176
     1
 90
       50
176
     1
 90
       50
176
     1
 90
       50
176
     1
290
     0
176
     1
 90
       50
176
     1
 62
   256
176
     0
 40
1.0
176
     0
 90
        2
176
     1
  1
strokes_ogs.tif
176
     1
290
     0
176
     1
 40
1.0
176
     1
 40
1.0
176
     1
  0
DICTIONARYVAR
  5
53C
102
{ACAD_REACTORS
330
53B
102
}
330
53B
100
DictionaryVariables
280
     0
  1
1:1
  0
DICTIONARYVAR
  5
541
102
{ACAD_REACTORS
330
53B
102
}
330
53B
100
DictionaryVariables
280
     0
  1
Standard
  0
DICTIONARYVAR
  5
540
102
{ACAD_REACTORS
330
53B
102
}
330
53B
100
DictionaryVariables
280
     0
  1
Standard
  0
XRECORD
  5
3FC
102
{ACAD_REACTORS
330
3FB
102
}
330
3FB
100
AcDbXrecord
280
     1
 90
        0
  0
XRECORD
  5
3FD
102
{ACAD_REACTORS
330
3FB
102
}
330
3FB
100
AcDbXrecord
280
     1
 90
        0
  0
XRECORD
  5
3FE
102
{ACAD_REACTORS
330
3FB
102
}
330
3FB
100
AcDbXrecord
280
     1
1000
Standard
  0
XRECORD
  5
3FF
102
{ACAD_REACTORS
330
3FB
102
}
330
3FB
100
AcDbXrecord
280
     1
290
     1
  0
XRECORD
  5
400
102
{ACAD_REACTORS
330
3FB
102
}
330
3FB
100
AcDbXrecord
280
     1
 90
        2
  0
XRECORD
  5
401
102
{ACAD_REACTORS
330
3FB
102
}
330
3FB
100
AcDbXrecord
280
     1
 90
        4
  0
XRECORD
  5
402
102
{ACAD_REACTORS
330
3FB
102
}
330
3FB
100
AcDbXrecord
280
     1
290
     1
  0
XRECORD
  5
403
102
{ACAD_REACTORS
330
3FB
102
}
330
3FB
100
AcDbXrecord
280
     1
290
     1
  0
XRECORD
  5
404
102
{ACAD_REACTORS
330
3FB
102
}
330
3FB
100
AcDbXrecord
280
     1
290
     1
  0
XRECORD
  5
405
102
{ACAD_REACTORS
330
3FB
102
}
330
3FB
100
AcDbXrecord
280
     1
290
     1
  0
XRECORD
  5
406
102
{ACAD_REACTORS
330
3FB
102
}
330
3FB
100
AcDbXrecord
280
     1
1000
auto
  0
XRECORD
  5
407
102
{ACAD_REACTORS
330
3FB
102
}
330
3FB
100
AcDbXrecord
280
     1
1000
auto
  0
XRECORD
  5
408
102
{ACAD_REACTORS
330
3FB
102
}
330
3FB
100
AcDbXrecord
280
     1
1000
auto
  0
XRECORD
  5
409
102
{ACAD_REACTORS
330
3FB
102
}
330
3FB
100
AcDbXrecord
280
     1
1000
auto
  0
XRECORD
  5
40A
102
{ACAD_REACTORS
330
3FB
102
}
330
3FB
100
AcDbXrecord
280
     1
1000
auto
  0
XRECORD
  5
40B
102
{ACAD_REACTORS
330
3FB
102
}
330
3FB
100
AcDbXrecord
280
     1
1000
auto
  0
XRECORD
  5
40C
102
{ACAD_REACTORS
330
3FB
102
}
330
3FB
100
AcDbXrecord
280
     1
1000
auto
  0
XRECORD
  5
40D
102
{ACAD_REACTORS
330
3FB
102
}
330
3FB
100
AcDbXrecord
280
     1
1000
auto
  0
XRECORD
  5
40E
102
{ACAD_REACTORS
330
3FB
102
}
330
3FB
100
AcDbXrecord
280
     1
290
     0
  0
XRECORD
  5
40F
102
{ACAD_REACTORS
330
3FB
102
}
330
3FB
100
AcDbXrecord
280
     1
290
     0
  0
XRECORD
  5
410
102
{ACAD_REACTORS
330
3FB
102
}
330
3FB
100
AcDbXrecord
280
     1
290
     0
  0
XRECORD
  5
411
102
{ACAD_REACTORS
330
3FB
102
}
330
3FB
100
AcDbXrecord
280
     1
290
     0
  0
XRECORD
  5
412
102
{ACAD_REACTORS
330
3FB
102
}
330
3FB
100
AcDbXrecord
280
     1
 90
        0
  0
XRECORD
  5
413
102
{ACAD_REACTORS
330
3FB
102
}
330
3FB
100
AcDbXrecord
280
     1
 90
        0
  0
XRECORD
  5
414
102
{ACAD_REACTORS
330
3FB
102
}
330
3FB
100
AcDbXrecord
280
     1
 90
        0
  0
XRECORD
  5
415
102
{ACAD_REACTORS
330
3FB
102
}
330
3FB
100
AcDbXrecord
280
     1
 90
        0
  0
XRECORD
  5
416
102
{ACAD_REACTORS
330
3FB
102
}
330
3FB
100
AcDbXrecord
280
     1
1000
auto
  0
XRECORD
  5
417
102
{ACAD_REACTORS
330
3FB
102
}
330
3FB
100
AcDbXrecord
280
     1
1000
auto
  0
XRECORD
  5
418
102
{ACAD_REACTORS
330
3FB
102
}
330
3FB
100
AcDbXrecord
280
     1
1000
auto
  0
XRECORD
  5
419
102
{ACAD_REACTORS
330
3FB
102
}
330
3FB
100
AcDbXrecord
280
     1
1000
auto
  0
XRECORD
  5
41A
102
{ACAD_REACTORS
330
3FB
102
}
330
3FB
100
AcDbXrecord
280
     1
1000
auto
  0
XRECORD
  5
41B
102
{ACAD_REACTORS
330
3FB
102
}
330
3FB
100
AcDbXrecord
280
     1
1000
auto
  0
XRECORD
  5
41C
102
{ACAD_REACTORS
330
3FB
102
}
330
3FB
100
AcDbXrecord
280
     1
1000
auto
  0
XRECORD
  5
41D
102
{ACAD_REACTORS
330
3FB
102
}
330
3FB
100
AcDbXrecord
280
     1
1000
auto
  0
XRECORD
  5
41E
102
{ACAD_REACTORS
330
3FB
102
}
330
3FB
100
AcDbXrecord
280
     1
 90
        1
  0
XRECORD
  5
41F
102
{ACAD_REACTORS
330
3FB
102
}
330
3FB
100
AcDbXrecord
280
     1
 40
10.0
  0
XRECORD
  5
420
102
{ACAD_REACTORS
330
3FB
102
}
330
3FB
100
AcDbXrecord
280
     1
 40
10.0
  0
XRECORD
  5
421
102
{ACAD_REACTORS
330
3FB
102
}
330
3FB
100
AcDbXrecord
280
     1
 40
10.0
  0
XRECORD
  5
422
102
{ACAD_REACTORS
330
3FB
102
}
330
3FB
100
AcDbXrecord
280
     1
 40
10.0
  0
XRECORD
  5
423
102
{ACAD_REACTORS
330
3FB
102
}
330
3FB
100
AcDbXrecord
280
     1
290
     0
  0
XRECORD
  5
424
102
{ACAD_REACTORS
330
3FB
102
}
330
3FB
100
AcDbXrecord
280
     1
 90
        1
  0
XRECORD
  5
425
102
{ACAD_REACTORS
330
3FB
102
}
330
3FB
100
AcDbXrecord
280
     1
 40
-28.08402872928195
  0
XRECORD
  5
426
102
{ACAD_REACTORS
330
3FB
102
}
330
3FB
100
AcDbXrecord
280
     1
 40
-194.4855734806629
  0
XRECORD
  5
427
102
{ACAD_REACTORS
330
3FB
102
}
330
3FB
100
AcDbXrecord
280
     1
1000
Landscape
  0
XRECORD
  5
428
102
{ACAD_REACTORS
330
3FB
102
}
330
3FB
100
AcDbXrecord
280
     1
 40
297.0
  0
XRECORD
  5
429
102
{ACAD_REACTORS
330
3FB
102
}
330
3FB
100
AcDbXrecord
280
     1
 40
210.0
  0
XRECORD
  5
42A
102
{ACAD_REACTORS
330
3FB
102
}
330
3FB
100
AcDbXrecord
280
     1
1000
1:2.5
  0
XRECORD
  5
42B
102
{ACAD_REACTORS
330
3FB
102
}
330
3FB
100
AcDbXrecord
280
     1
290
     1
  0
XRECORD
  5
42C
102
{ACAD_REACTORS
330
3FB
102
}
330
3FB
100
AcDbXrecord
280
     1
 90
        4
  0
DICTIONARY
  5
53D
330
3F6
100
AcDbDictionary
280
     1
281
     1
  3
ACAD_ROUNDTRIP_2008_TABLESTYLE_CELLSTYLEMAP
360
53E
  0
CELLSTYLEMAP
  5
53E
102
{ACAD_REACTORS
330
53D
102
}
330
53D
100
AcDbCellStyleMap
 90
        3
300
CELLSTYLE
  1
TABLEFORMAT_BEGIN
 90
        5
170
     1
 91
        0
 92
    32768
 62
   257
 93
        1
300
CONTENTFORMAT
  1
CONTENTFORMAT_BEGIN
 90
        0
 91
        0
 92
        4
 93
        0
300

 40
0.0
140
1.0
 94
        5
 62
     0
340
39E
144
0.25
309
CONTENTFORMAT_END
171
     1
301
MARGIN
  1
CELLMARGIN_BEGIN
 40
0.06
 40
0.06
 40
0.06
 40
0.06
 40
0.06
 40
0.06
309
CELLMARGIN_END
 94
        6
 95
        1
302
GRIDFORMAT
  1
GRIDFORMAT_BEGIN
 90
        0
 91
        1
 62
     0
 92
       -2
340
3A0
 93
        0
 40
0.045
309
GRIDFORMAT_END
 95
        2
302
GRIDFORMAT
  1
GRIDFORMAT_BEGIN
 90
        0
 91
        1
 62
     0
 92
       -2
340
3A0
 93
        0
 40
0.045
309
GRIDFORMAT_END
 95
        4
302
GRIDFORMAT
  1
GRIDFORMAT_BEGIN
 90
        0
 91
        1
 62
     0
 92
       -2
340
3A0
 93
        0
 40
0.045
309
GRIDFORMAT_END
 95
        8
302
GRIDFORMAT
  1
GRIDFORMAT_BEGIN
 90
        0
 91
        1
 62
     0
 92
       -2
340
3A0
 93
        0
 40
0.045
309
GRIDFORMAT_END
 95
       16
302
GRIDFORMAT
  1
GRIDFORMAT_BEGIN
 90
        0
 91
        1
 62
     0
 92
       -2
340
3A0
 93
        0
 40
0.045
309
GRIDFORMAT_END
 95
       32
302
GRIDFORMAT
  1
GRIDFORMAT_BEGIN
 90
        0
 91
        1
 62
     0
 92
       -2
340
3A0
 93
        0
 40
0.045
309
GRIDFORMAT_END
309
TABLEFORMAT_END
  1
CELLSTYLE_BEGIN
 90
        1
 91
        1
300
_TITLE
309
CELLSTYLE_END
300
CELLSTYLE
  1
TABLEFORMAT_BEGIN
 90
        5
170
     1
 91
        0
 92
        0
 62
   257
 93
        1
300
CONTENTFORMAT
  1
CONTENTFORMAT_BEGIN
 90
        0
 91
        0
 92
        4
 93
        0
300

 40
0.0
140
1.0
 94
        5
 62
     0
340
39E
144
0.18
309
CONTENTFORMAT_END
171
     1
301
MARGIN
  1
CELLMARGIN_BEGIN
 40
0.06
 40
0.06
 40
0.06
 40
0.06
 40
0.06
 40
0.06
309
CELLMARGIN_END
 94
        6
 95
        1
302
GRIDFORMAT
  1
GRIDFORMAT_BEGIN
 90
        0
 91
        1
 62
     0
 92
       -2
340
3A0
 93
        0
 40
0.045
309
GRIDFORMAT_END
 95
        2
302
GRIDFORMAT
  1
GRIDFORMAT_BEGIN
 90
        0
 91
        1
 62
     0
 92
       -2
340
3A0
 93
        0
 40
0.045
309
GRIDFORMAT_END
 95
        4
302
GRIDFORMAT
  1
GRIDFORMAT_BEGIN
 90
        0
 91
        1
 62
     0
 92
       -2
340
3A0
 93
        0
 40
0.045
309
GRIDFORMAT_END
 95
        8
302
GRIDFORMAT
  1
GRIDFORMAT_BEGIN
 90
        0
 91
        1
 62
     0
 92
       -2
340
3A0
 93
        0
 40
0.045
309
GRIDFORMAT_END
 95
       16
302
GRIDFORMAT
  1
GRIDFORMAT_BEGIN
 90
        0
 91
        1
 62
     0
 92
       -2
340
3A0
 93
        0
 40
0.045
309
GRIDFORMAT_END
 95
       32
302
GRIDFORMAT
  1
GRIDFORMAT_BEGIN
 90
        0
 91
        1
 62
     0
 92
       -2
340
3A0
 93
        0
 40
0.045
309
GRIDFORMAT_END
309
TABLEFORMAT_END
  1
CELLSTYLE_BEGIN
 90
        2
 91
        1
300
_HEADER
309
CELLSTYLE_END
300
CELLSTYLE
  1
TABLEFORMAT_BEGIN
 90
        5
170
     1
 91
        0
 92
        0
 62
   257
 93
        1
300
CONTENTFORMAT
  1
CONTENTFORMAT_BEGIN
 90
        0
 91
        0
 92
        4
 93
        0
300

 40
0.0
140
1.0
 94
        2
 62
     0
340
39E
144
0.18
309
CONTENTFORMAT_END
171
     1
301
MARGIN
  1
CELLMARGIN_BEGIN
 40
0.06
 40
0.06
 40
0.06
 40
0.06
 40
0.06
 40
0.06
309
CELLMARGIN_END
 94
        6
 95
        1
302
GRIDFORMAT
  1
GRIDFORMAT_BEGIN
 90
        0
 91
        1
 62
     0
 92
       -2
340
3A0
 93
        0
 40
0.045
309
GRIDFORMAT_END
 95
        2
302
GRIDFORMAT
  1
GRIDFORMAT_BEGIN
 90
        0
 91
        1
 62
     0
 92
       -2
340
3A0
 93
        0
 40
0.045
309
GRIDFORMAT_END
 95
        4
302
GRIDFORMAT
  1
GRIDFORMAT_BEGIN
 90
        0
 91
        1
 62
     0
 92
       -2
340
3A0
 93
        0
 40
0.045
309
GRIDFORMAT_END
 95
        8
302
GRIDFORMAT
  1
GRIDFORMAT_BEGIN
 90
        0
 91
        1
 62
     0
 92
       -2
340
3A0
 93
        0
 40
0.045
309
GRIDFORMAT_END
 95
       16
302
GRIDFORMAT
  1
GRIDFORMAT_BEGIN
 90
        0
 91
        1
 62
     0
 92
       -2
340
3A0
 93
        0
 40
0.045
309
GRIDFORMAT_END
 95
       32
302
GRIDFORMAT
  1
GRIDFORMAT_BEGIN
 90
        0
 91
        1
 62
     0
 92
       -2
340
3A0
 93
        0
 40
0.045
309
GRIDFORMAT_END
309
TABLEFORMAT_END
  1
CELLSTYLE_BEGIN
 90
        3
 91
        2
300
_DATA
309
CELLSTYLE_END
  0
ENDSEC
  0
EOF
